{"glyphs":{"0":{"ha":833,"x_min":81,"x_max":753,"o":"m 417 -11 q 299 17 358 -11 q 190 102 240 44 q 110 249 140 160 q 81 460 81 338 q 110 671 81 582 q 190 817 140 760 q 299 903 240 875 q 417 931 358 931 q 578 881 501 931 q 703 726 654 831 q 753 460 753 622 q 703 193 753 297 q 578 39 654 89 q 417 -11 501 -11 m 417 58 q 545 102 486 58 q 640 235 604 146 q 676 460 676 324 q 640 685 676 596 q 545 817 604 774 q 417 861 486 861 q 294 817 354 861 q 196 685 235 774 q 157 460 157 596 q 196 235 157 324 q 294 102 235 146 q 417 58 354 58 m 417 8 q 325 58 369 8 q 251 207 281 107 q 222 460 222 307 q 251 713 222 613 q 325 862 281 813 q 417 911 369 911 q 513 862 469 911 q 584 713 557 813 q 611 460 611 613 q 584 207 611 307 q 513 58 557 107 q 417 8 469 8 m 417 58 q 517 157 474 58 q 560 460 560 256 q 517 763 560 664 q 417 861 474 861 q 350 817 383 861 q 295 685 317 774 q 274 460 274 596 q 295 235 274 324 q 350 102 317 146 q 417 58 383 58 m 151 511 q 133 507 142 504 q 117 518 124 510 q 113 536 111 528 q 124 551 114 544 l 231 626 q 251 631 242 635 q 265 619 260 626 q 270 601 272 610 q 258 586 268 593 l 151 511 m 151 231 q 133 226 142 224 q 117 238 124 229 q 113 256 111 247 q 124 271 114 264 l 231 346 q 251 350 242 354 q 265 339 260 346 q 270 321 272 329 q 258 306 268 313 l 151 231 m 151 371 q 133 367 142 364 q 117 378 124 369 q 113 396 111 388 q 124 411 114 404 l 231 486 q 251 490 242 494 q 265 479 260 486 q 270 461 272 469 q 258 446 268 453 l 151 371 m 603 567 q 584 563 593 560 q 568 574 575 565 q 564 592 563 583 q 575 607 565 600 l 682 682 q 702 686 693 690 q 717 675 711 682 q 722 657 724 665 q 710 642 719 649 l 603 567 m 603 286 q 584 282 593 279 q 568 293 575 285 q 564 311 563 303 q 575 326 565 319 l 682 401 q 702 406 693 410 q 717 394 711 401 q 722 376 724 385 q 710 361 719 368 l 603 286 m 603 426 q 584 422 593 419 q 568 433 575 425 q 564 451 563 443 q 575 467 565 460 l 682 542 q 702 546 693 550 q 717 535 711 542 q 722 517 724 525 q 710 501 719 508 l 603 426 z "},"1":{"ha":833,"x_min":179,"x_max":689,"o":"m 215 0 q 179 35 179 0 q 215 69 179 69 l 653 69 q 689 35 689 69 q 653 0 689 0 l 215 0 m 485 8 q 447 44 447 8 l 447 739 q 343 664 403 688 q 229 640 283 640 q 197 651 210 640 q 185 676 185 661 q 197 701 185 690 q 236 713 210 713 q 288 722 254 713 q 358 753 322 732 q 419 808 393 774 q 446 893 444 843 q 485 931 449 931 q 522 904 518 931 q 524 894 524 901 l 524 44 q 485 8 524 8 m 335 14 q 311 38 311 14 l 311 678 q 335 701 311 701 q 360 679 360 701 l 360 39 q 335 14 360 14 m 367 421 q 333 425 346 406 q 327 442 328 432 q 338 460 326 451 l 444 535 q 479 529 465 549 q 484 512 485 521 q 474 496 483 503 l 367 421 m 367 281 q 333 285 346 265 q 327 301 328 292 q 338 319 326 311 l 444 394 q 479 389 465 408 q 484 372 485 381 q 474 356 483 363 l 367 281 m 367 144 q 333 149 346 129 q 327 165 328 156 q 338 183 326 175 l 444 258 q 479 253 465 272 q 484 235 485 244 q 474 219 483 226 l 367 144 z "},"2":{"ha":833,"x_min":97,"x_max":736,"o":"m 701 0 q 667 36 667 0 l 667 151 q 701 188 667 188 q 736 151 736 188 l 736 36 q 701 0 736 0 m 131 0 q 105 11 113 0 q 97 38 97 22 l 97 167 q 126 268 97 228 q 203 336 156 308 q 307 385 250 364 q 421 427 364 406 q 525 478 478 449 q 601 551 572 507 q 631 661 631 594 q 594 771 631 728 q 506 834 558 814 q 401 854 453 854 q 270 818 325 854 q 196 742 215 782 q 178 713 188 724 q 149 701 168 703 q 138 703 142 701 q 114 735 114 707 q 117 753 114 742 q 173 845 131 806 q 275 908 215 885 q 401 931 335 931 q 543 901 474 931 q 658 811 613 871 q 704 660 704 751 q 676 526 704 581 q 599 437 647 472 q 495 378 551 401 q 383 335 439 354 q 278 293 326 315 q 202 240 231 271 q 174 161 174 210 l 174 69 l 703 69 q 736 35 736 69 q 703 0 736 0 l 131 0 m 353 401 q 383 418 360 404 q 432 462 406 432 q 477 540 458 492 q 496 661 496 589 q 460 797 496 742 q 374 853 425 853 l 414 886 q 508 798 471 854 q 544 660 544 742 q 517 513 544 571 q 446 419 490 456 q 347 359 401 383 q 236 311 292 335 l 353 401 m 529 674 q 504 697 504 674 q 509 714 504 706 q 528 722 514 722 l 658 722 q 683 699 683 722 q 678 681 683 689 q 660 674 672 674 l 529 674 m 519 560 q 494 583 494 560 q 499 600 494 592 q 518 608 504 608 l 649 608 q 674 585 674 608 q 668 567 674 575 q 650 560 663 560 l 519 560 z "},"3":{"ha":833,"x_min":92,"x_max":700,"o":"m 396 0 q 253 31 322 0 q 140 115 185 63 q 92 235 94 168 q 102 263 92 251 q 129 274 113 274 q 169 236 163 274 q 217 140 182 176 q 299 87 251 104 q 396 69 346 69 q 560 130 499 69 q 622 290 622 190 q 579 431 622 375 q 466 516 536 488 q 315 544 396 544 q 286 555 297 544 q 275 579 275 565 q 286 604 275 594 q 314 614 297 614 q 392 608 344 614 q 493 583 440 601 q 593 530 546 565 q 669 436 640 494 q 699 290 699 378 q 660 133 699 197 q 552 34 621 68 q 396 0 483 0 m 140 743 q 106 779 106 743 l 106 894 q 140 931 106 931 q 175 894 175 931 l 175 779 q 140 743 175 743 m 249 479 q 221 492 233 479 q 208 519 208 507 q 219 544 208 533 l 576 861 l 142 861 q 106 896 106 861 q 142 931 106 931 l 664 931 q 700 896 700 931 q 698 878 700 885 q 688 864 696 872 l 274 490 q 249 479 263 479 m 274 97 q 330 101 293 89 q 405 144 367 113 q 470 228 443 176 q 497 353 497 281 q 472 479 497 433 q 382 539 446 525 l 415 578 q 509 490 472 546 q 546 351 546 433 q 517 206 546 263 q 447 117 488 149 q 367 74 406 86 q 310 61 329 61 l 274 97 m 529 275 q 504 299 504 275 q 509 315 504 307 q 528 324 514 324 l 658 324 q 683 300 683 324 q 678 283 683 290 q 660 275 672 275 l 529 275 m 486 161 q 461 185 461 161 q 466 201 461 193 q 485 210 471 210 l 615 210 q 640 186 640 210 q 635 169 640 176 q 617 161 629 161 l 486 161 z "},"4":{"ha":833,"x_min":69,"x_max":761,"o":"m 585 8 q 546 44 546 8 l 546 781 l 142 286 q 113 271 131 271 q 88 281 99 271 q 69 308 69 293 q 78 329 69 319 l 546 911 q 562 925 553 919 q 585 931 571 931 q 624 894 624 931 l 624 44 q 585 8 624 8 m 474 0 q 438 35 438 0 q 474 69 438 69 l 683 69 q 719 35 719 69 q 683 0 719 0 l 474 0 m 106 269 q 69 304 69 269 q 106 339 69 339 l 725 339 q 761 304 761 339 q 725 269 761 269 l 106 269 m 318 594 q 346 579 339 600 l 390 426 q 371 396 397 404 q 343 413 350 390 l 299 565 q 301 583 297 574 q 318 594 306 592 m 403 701 q 432 685 425 707 l 475 532 q 457 503 482 510 q 429 518 435 497 l 385 671 q 387 689 382 681 q 403 701 392 697 m 260 288 q 257 321 242 303 l 547 679 q 581 683 561 697 q 586 650 600 667 l 296 292 q 260 288 279 272 m 157 372 q 153 406 138 386 l 443 764 q 476 767 458 782 q 482 733 496 751 l 192 375 q 157 372 176 356 z "},"5":{"ha":833,"x_min":125,"x_max":732,"o":"m 429 0 q 287 28 357 0 q 171 108 217 56 q 125 233 125 161 q 135 263 125 251 q 163 274 144 274 q 203 236 196 274 q 250 140 215 176 q 332 87 285 104 q 429 69 379 69 q 594 139 532 69 q 656 318 656 208 q 628 427 656 375 q 553 513 601 479 q 436 547 504 547 q 367 538 401 547 q 306 518 332 529 q 269 501 281 507 q 240 489 247 492 q 228 486 233 486 q 194 522 194 486 l 194 894 q 233 931 194 931 q 271 894 271 931 l 271 582 q 348 608 308 599 q 439 617 388 617 q 583 581 517 617 q 691 478 650 544 q 732 318 732 411 q 693 147 732 218 q 585 38 654 75 q 429 0 517 0 m 175 861 q 139 896 139 861 q 175 931 139 931 l 668 931 q 704 896 704 931 q 668 861 704 861 l 175 861 m 669 743 q 635 779 635 743 l 635 894 q 669 931 635 931 q 704 894 704 931 l 704 779 q 669 743 704 743 m 304 99 q 361 103 324 90 q 439 149 399 115 q 508 235 479 182 q 536 360 536 288 q 510 489 536 440 q 426 547 485 538 l 481 560 q 585 358 585 525 q 555 212 585 269 q 482 122 525 154 q 400 76 439 89 q 342 63 361 63 l 304 99 m 568 303 q 543 326 543 303 q 548 343 543 335 q 567 351 553 351 l 697 351 q 722 328 722 351 q 717 310 722 318 q 699 303 711 303 l 568 303 m 535 189 q 510 213 510 189 q 515 229 510 221 q 533 238 519 238 l 664 238 q 689 214 689 238 q 683 197 689 204 q 665 189 678 189 l 535 189 z "},"6":{"ha":833,"x_min":67,"x_max":754,"o":"m 415 931 q 603 881 526 931 q 700 753 681 831 q 703 735 703 742 q 679 703 703 707 q 668 701 675 701 q 640 713 650 703 q 621 742 629 724 q 553 818 603 782 q 415 854 504 854 q 230 766 300 854 q 150 489 160 678 q 283 601 206 569 q 432 632 360 632 q 585 596 511 632 q 706 488 658 560 q 754 308 754 417 q 707 133 754 204 q 585 26 660 63 q 428 -10 511 -10 q 242 28 314 -10 q 133 131 171 67 q 81 276 94 194 q 67 442 67 357 q 112 712 67 603 q 236 876 157 821 q 415 931 315 931 m 432 558 q 339 544 388 558 q 247 500 290 529 q 177 426 204 471 q 150 321 150 382 q 163 239 150 285 q 208 151 176 193 q 294 83 240 110 q 432 56 349 56 q 548 85 492 56 q 641 170 604 114 q 678 307 678 226 q 641 444 678 388 q 548 529 604 500 q 432 558 492 558 m 428 8 q 343 42 389 8 q 264 144 297 75 q 231 319 231 214 q 260 485 231 425 q 335 569 290 544 q 428 594 381 594 l 432 558 q 394 551 419 558 q 343 521 369 544 q 298 450 317 497 q 279 321 279 403 q 306 165 279 224 q 368 81 332 107 q 432 56 404 56 l 428 8 m 428 8 l 432 56 q 488 91 463 56 q 530 186 514 126 q 546 321 546 246 q 526 468 546 417 q 479 539 506 519 q 432 558 453 558 l 428 594 q 513 568 475 594 q 572 482 550 542 q 594 319 594 422 q 547 85 594 160 q 428 8 499 11 m 119 311 q 94 335 94 311 q 99 351 94 343 q 118 360 104 360 l 249 360 q 274 336 274 360 q 268 319 274 326 q 250 311 263 311 l 119 311 m 119 197 q 94 221 94 197 q 99 238 94 229 q 118 246 104 246 l 249 246 q 274 222 274 246 q 268 205 274 213 q 250 197 263 197 l 119 197 m 592 311 q 567 335 567 311 q 572 351 567 343 q 590 360 576 360 l 721 360 q 746 336 746 360 q 740 319 746 326 q 722 311 735 311 l 592 311 m 592 197 q 567 221 567 197 q 572 238 567 229 q 590 246 576 246 l 721 246 q 746 222 746 246 q 740 205 746 213 q 722 197 735 197 l 592 197 z "},"7":{"ha":833,"x_min":96,"x_max":760,"o":"m 356 7 l 356 149 q 377 348 356 265 q 434 490 399 431 q 509 593 469 549 q 586 677 549 638 q 650 760 624 717 q 683 861 676 804 l 132 861 q 96 896 96 861 q 132 931 96 931 l 724 931 q 760 896 760 931 q 736 759 760 814 q 675 663 713 704 q 596 581 638 622 q 517 486 554 540 q 456 351 479 432 q 432 149 432 271 l 432 7 l 356 7 m 289 0 q 253 35 253 0 q 289 69 253 69 l 499 69 q 535 35 535 69 q 499 0 535 0 l 289 0 m 289 753 q 264 728 289 728 l 121 728 q 96 753 96 728 q 122 776 96 776 l 265 776 q 289 753 289 776 m 121 728 q 96 753 96 728 l 96 896 q 121 921 96 921 q 144 894 144 921 l 144 751 q 121 728 144 728 m 603 419 q 579 396 603 396 l 296 396 q 272 419 272 396 q 294 444 272 444 l 578 444 q 603 419 603 444 m 599 344 q 576 368 576 344 l 576 415 q 582 433 576 428 q 600 439 588 439 q 619 433 614 439 q 624 417 624 429 l 624 369 q 599 344 624 344 m 599 494 q 624 469 624 494 l 624 422 q 619 406 624 410 q 600 400 614 400 q 582 406 588 400 q 576 424 576 411 l 576 471 q 599 494 576 494 m 299 368 q 276 344 299 344 q 251 369 251 344 l 251 417 q 256 433 251 429 q 275 439 261 439 q 293 433 288 439 q 299 415 299 428 l 299 368 m 251 471 q 276 496 251 496 q 299 472 299 496 l 299 425 q 293 407 299 413 q 275 401 288 401 q 256 407 261 401 q 251 424 251 411 l 251 471 m 401 736 q 396 768 383 750 l 488 899 q 522 903 500 918 q 528 871 540 889 l 436 740 q 422 731 431 733 q 401 736 413 729 m 265 736 q 260 768 247 750 l 351 899 q 386 903 364 918 q 392 871 404 889 l 300 740 q 285 731 294 733 q 265 736 276 729 m 676 885 q 653 861 676 861 l 192 861 q 168 885 168 861 q 190 910 168 910 l 651 910 q 676 885 676 910 m 676 751 q 653 728 676 728 l 192 728 q 168 751 168 728 q 190 776 168 776 l 651 776 q 676 751 676 776 z "},"8":{"ha":833,"x_min":96,"x_max":738,"o":"m 417 -14 q 253 14 325 -14 q 138 100 181 42 q 96 250 96 158 q 151 413 96 357 q 290 488 206 469 q 203 537 239 513 q 148 599 167 561 q 129 701 129 638 q 167 822 129 771 q 269 902 204 874 q 417 931 333 931 q 565 902 500 931 q 667 822 631 874 q 704 701 704 771 q 684 599 704 638 q 628 536 664 561 q 543 488 592 511 q 683 413 628 469 q 738 250 738 357 q 656 56 738 126 q 417 -14 574 -14 m 417 56 q 538 78 482 56 q 627 145 593 101 q 661 250 661 189 q 628 355 661 313 q 536 423 594 397 q 403 460 478 449 q 290 423 343 449 q 205 355 238 397 q 172 250 172 313 q 238 110 172 165 q 417 56 304 56 m 443 515 q 527 551 485 531 q 599 607 569 571 q 628 703 628 643 q 571 821 628 781 q 417 861 514 861 q 313 843 361 861 q 235 790 265 825 q 206 703 206 754 q 241 608 206 643 q 331 551 276 572 q 443 515 386 531 m 468 476 q 524 430 503 469 q 556 339 546 390 q 567 244 567 288 q 554 141 567 194 q 510 51 542 88 q 417 14 478 14 q 326 49 358 14 q 281 136 294 83 q 268 244 268 189 q 275 339 268 288 q 300 430 282 390 q 353 476 318 469 l 468 476 m 417 56 q 476 88 453 56 q 510 164 499 119 q 521 244 521 208 q 515 310 521 274 q 497 380 510 346 q 460 436 483 414 q 403 458 438 458 q 358 436 375 458 q 331 380 340 414 q 317 310 321 346 q 314 244 314 274 q 317 187 314 219 q 329 124 319 154 q 360 75 339 94 q 417 56 381 56 m 492 496 l 404 496 q 328 549 361 496 q 296 697 296 601 q 324 836 296 781 q 417 892 353 892 q 510 864 478 892 q 554 792 542 836 q 567 697 567 747 q 549 592 567 633 q 514 527 532 550 q 492 496 496 504 m 417 861 q 368 834 385 861 q 347 769 351 807 q 342 697 342 732 q 369 565 342 608 q 438 522 397 522 q 495 565 469 522 q 521 697 521 608 q 510 772 521 735 q 476 835 499 810 q 417 861 453 861 m 153 282 q 128 306 128 282 q 133 322 128 314 q 151 331 138 331 l 282 331 q 307 307 307 331 q 301 290 307 297 q 283 282 296 282 l 153 282 m 153 168 q 128 192 128 168 q 133 208 128 200 q 151 217 138 217 l 282 217 q 307 193 307 217 q 301 176 307 183 q 283 168 296 168 l 153 168 m 553 282 q 528 306 528 282 q 533 322 528 314 q 551 331 538 331 l 682 331 q 707 307 707 331 q 701 290 707 297 q 683 282 696 282 l 553 282 m 553 168 q 528 192 528 168 q 533 208 528 200 q 551 217 538 217 l 682 217 q 707 193 707 217 q 701 176 707 183 q 683 168 696 168 l 553 168 m 179 735 q 154 758 154 735 q 159 775 154 767 q 178 783 164 783 l 308 783 q 333 760 333 783 q 328 742 333 750 q 310 735 322 735 l 179 735 m 179 621 q 154 644 154 621 q 159 661 154 653 q 178 669 164 669 l 308 669 q 333 646 333 669 q 328 628 333 636 q 310 621 322 621 l 179 621 m 540 735 q 515 758 515 735 q 520 775 515 767 q 539 783 525 783 l 669 783 q 694 760 694 783 q 689 742 694 750 q 671 735 683 735 l 540 735 m 544 621 q 519 644 519 621 q 524 661 519 653 q 543 669 529 669 l 674 669 q 699 646 699 669 q 693 628 699 636 q 675 621 688 621 l 544 621 z "},"9":{"ha":833,"x_min":81,"x_max":768,"o":"m 419 -15 q 232 35 310 -15 q 135 163 154 85 q 132 181 132 174 q 156 213 132 208 q 167 214 160 214 q 196 202 186 213 q 214 174 206 192 q 282 98 233 135 q 419 61 331 61 q 605 149 535 61 q 685 426 675 238 q 552 315 629 346 q 403 283 475 283 q 251 319 325 283 q 128 428 176 356 q 81 607 81 500 q 128 783 81 713 q 249 889 175 853 q 407 925 324 925 q 593 887 522 925 q 702 785 664 849 q 754 640 740 721 q 768 474 768 560 q 723 203 768 313 q 599 40 678 94 q 419 -15 521 -15 m 403 357 q 496 372 447 357 q 588 415 544 386 q 658 490 631 444 q 685 594 685 535 q 672 676 685 631 q 626 764 658 722 q 540 833 594 806 q 403 860 486 860 q 288 831 344 860 q 194 745 231 801 q 157 608 157 689 q 194 472 157 528 q 288 386 231 415 q 403 357 344 357 m 407 907 q 492 874 446 907 q 571 772 538 840 q 604 596 604 703 q 574 431 604 490 q 499 346 544 371 q 407 321 454 321 l 403 357 q 440 364 415 357 q 492 394 465 371 q 537 466 518 418 q 556 594 556 514 q 529 750 556 692 q 467 834 503 808 q 403 860 432 860 l 407 907 m 407 907 l 403 860 q 347 825 374 860 q 305 730 321 790 q 289 594 289 669 q 308 447 289 499 q 355 376 328 396 q 403 357 382 357 l 407 321 q 322 347 360 321 q 263 434 285 374 q 240 596 240 494 q 288 830 240 756 q 407 907 336 904 m 119 644 q 94 668 94 644 q 99 685 94 676 q 118 693 104 693 l 249 693 q 274 669 274 693 q 268 652 274 660 q 250 644 263 644 l 119 644 m 119 531 q 94 554 94 531 q 99 571 94 563 q 118 579 104 579 l 249 579 q 274 556 274 579 q 268 538 274 546 q 250 531 263 531 l 119 531 m 592 644 q 567 668 567 644 q 572 685 567 676 q 590 693 576 693 l 721 693 q 746 669 746 693 q 740 652 746 660 q 722 644 735 644 l 592 644 m 592 531 q 567 554 567 531 q 572 571 567 563 q 590 579 576 579 l 721 579 q 746 556 746 579 q 740 538 746 546 q 722 531 735 531 l 592 531 z "},"A":{"ha":853,"x_min":24,"x_max":832,"o":"m 744 0 q 726 5 735 0 q 711 24 717 10 l 450 783 q 440 810 444 803 q 428 817 436 817 q 406 783 417 817 l 142 24 q 110 0 133 0 q 77 10 88 0 q 67 33 67 19 q 69 47 67 39 l 383 911 q 390 919 386 919 q 410 919 394 919 q 443 919 426 919 q 463 919 460 919 q 469 913 467 919 l 782 53 q 785 38 785 44 q 771 10 785 19 q 744 0 757 0 m 115 346 q 91 356 101 346 q 81 381 81 367 q 91 406 81 396 q 115 415 101 415 l 739 415 q 764 406 754 415 q 774 381 774 396 q 764 356 774 367 q 739 346 754 346 l 115 346 m 24 104 q 33 128 24 119 q 60 138 43 138 l 128 138 q 154 129 144 138 q 164 104 164 119 q 154 78 164 88 q 128 69 144 69 l 60 69 q 33 79 43 69 q 24 104 24 88 m 238 104 q 228 79 238 88 q 201 69 218 69 l 133 69 q 107 78 118 69 q 97 104 97 88 q 107 129 97 119 q 133 138 118 138 l 201 138 q 228 128 218 138 q 238 104 238 119 m 618 104 q 628 128 618 119 q 654 138 638 138 l 722 138 q 749 129 739 138 q 758 104 758 119 q 749 78 758 88 q 722 69 739 69 l 654 69 q 628 79 638 69 q 618 104 618 88 m 832 104 q 822 79 832 88 q 796 69 813 69 l 728 69 q 701 78 713 69 q 692 104 692 88 q 701 129 692 119 q 728 138 713 138 l 796 138 q 822 128 813 138 q 832 104 832 119 m 321 938 q 331 963 321 954 q 357 972 340 972 l 425 972 q 451 964 442 972 q 461 938 461 954 q 451 913 461 922 q 425 904 442 904 l 357 904 q 331 914 340 904 q 321 938 321 922 m 535 938 q 525 914 535 922 q 499 904 515 904 l 431 904 q 404 913 415 904 q 394 938 394 922 q 404 964 394 954 q 431 972 415 972 l 499 972 q 525 963 515 972 q 535 938 535 954 m 594 801 q 571 778 594 778 l 288 778 q 264 801 264 778 q 286 826 264 826 l 569 826 q 594 801 594 826 m 590 726 q 568 750 568 726 l 568 797 q 574 815 568 810 q 592 821 579 821 q 611 815 606 821 q 615 799 615 811 l 615 751 q 590 726 615 726 m 590 876 q 615 851 615 876 l 615 804 q 611 788 615 792 q 592 782 606 782 q 574 788 579 782 q 568 806 568 793 l 568 853 q 590 876 568 876 m 290 750 q 268 726 290 726 q 243 751 243 726 l 243 799 q 247 815 243 811 q 267 821 253 821 q 285 815 279 821 q 290 797 290 810 l 290 750 m 243 853 q 268 878 243 878 q 290 854 290 878 l 290 807 q 285 789 290 794 q 267 783 279 783 q 247 789 253 783 q 243 806 243 793 l 243 853 m 425 221 q 419 253 407 235 l 511 383 q 546 388 524 403 q 551 356 564 374 l 460 225 q 445 216 454 218 q 425 221 436 214 m 289 221 q 283 253 271 235 l 375 383 q 410 388 388 403 q 415 356 428 374 l 324 225 q 309 216 318 218 q 289 221 300 214 m 700 369 q 676 346 700 346 l 215 346 q 192 369 192 346 q 214 394 192 394 l 675 394 q 700 369 700 394 m 700 236 q 676 213 700 213 l 215 213 q 192 236 192 213 q 214 261 192 261 l 675 261 q 700 236 700 261 z "},"Á":{"ha":853,"x_min":24,"x_max":832,"o":"m 744 0 q 726 5 735 0 q 711 24 717 10 l 450 783 q 440 810 444 803 q 428 817 436 817 q 406 783 417 817 l 142 24 q 110 0 133 0 q 77 10 88 0 q 67 33 67 19 q 69 47 67 39 l 383 911 q 390 919 386 919 q 410 919 394 919 q 443 919 426 919 q 463 919 460 919 q 469 913 467 919 l 782 53 q 785 38 785 44 q 771 10 785 19 q 744 0 757 0 m 115 346 q 91 356 101 346 q 81 381 81 367 q 91 406 81 396 q 115 415 101 415 l 739 415 q 764 406 754 415 q 774 381 774 396 q 764 356 774 367 q 739 346 754 346 l 115 346 m 24 104 q 33 128 24 119 q 60 138 43 138 l 128 138 q 154 129 144 138 q 164 104 164 119 q 154 78 164 88 q 128 69 144 69 l 60 69 q 33 79 43 69 q 24 104 24 88 m 238 104 q 228 79 238 88 q 201 69 218 69 l 133 69 q 107 78 118 69 q 97 104 97 88 q 107 129 97 119 q 133 138 118 138 l 201 138 q 228 128 218 138 q 238 104 238 119 m 618 104 q 628 128 618 119 q 654 138 638 138 l 722 138 q 749 129 739 138 q 758 104 758 119 q 749 78 758 88 q 722 69 739 69 l 654 69 q 628 79 638 69 q 618 104 618 88 m 832 104 q 822 79 832 88 q 796 69 813 69 l 728 69 q 701 78 713 69 q 692 104 692 88 q 701 129 692 119 q 728 138 713 138 l 796 138 q 822 128 813 138 q 832 104 832 119 m 321 938 q 331 963 321 954 q 357 972 340 972 l 425 972 q 451 964 442 972 q 461 938 461 954 q 451 913 461 922 q 425 904 442 904 l 357 904 q 331 914 340 904 q 321 938 321 922 m 535 938 q 525 914 535 922 q 499 904 515 904 l 431 904 q 404 913 415 904 q 394 938 394 922 q 404 964 394 954 q 431 972 415 972 l 499 972 q 525 963 515 972 q 535 938 535 954 m 594 801 q 571 778 594 778 l 288 778 q 264 801 264 778 q 286 826 264 826 l 569 826 q 594 801 594 826 m 590 726 q 568 750 568 726 l 568 797 q 574 815 568 810 q 592 821 579 821 q 611 815 606 821 q 615 799 615 811 l 615 751 q 590 726 615 726 m 590 876 q 615 851 615 876 l 615 804 q 611 788 615 792 q 592 782 606 782 q 574 788 579 782 q 568 806 568 793 l 568 853 q 590 876 568 876 m 290 750 q 268 726 290 726 q 243 751 243 726 l 243 799 q 247 815 243 811 q 267 821 253 821 q 285 815 279 821 q 290 797 290 810 l 290 750 m 243 853 q 268 878 243 878 q 290 854 290 878 l 290 807 q 285 789 290 794 q 267 783 279 783 q 247 789 253 783 q 243 806 243 793 l 243 853 m 425 221 q 419 253 407 235 l 511 383 q 546 388 524 403 q 551 356 564 374 l 460 225 q 445 216 454 218 q 425 221 436 214 m 289 221 q 283 253 271 235 l 375 383 q 410 388 388 403 q 415 356 428 374 l 324 225 q 309 216 318 218 q 289 221 300 214 m 700 369 q 676 346 700 346 l 215 346 q 192 369 192 346 q 214 394 192 394 l 675 394 q 700 369 700 394 m 700 236 q 676 213 700 213 l 215 213 q 192 236 192 213 q 214 261 192 261 l 675 261 q 700 236 700 261 m 399 1075 q 378 1067 390 1067 q 353 1078 364 1067 q 340 1103 340 1090 q 350 1124 340 1114 l 499 1272 q 524 1285 511 1285 q 549 1272 536 1285 q 560 1247 560 1261 q 547 1222 560 1235 l 399 1075 z "},"Ă":{"ha":853,"x_min":24,"x_max":832,"o":"m 744 0 q 726 5 735 0 q 711 24 717 10 l 450 783 q 440 810 444 803 q 428 817 436 817 q 406 783 417 817 l 142 24 q 110 0 133 0 q 77 10 88 0 q 67 33 67 19 q 69 47 67 39 l 383 911 q 390 919 386 919 q 410 919 394 919 q 443 919 426 919 q 463 919 460 919 q 469 913 467 919 l 782 53 q 785 38 785 44 q 771 10 785 19 q 744 0 757 0 m 115 346 q 91 356 101 346 q 81 381 81 367 q 91 406 81 396 q 115 415 101 415 l 739 415 q 764 406 754 415 q 774 381 774 396 q 764 356 774 367 q 739 346 754 346 l 115 346 m 24 104 q 33 128 24 119 q 60 138 43 138 l 128 138 q 154 129 144 138 q 164 104 164 119 q 154 78 164 88 q 128 69 144 69 l 60 69 q 33 79 43 69 q 24 104 24 88 m 238 104 q 228 79 238 88 q 201 69 218 69 l 133 69 q 107 78 118 69 q 97 104 97 88 q 107 129 97 119 q 133 138 118 138 l 201 138 q 228 128 218 138 q 238 104 238 119 m 618 104 q 628 128 618 119 q 654 138 638 138 l 722 138 q 749 129 739 138 q 758 104 758 119 q 749 78 758 88 q 722 69 739 69 l 654 69 q 628 79 638 69 q 618 104 618 88 m 832 104 q 822 79 832 88 q 796 69 813 69 l 728 69 q 701 78 713 69 q 692 104 692 88 q 701 129 692 119 q 728 138 713 138 l 796 138 q 822 128 813 138 q 832 104 832 119 m 321 938 q 331 963 321 954 q 357 972 340 972 l 425 972 q 451 964 442 972 q 461 938 461 954 q 451 913 461 922 q 425 904 442 904 l 357 904 q 331 914 340 904 q 321 938 321 922 m 535 938 q 525 914 535 922 q 499 904 515 904 l 431 904 q 404 913 415 904 q 394 938 394 922 q 404 964 394 954 q 431 972 415 972 l 499 972 q 525 963 515 972 q 535 938 535 954 m 594 801 q 571 778 594 778 l 288 778 q 264 801 264 778 q 286 826 264 826 l 569 826 q 594 801 594 826 m 590 726 q 568 750 568 726 l 568 797 q 574 815 568 810 q 592 821 579 821 q 611 815 606 821 q 615 799 615 811 l 615 751 q 590 726 615 726 m 590 876 q 615 851 615 876 l 615 804 q 611 788 615 792 q 592 782 606 782 q 574 788 579 782 q 568 806 568 793 l 568 853 q 590 876 568 876 m 290 750 q 268 726 290 726 q 243 751 243 726 l 243 799 q 247 815 243 811 q 267 821 253 821 q 285 815 279 821 q 290 797 290 810 l 290 750 m 243 853 q 268 878 243 878 q 290 854 290 878 l 290 807 q 285 789 290 794 q 267 783 279 783 q 247 789 253 783 q 243 806 243 793 l 243 853 m 425 221 q 419 253 407 235 l 511 383 q 546 388 524 403 q 551 356 564 374 l 460 225 q 445 216 454 218 q 425 221 436 214 m 289 221 q 283 253 271 235 l 375 383 q 410 388 388 403 q 415 356 428 374 l 324 225 q 309 216 318 218 q 289 221 300 214 m 700 369 q 676 346 700 346 l 215 346 q 192 369 192 346 q 214 394 192 394 l 675 394 q 700 369 700 394 m 700 236 q 676 213 700 213 l 215 213 q 192 236 192 213 q 214 261 192 261 l 675 261 q 700 236 700 261 m 428 1058 q 325 1085 365 1058 q 265 1147 285 1113 q 246 1204 246 1182 q 256 1234 246 1222 q 282 1246 267 1246 q 307 1235 297 1246 q 322 1206 317 1224 q 361 1147 333 1167 q 428 1128 389 1128 q 495 1147 467 1128 q 533 1206 524 1167 q 549 1235 539 1224 q 574 1246 560 1246 q 599 1234 589 1246 q 610 1204 610 1222 q 590 1147 610 1182 q 531 1085 571 1113 q 428 1058 492 1058 z "},"Ắ":{"ha":853,"x_min":24,"x_max":832,"o":"m 744 0 q 726 5 735 0 q 711 24 717 10 l 450 783 q 440 810 444 803 q 428 817 436 817 q 406 783 417 817 l 142 24 q 110 0 133 0 q 77 10 88 0 q 67 33 67 19 q 69 47 67 39 l 383 911 q 390 919 386 919 q 410 919 394 919 q 443 919 426 919 q 463 919 460 919 q 469 913 467 919 l 782 53 q 785 38 785 44 q 771 10 785 19 q 744 0 757 0 m 115 346 q 91 356 101 346 q 81 381 81 367 q 91 406 81 396 q 115 415 101 415 l 739 415 q 764 406 754 415 q 774 381 774 396 q 764 356 774 367 q 739 346 754 346 l 115 346 m 24 104 q 33 128 24 119 q 60 138 43 138 l 128 138 q 154 129 144 138 q 164 104 164 119 q 154 78 164 88 q 128 69 144 69 l 60 69 q 33 79 43 69 q 24 104 24 88 m 238 104 q 228 79 238 88 q 201 69 218 69 l 133 69 q 107 78 118 69 q 97 104 97 88 q 107 129 97 119 q 133 138 118 138 l 201 138 q 228 128 218 138 q 238 104 238 119 m 618 104 q 628 128 618 119 q 654 138 638 138 l 722 138 q 749 129 739 138 q 758 104 758 119 q 749 78 758 88 q 722 69 739 69 l 654 69 q 628 79 638 69 q 618 104 618 88 m 832 104 q 822 79 832 88 q 796 69 813 69 l 728 69 q 701 78 713 69 q 692 104 692 88 q 701 129 692 119 q 728 138 713 138 l 796 138 q 822 128 813 138 q 832 104 832 119 m 321 938 q 331 963 321 954 q 357 972 340 972 l 425 972 q 451 964 442 972 q 461 938 461 954 q 451 913 461 922 q 425 904 442 904 l 357 904 q 331 914 340 904 q 321 938 321 922 m 535 938 q 525 914 535 922 q 499 904 515 904 l 431 904 q 404 913 415 904 q 394 938 394 922 q 404 964 394 954 q 431 972 415 972 l 499 972 q 525 963 515 972 q 535 938 535 954 m 594 801 q 571 778 594 778 l 288 778 q 264 801 264 778 q 286 826 264 826 l 569 826 q 594 801 594 826 m 590 726 q 568 750 568 726 l 568 797 q 574 815 568 810 q 592 821 579 821 q 611 815 606 821 q 615 799 615 811 l 615 751 q 590 726 615 726 m 590 876 q 615 851 615 876 l 615 804 q 611 788 615 792 q 592 782 606 782 q 574 788 579 782 q 568 806 568 793 l 568 853 q 590 876 568 876 m 290 750 q 268 726 290 726 q 243 751 243 726 l 243 799 q 247 815 243 811 q 267 821 253 821 q 285 815 279 821 q 290 797 290 810 l 290 750 m 243 853 q 268 878 243 878 q 290 854 290 878 l 290 807 q 285 789 290 794 q 267 783 279 783 q 247 789 253 783 q 243 806 243 793 l 243 853 m 425 221 q 419 253 407 235 l 511 383 q 546 388 524 403 q 551 356 564 374 l 460 225 q 445 216 454 218 q 425 221 436 214 m 289 221 q 283 253 271 235 l 375 383 q 410 388 388 403 q 415 356 428 374 l 324 225 q 309 216 318 218 q 289 221 300 214 m 700 369 q 676 346 700 346 l 215 346 q 192 369 192 346 q 214 394 192 394 l 675 394 q 700 369 700 394 m 700 236 q 676 213 700 213 l 215 213 q 192 236 192 213 q 214 261 192 261 l 675 261 q 700 236 700 261 m 428 1058 q 325 1085 365 1058 q 265 1147 285 1113 q 246 1204 246 1182 q 256 1234 246 1222 q 282 1246 267 1246 q 307 1235 297 1246 q 322 1206 317 1224 q 361 1147 333 1167 q 428 1128 389 1128 q 495 1147 467 1128 q 533 1206 524 1167 q 549 1235 539 1224 q 574 1246 560 1246 q 599 1234 589 1246 q 610 1204 610 1222 q 590 1147 610 1182 q 531 1085 571 1113 q 428 1058 492 1058 m 399 1275 q 378 1267 390 1267 q 353 1278 364 1267 q 340 1303 340 1290 q 350 1324 340 1314 l 499 1472 q 524 1485 511 1485 q 549 1472 536 1485 q 560 1447 560 1461 q 547 1422 560 1435 l 399 1275 z "},"Ặ":{"ha":853,"x_min":24,"x_max":832,"o":"m 744 0 q 726 5 735 0 q 711 24 717 10 l 450 783 q 440 810 444 803 q 428 817 436 817 q 406 783 417 817 l 142 24 q 110 0 133 0 q 77 10 88 0 q 67 33 67 19 q 69 47 67 39 l 383 911 q 390 919 386 919 q 410 919 394 919 q 443 919 426 919 q 463 919 460 919 q 469 913 467 919 l 782 53 q 785 38 785 44 q 771 10 785 19 q 744 0 757 0 m 115 346 q 91 356 101 346 q 81 381 81 367 q 91 406 81 396 q 115 415 101 415 l 739 415 q 764 406 754 415 q 774 381 774 396 q 764 356 774 367 q 739 346 754 346 l 115 346 m 24 104 q 33 128 24 119 q 60 138 43 138 l 128 138 q 154 129 144 138 q 164 104 164 119 q 154 78 164 88 q 128 69 144 69 l 60 69 q 33 79 43 69 q 24 104 24 88 m 238 104 q 228 79 238 88 q 201 69 218 69 l 133 69 q 107 78 118 69 q 97 104 97 88 q 107 129 97 119 q 133 138 118 138 l 201 138 q 228 128 218 138 q 238 104 238 119 m 618 104 q 628 128 618 119 q 654 138 638 138 l 722 138 q 749 129 739 138 q 758 104 758 119 q 749 78 758 88 q 722 69 739 69 l 654 69 q 628 79 638 69 q 618 104 618 88 m 832 104 q 822 79 832 88 q 796 69 813 69 l 728 69 q 701 78 713 69 q 692 104 692 88 q 701 129 692 119 q 728 138 713 138 l 796 138 q 822 128 813 138 q 832 104 832 119 m 321 938 q 331 963 321 954 q 357 972 340 972 l 425 972 q 451 964 442 972 q 461 938 461 954 q 451 913 461 922 q 425 904 442 904 l 357 904 q 331 914 340 904 q 321 938 321 922 m 535 938 q 525 914 535 922 q 499 904 515 904 l 431 904 q 404 913 415 904 q 394 938 394 922 q 404 964 394 954 q 431 972 415 972 l 499 972 q 525 963 515 972 q 535 938 535 954 m 594 801 q 571 778 594 778 l 288 778 q 264 801 264 778 q 286 826 264 826 l 569 826 q 594 801 594 826 m 590 726 q 568 750 568 726 l 568 797 q 574 815 568 810 q 592 821 579 821 q 611 815 606 821 q 615 799 615 811 l 615 751 q 590 726 615 726 m 590 876 q 615 851 615 876 l 615 804 q 611 788 615 792 q 592 782 606 782 q 574 788 579 782 q 568 806 568 793 l 568 853 q 590 876 568 876 m 290 750 q 268 726 290 726 q 243 751 243 726 l 243 799 q 247 815 243 811 q 267 821 253 821 q 285 815 279 821 q 290 797 290 810 l 290 750 m 243 853 q 268 878 243 878 q 290 854 290 878 l 290 807 q 285 789 290 794 q 267 783 279 783 q 247 789 253 783 q 243 806 243 793 l 243 853 m 425 221 q 419 253 407 235 l 511 383 q 546 388 524 403 q 551 356 564 374 l 460 225 q 445 216 454 218 q 425 221 436 214 m 289 221 q 283 253 271 235 l 375 383 q 410 388 388 403 q 415 356 428 374 l 324 225 q 309 216 318 218 q 289 221 300 214 m 700 369 q 676 346 700 346 l 215 346 q 192 369 192 346 q 214 394 192 394 l 675 394 q 700 369 700 394 m 700 236 q 676 213 700 213 l 215 213 q 192 236 192 213 q 214 261 192 261 l 675 261 q 700 236 700 261 m 425 -211 q 388 -196 403 -211 q 374 -158 374 -181 q 388 -122 374 -137 q 425 -107 403 -107 q 463 -122 447 -107 q 478 -158 478 -137 q 463 -196 478 -181 q 425 -211 447 -211 m 428 1058 q 325 1085 365 1058 q 265 1147 285 1113 q 246 1204 246 1182 q 256 1234 246 1222 q 282 1246 267 1246 q 307 1235 297 1246 q 322 1206 317 1224 q 361 1147 333 1167 q 428 1128 389 1128 q 495 1147 467 1128 q 533 1206 524 1167 q 549 1235 539 1224 q 574 1246 560 1246 q 599 1234 589 1246 q 610 1204 610 1222 q 590 1147 610 1182 q 531 1085 571 1113 q 428 1058 492 1058 z "},"Ằ":{"ha":853,"x_min":24,"x_max":832,"o":"m 744 0 q 726 5 735 0 q 711 24 717 10 l 450 783 q 440 810 444 803 q 428 817 436 817 q 406 783 417 817 l 142 24 q 110 0 133 0 q 77 10 88 0 q 67 33 67 19 q 69 47 67 39 l 383 911 q 390 919 386 919 q 410 919 394 919 q 443 919 426 919 q 463 919 460 919 q 469 913 467 919 l 782 53 q 785 38 785 44 q 771 10 785 19 q 744 0 757 0 m 115 346 q 91 356 101 346 q 81 381 81 367 q 91 406 81 396 q 115 415 101 415 l 739 415 q 764 406 754 415 q 774 381 774 396 q 764 356 774 367 q 739 346 754 346 l 115 346 m 24 104 q 33 128 24 119 q 60 138 43 138 l 128 138 q 154 129 144 138 q 164 104 164 119 q 154 78 164 88 q 128 69 144 69 l 60 69 q 33 79 43 69 q 24 104 24 88 m 238 104 q 228 79 238 88 q 201 69 218 69 l 133 69 q 107 78 118 69 q 97 104 97 88 q 107 129 97 119 q 133 138 118 138 l 201 138 q 228 128 218 138 q 238 104 238 119 m 618 104 q 628 128 618 119 q 654 138 638 138 l 722 138 q 749 129 739 138 q 758 104 758 119 q 749 78 758 88 q 722 69 739 69 l 654 69 q 628 79 638 69 q 618 104 618 88 m 832 104 q 822 79 832 88 q 796 69 813 69 l 728 69 q 701 78 713 69 q 692 104 692 88 q 701 129 692 119 q 728 138 713 138 l 796 138 q 822 128 813 138 q 832 104 832 119 m 321 938 q 331 963 321 954 q 357 972 340 972 l 425 972 q 451 964 442 972 q 461 938 461 954 q 451 913 461 922 q 425 904 442 904 l 357 904 q 331 914 340 904 q 321 938 321 922 m 535 938 q 525 914 535 922 q 499 904 515 904 l 431 904 q 404 913 415 904 q 394 938 394 922 q 404 964 394 954 q 431 972 415 972 l 499 972 q 525 963 515 972 q 535 938 535 954 m 594 801 q 571 778 594 778 l 288 778 q 264 801 264 778 q 286 826 264 826 l 569 826 q 594 801 594 826 m 590 726 q 568 750 568 726 l 568 797 q 574 815 568 810 q 592 821 579 821 q 611 815 606 821 q 615 799 615 811 l 615 751 q 590 726 615 726 m 590 876 q 615 851 615 876 l 615 804 q 611 788 615 792 q 592 782 606 782 q 574 788 579 782 q 568 806 568 793 l 568 853 q 590 876 568 876 m 290 750 q 268 726 290 726 q 243 751 243 726 l 243 799 q 247 815 243 811 q 267 821 253 821 q 285 815 279 821 q 290 797 290 810 l 290 750 m 243 853 q 268 878 243 878 q 290 854 290 878 l 290 807 q 285 789 290 794 q 267 783 279 783 q 247 789 253 783 q 243 806 243 793 l 243 853 m 425 221 q 419 253 407 235 l 511 383 q 546 388 524 403 q 551 356 564 374 l 460 225 q 445 216 454 218 q 425 221 436 214 m 289 221 q 283 253 271 235 l 375 383 q 410 388 388 403 q 415 356 428 374 l 324 225 q 309 216 318 218 q 289 221 300 214 m 700 369 q 676 346 700 346 l 215 346 q 192 369 192 346 q 214 394 192 394 l 675 394 q 700 369 700 394 m 700 236 q 676 213 700 213 l 215 213 q 192 236 192 213 q 214 261 192 261 l 675 261 q 700 236 700 261 m 428 1058 q 325 1085 365 1058 q 265 1147 285 1113 q 246 1204 246 1182 q 256 1234 246 1222 q 282 1246 267 1246 q 307 1235 297 1246 q 322 1206 317 1224 q 361 1147 333 1167 q 428 1128 389 1128 q 495 1147 467 1128 q 533 1206 524 1167 q 549 1235 539 1224 q 574 1246 560 1246 q 599 1234 589 1246 q 610 1204 610 1222 q 590 1147 610 1182 q 531 1085 571 1113 q 428 1058 492 1058 m 454 1275 l 306 1422 q 293 1447 293 1435 q 304 1472 293 1461 q 329 1485 317 1485 q 354 1472 342 1485 l 503 1324 q 513 1303 513 1314 q 500 1278 513 1290 q 475 1267 489 1267 q 454 1275 463 1267 z "},"Ẳ":{"ha":853,"x_min":24,"x_max":832,"o":"m 744 0 q 726 5 735 0 q 711 24 717 10 l 450 783 q 440 810 444 803 q 428 817 436 817 q 406 783 417 817 l 142 24 q 110 0 133 0 q 77 10 88 0 q 67 33 67 19 q 69 47 67 39 l 383 911 q 390 919 386 919 q 410 919 394 919 q 443 919 426 919 q 463 919 460 919 q 469 913 467 919 l 782 53 q 785 38 785 44 q 771 10 785 19 q 744 0 757 0 m 115 346 q 91 356 101 346 q 81 381 81 367 q 91 406 81 396 q 115 415 101 415 l 739 415 q 764 406 754 415 q 774 381 774 396 q 764 356 774 367 q 739 346 754 346 l 115 346 m 24 104 q 33 128 24 119 q 60 138 43 138 l 128 138 q 154 129 144 138 q 164 104 164 119 q 154 78 164 88 q 128 69 144 69 l 60 69 q 33 79 43 69 q 24 104 24 88 m 238 104 q 228 79 238 88 q 201 69 218 69 l 133 69 q 107 78 118 69 q 97 104 97 88 q 107 129 97 119 q 133 138 118 138 l 201 138 q 228 128 218 138 q 238 104 238 119 m 618 104 q 628 128 618 119 q 654 138 638 138 l 722 138 q 749 129 739 138 q 758 104 758 119 q 749 78 758 88 q 722 69 739 69 l 654 69 q 628 79 638 69 q 618 104 618 88 m 832 104 q 822 79 832 88 q 796 69 813 69 l 728 69 q 701 78 713 69 q 692 104 692 88 q 701 129 692 119 q 728 138 713 138 l 796 138 q 822 128 813 138 q 832 104 832 119 m 321 938 q 331 963 321 954 q 357 972 340 972 l 425 972 q 451 964 442 972 q 461 938 461 954 q 451 913 461 922 q 425 904 442 904 l 357 904 q 331 914 340 904 q 321 938 321 922 m 535 938 q 525 914 535 922 q 499 904 515 904 l 431 904 q 404 913 415 904 q 394 938 394 922 q 404 964 394 954 q 431 972 415 972 l 499 972 q 525 963 515 972 q 535 938 535 954 m 594 801 q 571 778 594 778 l 288 778 q 264 801 264 778 q 286 826 264 826 l 569 826 q 594 801 594 826 m 590 726 q 568 750 568 726 l 568 797 q 574 815 568 810 q 592 821 579 821 q 611 815 606 821 q 615 799 615 811 l 615 751 q 590 726 615 726 m 590 876 q 615 851 615 876 l 615 804 q 611 788 615 792 q 592 782 606 782 q 574 788 579 782 q 568 806 568 793 l 568 853 q 590 876 568 876 m 290 750 q 268 726 290 726 q 243 751 243 726 l 243 799 q 247 815 243 811 q 267 821 253 821 q 285 815 279 821 q 290 797 290 810 l 290 750 m 243 853 q 268 878 243 878 q 290 854 290 878 l 290 807 q 285 789 290 794 q 267 783 279 783 q 247 789 253 783 q 243 806 243 793 l 243 853 m 425 221 q 419 253 407 235 l 511 383 q 546 388 524 403 q 551 356 564 374 l 460 225 q 445 216 454 218 q 425 221 436 214 m 289 221 q 283 253 271 235 l 375 383 q 410 388 388 403 q 415 356 428 374 l 324 225 q 309 216 318 218 q 289 221 300 214 m 700 369 q 676 346 700 346 l 215 346 q 192 369 192 346 q 214 394 192 394 l 675 394 q 700 369 700 394 m 700 236 q 676 213 700 213 l 215 213 q 192 236 192 213 q 214 261 192 261 l 675 261 q 700 236 700 261 m 428 1058 q 325 1085 365 1058 q 265 1147 285 1113 q 246 1204 246 1182 q 256 1234 246 1222 q 282 1246 267 1246 q 307 1235 297 1246 q 322 1206 317 1224 q 361 1147 333 1167 q 428 1128 389 1128 q 495 1147 467 1128 q 533 1206 524 1167 q 549 1235 539 1224 q 574 1246 560 1246 q 599 1234 589 1246 q 610 1204 610 1222 q 590 1147 610 1182 q 531 1085 571 1113 q 428 1058 492 1058 m 431 1246 q 404 1257 415 1246 q 393 1283 393 1268 q 394 1305 393 1286 q 405 1346 396 1324 q 435 1383 414 1368 q 451 1414 450 1394 q 439 1446 451 1433 q 406 1460 425 1463 q 370 1448 386 1458 q 347 1426 354 1438 q 334 1413 342 1419 q 314 1407 326 1407 q 283 1423 294 1407 q 278 1457 272 1439 q 343 1519 296 1504 q 436 1524 390 1535 q 501 1488 474 1514 q 531 1419 529 1461 q 520 1370 532 1392 q 494 1339 508 1349 q 475 1310 481 1328 q 469 1283 469 1292 q 458 1257 469 1268 q 431 1246 446 1246 z "},"Ẵ":{"ha":853,"x_min":24,"x_max":832,"o":"m 744 0 q 726 5 735 0 q 711 24 717 10 l 450 783 q 440 810 444 803 q 428 817 436 817 q 406 783 417 817 l 142 24 q 110 0 133 0 q 77 10 88 0 q 67 33 67 19 q 69 47 67 39 l 383 911 q 390 919 386 919 q 410 919 394 919 q 443 919 426 919 q 463 919 460 919 q 469 913 467 919 l 782 53 q 785 38 785 44 q 771 10 785 19 q 744 0 757 0 m 115 346 q 91 356 101 346 q 81 381 81 367 q 91 406 81 396 q 115 415 101 415 l 739 415 q 764 406 754 415 q 774 381 774 396 q 764 356 774 367 q 739 346 754 346 l 115 346 m 24 104 q 33 128 24 119 q 60 138 43 138 l 128 138 q 154 129 144 138 q 164 104 164 119 q 154 78 164 88 q 128 69 144 69 l 60 69 q 33 79 43 69 q 24 104 24 88 m 238 104 q 228 79 238 88 q 201 69 218 69 l 133 69 q 107 78 118 69 q 97 104 97 88 q 107 129 97 119 q 133 138 118 138 l 201 138 q 228 128 218 138 q 238 104 238 119 m 618 104 q 628 128 618 119 q 654 138 638 138 l 722 138 q 749 129 739 138 q 758 104 758 119 q 749 78 758 88 q 722 69 739 69 l 654 69 q 628 79 638 69 q 618 104 618 88 m 832 104 q 822 79 832 88 q 796 69 813 69 l 728 69 q 701 78 713 69 q 692 104 692 88 q 701 129 692 119 q 728 138 713 138 l 796 138 q 822 128 813 138 q 832 104 832 119 m 321 938 q 331 963 321 954 q 357 972 340 972 l 425 972 q 451 964 442 972 q 461 938 461 954 q 451 913 461 922 q 425 904 442 904 l 357 904 q 331 914 340 904 q 321 938 321 922 m 535 938 q 525 914 535 922 q 499 904 515 904 l 431 904 q 404 913 415 904 q 394 938 394 922 q 404 964 394 954 q 431 972 415 972 l 499 972 q 525 963 515 972 q 535 938 535 954 m 594 801 q 571 778 594 778 l 288 778 q 264 801 264 778 q 286 826 264 826 l 569 826 q 594 801 594 826 m 590 726 q 568 750 568 726 l 568 797 q 574 815 568 810 q 592 821 579 821 q 611 815 606 821 q 615 799 615 811 l 615 751 q 590 726 615 726 m 590 876 q 615 851 615 876 l 615 804 q 611 788 615 792 q 592 782 606 782 q 574 788 579 782 q 568 806 568 793 l 568 853 q 590 876 568 876 m 290 750 q 268 726 290 726 q 243 751 243 726 l 243 799 q 247 815 243 811 q 267 821 253 821 q 285 815 279 821 q 290 797 290 810 l 290 750 m 243 853 q 268 878 243 878 q 290 854 290 878 l 290 807 q 285 789 290 794 q 267 783 279 783 q 247 789 253 783 q 243 806 243 793 l 243 853 m 425 221 q 419 253 407 235 l 511 383 q 546 388 524 403 q 551 356 564 374 l 460 225 q 445 216 454 218 q 425 221 436 214 m 289 221 q 283 253 271 235 l 375 383 q 410 388 388 403 q 415 356 428 374 l 324 225 q 309 216 318 218 q 289 221 300 214 m 700 369 q 676 346 700 346 l 215 346 q 192 369 192 346 q 214 394 192 394 l 675 394 q 700 369 700 394 m 700 236 q 676 213 700 213 l 215 213 q 192 236 192 213 q 214 261 192 261 l 675 261 q 700 236 700 261 m 428 1058 q 325 1085 365 1058 q 265 1147 285 1113 q 246 1204 246 1182 q 256 1234 246 1222 q 282 1246 267 1246 q 307 1235 297 1246 q 322 1206 317 1224 q 361 1147 333 1167 q 428 1128 389 1128 q 495 1147 467 1128 q 533 1206 524 1167 q 549 1235 539 1224 q 574 1246 560 1246 q 599 1234 589 1246 q 610 1204 610 1222 q 590 1147 610 1182 q 531 1085 571 1113 q 428 1058 492 1058 m 267 1299 q 239 1340 239 1299 q 258 1401 239 1372 q 333 1429 276 1429 q 397 1415 365 1429 q 458 1385 429 1400 q 510 1369 488 1369 q 536 1373 522 1369 q 554 1390 550 1376 q 567 1419 560 1408 q 588 1429 574 1429 q 613 1388 613 1429 q 593 1326 613 1353 q 521 1299 574 1299 q 450 1314 489 1299 q 378 1345 411 1329 q 331 1361 344 1361 q 310 1356 321 1361 q 296 1335 300 1350 q 285 1310 292 1321 q 267 1299 278 1299 z "},"Ǎ":{"ha":853,"x_min":24,"x_max":832,"o":"m 744 0 q 726 5 735 0 q 711 24 717 10 l 450 783 q 440 810 444 803 q 428 817 436 817 q 406 783 417 817 l 142 24 q 110 0 133 0 q 77 10 88 0 q 67 33 67 19 q 69 47 67 39 l 383 911 q 390 919 386 919 q 410 919 394 919 q 443 919 426 919 q 463 919 460 919 q 469 913 467 919 l 782 53 q 785 38 785 44 q 771 10 785 19 q 744 0 757 0 m 115 346 q 91 356 101 346 q 81 381 81 367 q 91 406 81 396 q 115 415 101 415 l 739 415 q 764 406 754 415 q 774 381 774 396 q 764 356 774 367 q 739 346 754 346 l 115 346 m 24 104 q 33 128 24 119 q 60 138 43 138 l 128 138 q 154 129 144 138 q 164 104 164 119 q 154 78 164 88 q 128 69 144 69 l 60 69 q 33 79 43 69 q 24 104 24 88 m 238 104 q 228 79 238 88 q 201 69 218 69 l 133 69 q 107 78 118 69 q 97 104 97 88 q 107 129 97 119 q 133 138 118 138 l 201 138 q 228 128 218 138 q 238 104 238 119 m 618 104 q 628 128 618 119 q 654 138 638 138 l 722 138 q 749 129 739 138 q 758 104 758 119 q 749 78 758 88 q 722 69 739 69 l 654 69 q 628 79 638 69 q 618 104 618 88 m 832 104 q 822 79 832 88 q 796 69 813 69 l 728 69 q 701 78 713 69 q 692 104 692 88 q 701 129 692 119 q 728 138 713 138 l 796 138 q 822 128 813 138 q 832 104 832 119 m 321 938 q 331 963 321 954 q 357 972 340 972 l 425 972 q 451 964 442 972 q 461 938 461 954 q 451 913 461 922 q 425 904 442 904 l 357 904 q 331 914 340 904 q 321 938 321 922 m 535 938 q 525 914 535 922 q 499 904 515 904 l 431 904 q 404 913 415 904 q 394 938 394 922 q 404 964 394 954 q 431 972 415 972 l 499 972 q 525 963 515 972 q 535 938 535 954 m 594 801 q 571 778 594 778 l 288 778 q 264 801 264 778 q 286 826 264 826 l 569 826 q 594 801 594 826 m 590 726 q 568 750 568 726 l 568 797 q 574 815 568 810 q 592 821 579 821 q 611 815 606 821 q 615 799 615 811 l 615 751 q 590 726 615 726 m 590 876 q 615 851 615 876 l 615 804 q 611 788 615 792 q 592 782 606 782 q 574 788 579 782 q 568 806 568 793 l 568 853 q 590 876 568 876 m 290 750 q 268 726 290 726 q 243 751 243 726 l 243 799 q 247 815 243 811 q 267 821 253 821 q 285 815 279 821 q 290 797 290 810 l 290 750 m 243 853 q 268 878 243 878 q 290 854 290 878 l 290 807 q 285 789 290 794 q 267 783 279 783 q 247 789 253 783 q 243 806 243 793 l 243 853 m 425 221 q 419 253 407 235 l 511 383 q 546 388 524 403 q 551 356 564 374 l 460 225 q 445 216 454 218 q 425 221 436 214 m 289 221 q 283 253 271 235 l 375 383 q 410 388 388 403 q 415 356 428 374 l 324 225 q 309 216 318 218 q 289 221 300 214 m 700 369 q 676 346 700 346 l 215 346 q 192 369 192 346 q 214 394 192 394 l 675 394 q 700 369 700 394 m 700 236 q 676 213 700 213 l 215 213 q 192 236 192 213 q 214 261 192 261 l 675 261 q 700 236 700 261 m 301 1276 l 426 1153 l 551 1276 q 572 1285 560 1285 q 597 1274 586 1285 q 610 1249 610 1261 q 600 1228 610 1238 l 451 1079 q 426 1067 439 1067 q 401 1079 414 1067 l 253 1228 q 243 1249 243 1238 q 256 1274 243 1261 q 281 1285 267 1285 q 301 1276 293 1285 z "},"Â":{"ha":853,"x_min":24,"x_max":832,"o":"m 744 0 q 726 5 735 0 q 711 24 717 10 l 450 783 q 440 810 444 803 q 428 817 436 817 q 406 783 417 817 l 142 24 q 110 0 133 0 q 77 10 88 0 q 67 33 67 19 q 69 47 67 39 l 383 911 q 390 919 386 919 q 410 919 394 919 q 443 919 426 919 q 463 919 460 919 q 469 913 467 919 l 782 53 q 785 38 785 44 q 771 10 785 19 q 744 0 757 0 m 115 346 q 91 356 101 346 q 81 381 81 367 q 91 406 81 396 q 115 415 101 415 l 739 415 q 764 406 754 415 q 774 381 774 396 q 764 356 774 367 q 739 346 754 346 l 115 346 m 24 104 q 33 128 24 119 q 60 138 43 138 l 128 138 q 154 129 144 138 q 164 104 164 119 q 154 78 164 88 q 128 69 144 69 l 60 69 q 33 79 43 69 q 24 104 24 88 m 238 104 q 228 79 238 88 q 201 69 218 69 l 133 69 q 107 78 118 69 q 97 104 97 88 q 107 129 97 119 q 133 138 118 138 l 201 138 q 228 128 218 138 q 238 104 238 119 m 618 104 q 628 128 618 119 q 654 138 638 138 l 722 138 q 749 129 739 138 q 758 104 758 119 q 749 78 758 88 q 722 69 739 69 l 654 69 q 628 79 638 69 q 618 104 618 88 m 832 104 q 822 79 832 88 q 796 69 813 69 l 728 69 q 701 78 713 69 q 692 104 692 88 q 701 129 692 119 q 728 138 713 138 l 796 138 q 822 128 813 138 q 832 104 832 119 m 321 938 q 331 963 321 954 q 357 972 340 972 l 425 972 q 451 964 442 972 q 461 938 461 954 q 451 913 461 922 q 425 904 442 904 l 357 904 q 331 914 340 904 q 321 938 321 922 m 535 938 q 525 914 535 922 q 499 904 515 904 l 431 904 q 404 913 415 904 q 394 938 394 922 q 404 964 394 954 q 431 972 415 972 l 499 972 q 525 963 515 972 q 535 938 535 954 m 594 801 q 571 778 594 778 l 288 778 q 264 801 264 778 q 286 826 264 826 l 569 826 q 594 801 594 826 m 590 726 q 568 750 568 726 l 568 797 q 574 815 568 810 q 592 821 579 821 q 611 815 606 821 q 615 799 615 811 l 615 751 q 590 726 615 726 m 590 876 q 615 851 615 876 l 615 804 q 611 788 615 792 q 592 782 606 782 q 574 788 579 782 q 568 806 568 793 l 568 853 q 590 876 568 876 m 290 750 q 268 726 290 726 q 243 751 243 726 l 243 799 q 247 815 243 811 q 267 821 253 821 q 285 815 279 821 q 290 797 290 810 l 290 750 m 243 853 q 268 878 243 878 q 290 854 290 878 l 290 807 q 285 789 290 794 q 267 783 279 783 q 247 789 253 783 q 243 806 243 793 l 243 853 m 425 221 q 419 253 407 235 l 511 383 q 546 388 524 403 q 551 356 564 374 l 460 225 q 445 216 454 218 q 425 221 436 214 m 289 221 q 283 253 271 235 l 375 383 q 410 388 388 403 q 415 356 428 374 l 324 225 q 309 216 318 218 q 289 221 300 214 m 700 369 q 676 346 700 346 l 215 346 q 192 369 192 346 q 214 394 192 394 l 675 394 q 700 369 700 394 m 700 236 q 676 213 700 213 l 215 213 q 192 236 192 213 q 214 261 192 261 l 675 261 q 700 236 700 261 m 301 1075 q 281 1067 293 1067 q 256 1078 267 1067 q 243 1103 243 1090 q 253 1124 243 1114 l 401 1272 q 426 1285 414 1285 q 451 1272 439 1285 l 600 1124 q 610 1103 610 1114 q 597 1078 610 1090 q 572 1067 586 1067 q 551 1075 560 1067 l 426 1199 l 301 1075 z "},"Ấ":{"ha":853,"x_min":24,"x_max":832,"o":"m 744 0 q 726 5 735 0 q 711 24 717 10 l 450 783 q 440 810 444 803 q 428 817 436 817 q 406 783 417 817 l 142 24 q 110 0 133 0 q 77 10 88 0 q 67 33 67 19 q 69 47 67 39 l 383 911 q 390 919 386 919 q 410 919 394 919 q 443 919 426 919 q 463 919 460 919 q 469 913 467 919 l 782 53 q 785 38 785 44 q 771 10 785 19 q 744 0 757 0 m 115 346 q 91 356 101 346 q 81 381 81 367 q 91 406 81 396 q 115 415 101 415 l 739 415 q 764 406 754 415 q 774 381 774 396 q 764 356 774 367 q 739 346 754 346 l 115 346 m 24 104 q 33 128 24 119 q 60 138 43 138 l 128 138 q 154 129 144 138 q 164 104 164 119 q 154 78 164 88 q 128 69 144 69 l 60 69 q 33 79 43 69 q 24 104 24 88 m 238 104 q 228 79 238 88 q 201 69 218 69 l 133 69 q 107 78 118 69 q 97 104 97 88 q 107 129 97 119 q 133 138 118 138 l 201 138 q 228 128 218 138 q 238 104 238 119 m 618 104 q 628 128 618 119 q 654 138 638 138 l 722 138 q 749 129 739 138 q 758 104 758 119 q 749 78 758 88 q 722 69 739 69 l 654 69 q 628 79 638 69 q 618 104 618 88 m 832 104 q 822 79 832 88 q 796 69 813 69 l 728 69 q 701 78 713 69 q 692 104 692 88 q 701 129 692 119 q 728 138 713 138 l 796 138 q 822 128 813 138 q 832 104 832 119 m 321 938 q 331 963 321 954 q 357 972 340 972 l 425 972 q 451 964 442 972 q 461 938 461 954 q 451 913 461 922 q 425 904 442 904 l 357 904 q 331 914 340 904 q 321 938 321 922 m 535 938 q 525 914 535 922 q 499 904 515 904 l 431 904 q 404 913 415 904 q 394 938 394 922 q 404 964 394 954 q 431 972 415 972 l 499 972 q 525 963 515 972 q 535 938 535 954 m 594 801 q 571 778 594 778 l 288 778 q 264 801 264 778 q 286 826 264 826 l 569 826 q 594 801 594 826 m 590 726 q 568 750 568 726 l 568 797 q 574 815 568 810 q 592 821 579 821 q 611 815 606 821 q 615 799 615 811 l 615 751 q 590 726 615 726 m 590 876 q 615 851 615 876 l 615 804 q 611 788 615 792 q 592 782 606 782 q 574 788 579 782 q 568 806 568 793 l 568 853 q 590 876 568 876 m 290 750 q 268 726 290 726 q 243 751 243 726 l 243 799 q 247 815 243 811 q 267 821 253 821 q 285 815 279 821 q 290 797 290 810 l 290 750 m 243 853 q 268 878 243 878 q 290 854 290 878 l 290 807 q 285 789 290 794 q 267 783 279 783 q 247 789 253 783 q 243 806 243 793 l 243 853 m 425 221 q 419 253 407 235 l 511 383 q 546 388 524 403 q 551 356 564 374 l 460 225 q 445 216 454 218 q 425 221 436 214 m 289 221 q 283 253 271 235 l 375 383 q 410 388 388 403 q 415 356 428 374 l 324 225 q 309 216 318 218 q 289 221 300 214 m 700 369 q 676 346 700 346 l 215 346 q 192 369 192 346 q 214 394 192 394 l 675 394 q 700 369 700 394 m 700 236 q 676 213 700 213 l 215 213 q 192 236 192 213 q 214 261 192 261 l 675 261 q 700 236 700 261 m 301 1075 q 281 1067 293 1067 q 256 1078 267 1067 q 243 1103 243 1090 q 253 1124 243 1114 l 401 1272 q 426 1285 414 1285 q 451 1272 439 1285 l 600 1124 q 610 1103 610 1114 q 597 1078 610 1090 q 572 1067 586 1067 q 551 1075 560 1067 l 426 1199 l 301 1075 m 399 1388 q 378 1379 390 1379 q 353 1390 364 1379 q 340 1415 340 1403 q 350 1436 340 1426 l 499 1585 q 524 1597 511 1597 q 549 1585 536 1597 q 560 1560 560 1574 q 547 1535 560 1547 l 399 1388 z "},"Ậ":{"ha":853,"x_min":24,"x_max":832,"o":"m 744 0 q 726 5 735 0 q 711 24 717 10 l 450 783 q 440 810 444 803 q 428 817 436 817 q 406 783 417 817 l 142 24 q 110 0 133 0 q 77 10 88 0 q 67 33 67 19 q 69 47 67 39 l 383 911 q 390 919 386 919 q 410 919 394 919 q 443 919 426 919 q 463 919 460 919 q 469 913 467 919 l 782 53 q 785 38 785 44 q 771 10 785 19 q 744 0 757 0 m 115 346 q 91 356 101 346 q 81 381 81 367 q 91 406 81 396 q 115 415 101 415 l 739 415 q 764 406 754 415 q 774 381 774 396 q 764 356 774 367 q 739 346 754 346 l 115 346 m 24 104 q 33 128 24 119 q 60 138 43 138 l 128 138 q 154 129 144 138 q 164 104 164 119 q 154 78 164 88 q 128 69 144 69 l 60 69 q 33 79 43 69 q 24 104 24 88 m 238 104 q 228 79 238 88 q 201 69 218 69 l 133 69 q 107 78 118 69 q 97 104 97 88 q 107 129 97 119 q 133 138 118 138 l 201 138 q 228 128 218 138 q 238 104 238 119 m 618 104 q 628 128 618 119 q 654 138 638 138 l 722 138 q 749 129 739 138 q 758 104 758 119 q 749 78 758 88 q 722 69 739 69 l 654 69 q 628 79 638 69 q 618 104 618 88 m 832 104 q 822 79 832 88 q 796 69 813 69 l 728 69 q 701 78 713 69 q 692 104 692 88 q 701 129 692 119 q 728 138 713 138 l 796 138 q 822 128 813 138 q 832 104 832 119 m 321 938 q 331 963 321 954 q 357 972 340 972 l 425 972 q 451 964 442 972 q 461 938 461 954 q 451 913 461 922 q 425 904 442 904 l 357 904 q 331 914 340 904 q 321 938 321 922 m 535 938 q 525 914 535 922 q 499 904 515 904 l 431 904 q 404 913 415 904 q 394 938 394 922 q 404 964 394 954 q 431 972 415 972 l 499 972 q 525 963 515 972 q 535 938 535 954 m 594 801 q 571 778 594 778 l 288 778 q 264 801 264 778 q 286 826 264 826 l 569 826 q 594 801 594 826 m 590 726 q 568 750 568 726 l 568 797 q 574 815 568 810 q 592 821 579 821 q 611 815 606 821 q 615 799 615 811 l 615 751 q 590 726 615 726 m 590 876 q 615 851 615 876 l 615 804 q 611 788 615 792 q 592 782 606 782 q 574 788 579 782 q 568 806 568 793 l 568 853 q 590 876 568 876 m 290 750 q 268 726 290 726 q 243 751 243 726 l 243 799 q 247 815 243 811 q 267 821 253 821 q 285 815 279 821 q 290 797 290 810 l 290 750 m 243 853 q 268 878 243 878 q 290 854 290 878 l 290 807 q 285 789 290 794 q 267 783 279 783 q 247 789 253 783 q 243 806 243 793 l 243 853 m 425 221 q 419 253 407 235 l 511 383 q 546 388 524 403 q 551 356 564 374 l 460 225 q 445 216 454 218 q 425 221 436 214 m 289 221 q 283 253 271 235 l 375 383 q 410 388 388 403 q 415 356 428 374 l 324 225 q 309 216 318 218 q 289 221 300 214 m 700 369 q 676 346 700 346 l 215 346 q 192 369 192 346 q 214 394 192 394 l 675 394 q 700 369 700 394 m 700 236 q 676 213 700 213 l 215 213 q 192 236 192 213 q 214 261 192 261 l 675 261 q 700 236 700 261 m 425 -211 q 388 -196 403 -211 q 374 -158 374 -181 q 388 -122 374 -137 q 425 -107 403 -107 q 463 -122 447 -107 q 478 -158 478 -137 q 463 -196 478 -181 q 425 -211 447 -211 m 301 1075 q 281 1067 293 1067 q 256 1078 267 1067 q 243 1103 243 1090 q 253 1124 243 1114 l 401 1272 q 426 1285 414 1285 q 451 1272 439 1285 l 600 1124 q 610 1103 610 1114 q 597 1078 610 1090 q 572 1067 586 1067 q 551 1075 560 1067 l 426 1199 l 301 1075 z "},"Ầ":{"ha":853,"x_min":24,"x_max":832,"o":"m 744 0 q 726 5 735 0 q 711 24 717 10 l 450 783 q 440 810 444 803 q 428 817 436 817 q 406 783 417 817 l 142 24 q 110 0 133 0 q 77 10 88 0 q 67 33 67 19 q 69 47 67 39 l 383 911 q 390 919 386 919 q 410 919 394 919 q 443 919 426 919 q 463 919 460 919 q 469 913 467 919 l 782 53 q 785 38 785 44 q 771 10 785 19 q 744 0 757 0 m 115 346 q 91 356 101 346 q 81 381 81 367 q 91 406 81 396 q 115 415 101 415 l 739 415 q 764 406 754 415 q 774 381 774 396 q 764 356 774 367 q 739 346 754 346 l 115 346 m 24 104 q 33 128 24 119 q 60 138 43 138 l 128 138 q 154 129 144 138 q 164 104 164 119 q 154 78 164 88 q 128 69 144 69 l 60 69 q 33 79 43 69 q 24 104 24 88 m 238 104 q 228 79 238 88 q 201 69 218 69 l 133 69 q 107 78 118 69 q 97 104 97 88 q 107 129 97 119 q 133 138 118 138 l 201 138 q 228 128 218 138 q 238 104 238 119 m 618 104 q 628 128 618 119 q 654 138 638 138 l 722 138 q 749 129 739 138 q 758 104 758 119 q 749 78 758 88 q 722 69 739 69 l 654 69 q 628 79 638 69 q 618 104 618 88 m 832 104 q 822 79 832 88 q 796 69 813 69 l 728 69 q 701 78 713 69 q 692 104 692 88 q 701 129 692 119 q 728 138 713 138 l 796 138 q 822 128 813 138 q 832 104 832 119 m 321 938 q 331 963 321 954 q 357 972 340 972 l 425 972 q 451 964 442 972 q 461 938 461 954 q 451 913 461 922 q 425 904 442 904 l 357 904 q 331 914 340 904 q 321 938 321 922 m 535 938 q 525 914 535 922 q 499 904 515 904 l 431 904 q 404 913 415 904 q 394 938 394 922 q 404 964 394 954 q 431 972 415 972 l 499 972 q 525 963 515 972 q 535 938 535 954 m 594 801 q 571 778 594 778 l 288 778 q 264 801 264 778 q 286 826 264 826 l 569 826 q 594 801 594 826 m 590 726 q 568 750 568 726 l 568 797 q 574 815 568 810 q 592 821 579 821 q 611 815 606 821 q 615 799 615 811 l 615 751 q 590 726 615 726 m 590 876 q 615 851 615 876 l 615 804 q 611 788 615 792 q 592 782 606 782 q 574 788 579 782 q 568 806 568 793 l 568 853 q 590 876 568 876 m 290 750 q 268 726 290 726 q 243 751 243 726 l 243 799 q 247 815 243 811 q 267 821 253 821 q 285 815 279 821 q 290 797 290 810 l 290 750 m 243 853 q 268 878 243 878 q 290 854 290 878 l 290 807 q 285 789 290 794 q 267 783 279 783 q 247 789 253 783 q 243 806 243 793 l 243 853 m 425 221 q 419 253 407 235 l 511 383 q 546 388 524 403 q 551 356 564 374 l 460 225 q 445 216 454 218 q 425 221 436 214 m 289 221 q 283 253 271 235 l 375 383 q 410 388 388 403 q 415 356 428 374 l 324 225 q 309 216 318 218 q 289 221 300 214 m 700 369 q 676 346 700 346 l 215 346 q 192 369 192 346 q 214 394 192 394 l 675 394 q 700 369 700 394 m 700 236 q 676 213 700 213 l 215 213 q 192 236 192 213 q 214 261 192 261 l 675 261 q 700 236 700 261 m 301 1075 q 281 1067 293 1067 q 256 1078 267 1067 q 243 1103 243 1090 q 253 1124 243 1114 l 401 1272 q 426 1285 414 1285 q 451 1272 439 1285 l 600 1124 q 610 1103 610 1114 q 597 1078 610 1090 q 572 1067 586 1067 q 551 1075 560 1067 l 426 1199 l 301 1075 m 454 1388 l 306 1535 q 293 1560 293 1547 q 304 1585 293 1574 q 329 1597 317 1597 q 354 1585 342 1597 l 503 1436 q 513 1415 513 1426 q 500 1390 513 1403 q 475 1379 489 1379 q 454 1388 463 1379 z "},"Ẩ":{"ha":853,"x_min":24,"x_max":832,"o":"m 744 0 q 726 5 735 0 q 711 24 717 10 l 450 783 q 440 810 444 803 q 428 817 436 817 q 406 783 417 817 l 142 24 q 110 0 133 0 q 77 10 88 0 q 67 33 67 19 q 69 47 67 39 l 383 911 q 390 919 386 919 q 410 919 394 919 q 443 919 426 919 q 463 919 460 919 q 469 913 467 919 l 782 53 q 785 38 785 44 q 771 10 785 19 q 744 0 757 0 m 115 346 q 91 356 101 346 q 81 381 81 367 q 91 406 81 396 q 115 415 101 415 l 739 415 q 764 406 754 415 q 774 381 774 396 q 764 356 774 367 q 739 346 754 346 l 115 346 m 24 104 q 33 128 24 119 q 60 138 43 138 l 128 138 q 154 129 144 138 q 164 104 164 119 q 154 78 164 88 q 128 69 144 69 l 60 69 q 33 79 43 69 q 24 104 24 88 m 238 104 q 228 79 238 88 q 201 69 218 69 l 133 69 q 107 78 118 69 q 97 104 97 88 q 107 129 97 119 q 133 138 118 138 l 201 138 q 228 128 218 138 q 238 104 238 119 m 618 104 q 628 128 618 119 q 654 138 638 138 l 722 138 q 749 129 739 138 q 758 104 758 119 q 749 78 758 88 q 722 69 739 69 l 654 69 q 628 79 638 69 q 618 104 618 88 m 832 104 q 822 79 832 88 q 796 69 813 69 l 728 69 q 701 78 713 69 q 692 104 692 88 q 701 129 692 119 q 728 138 713 138 l 796 138 q 822 128 813 138 q 832 104 832 119 m 321 938 q 331 963 321 954 q 357 972 340 972 l 425 972 q 451 964 442 972 q 461 938 461 954 q 451 913 461 922 q 425 904 442 904 l 357 904 q 331 914 340 904 q 321 938 321 922 m 535 938 q 525 914 535 922 q 499 904 515 904 l 431 904 q 404 913 415 904 q 394 938 394 922 q 404 964 394 954 q 431 972 415 972 l 499 972 q 525 963 515 972 q 535 938 535 954 m 594 801 q 571 778 594 778 l 288 778 q 264 801 264 778 q 286 826 264 826 l 569 826 q 594 801 594 826 m 590 726 q 568 750 568 726 l 568 797 q 574 815 568 810 q 592 821 579 821 q 611 815 606 821 q 615 799 615 811 l 615 751 q 590 726 615 726 m 590 876 q 615 851 615 876 l 615 804 q 611 788 615 792 q 592 782 606 782 q 574 788 579 782 q 568 806 568 793 l 568 853 q 590 876 568 876 m 290 750 q 268 726 290 726 q 243 751 243 726 l 243 799 q 247 815 243 811 q 267 821 253 821 q 285 815 279 821 q 290 797 290 810 l 290 750 m 243 853 q 268 878 243 878 q 290 854 290 878 l 290 807 q 285 789 290 794 q 267 783 279 783 q 247 789 253 783 q 243 806 243 793 l 243 853 m 425 221 q 419 253 407 235 l 511 383 q 546 388 524 403 q 551 356 564 374 l 460 225 q 445 216 454 218 q 425 221 436 214 m 289 221 q 283 253 271 235 l 375 383 q 410 388 388 403 q 415 356 428 374 l 324 225 q 309 216 318 218 q 289 221 300 214 m 700 369 q 676 346 700 346 l 215 346 q 192 369 192 346 q 214 394 192 394 l 675 394 q 700 369 700 394 m 700 236 q 676 213 700 213 l 215 213 q 192 236 192 213 q 214 261 192 261 l 675 261 q 700 236 700 261 m 301 1047 q 281 1039 293 1039 q 256 1050 267 1039 q 243 1075 243 1063 q 253 1096 243 1086 l 401 1244 q 426 1257 414 1257 q 451 1244 439 1257 l 600 1096 q 610 1075 610 1086 q 597 1050 610 1063 q 572 1039 586 1039 q 551 1047 560 1039 l 426 1171 l 301 1047 m 721 1015 q 694 1026 706 1015 q 683 1053 683 1038 q 685 1074 683 1056 q 695 1115 686 1093 q 725 1153 704 1138 q 741 1183 740 1164 q 729 1215 742 1203 q 696 1230 715 1232 q 660 1217 676 1228 q 638 1196 644 1207 q 624 1183 632 1189 q 604 1176 617 1176 q 574 1192 585 1176 q 568 1226 563 1208 q 633 1289 586 1274 q 726 1293 681 1304 q 792 1257 764 1283 q 821 1189 819 1231 q 810 1140 822 1161 q 785 1108 799 1118 q 765 1079 771 1097 q 760 1053 760 1061 q 748 1026 760 1038 q 721 1015 736 1015 z "},"Ẫ":{"ha":853,"x_min":24,"x_max":832,"o":"m 744 0 q 726 5 735 0 q 711 24 717 10 l 450 783 q 440 810 444 803 q 428 817 436 817 q 406 783 417 817 l 142 24 q 110 0 133 0 q 77 10 88 0 q 67 33 67 19 q 69 47 67 39 l 383 911 q 390 919 386 919 q 410 919 394 919 q 443 919 426 919 q 463 919 460 919 q 469 913 467 919 l 782 53 q 785 38 785 44 q 771 10 785 19 q 744 0 757 0 m 115 346 q 91 356 101 346 q 81 381 81 367 q 91 406 81 396 q 115 415 101 415 l 739 415 q 764 406 754 415 q 774 381 774 396 q 764 356 774 367 q 739 346 754 346 l 115 346 m 24 104 q 33 128 24 119 q 60 138 43 138 l 128 138 q 154 129 144 138 q 164 104 164 119 q 154 78 164 88 q 128 69 144 69 l 60 69 q 33 79 43 69 q 24 104 24 88 m 238 104 q 228 79 238 88 q 201 69 218 69 l 133 69 q 107 78 118 69 q 97 104 97 88 q 107 129 97 119 q 133 138 118 138 l 201 138 q 228 128 218 138 q 238 104 238 119 m 618 104 q 628 128 618 119 q 654 138 638 138 l 722 138 q 749 129 739 138 q 758 104 758 119 q 749 78 758 88 q 722 69 739 69 l 654 69 q 628 79 638 69 q 618 104 618 88 m 832 104 q 822 79 832 88 q 796 69 813 69 l 728 69 q 701 78 713 69 q 692 104 692 88 q 701 129 692 119 q 728 138 713 138 l 796 138 q 822 128 813 138 q 832 104 832 119 m 321 938 q 331 963 321 954 q 357 972 340 972 l 425 972 q 451 964 442 972 q 461 938 461 954 q 451 913 461 922 q 425 904 442 904 l 357 904 q 331 914 340 904 q 321 938 321 922 m 535 938 q 525 914 535 922 q 499 904 515 904 l 431 904 q 404 913 415 904 q 394 938 394 922 q 404 964 394 954 q 431 972 415 972 l 499 972 q 525 963 515 972 q 535 938 535 954 m 594 801 q 571 778 594 778 l 288 778 q 264 801 264 778 q 286 826 264 826 l 569 826 q 594 801 594 826 m 590 726 q 568 750 568 726 l 568 797 q 574 815 568 810 q 592 821 579 821 q 611 815 606 821 q 615 799 615 811 l 615 751 q 590 726 615 726 m 590 876 q 615 851 615 876 l 615 804 q 611 788 615 792 q 592 782 606 782 q 574 788 579 782 q 568 806 568 793 l 568 853 q 590 876 568 876 m 290 750 q 268 726 290 726 q 243 751 243 726 l 243 799 q 247 815 243 811 q 267 821 253 821 q 285 815 279 821 q 290 797 290 810 l 290 750 m 243 853 q 268 878 243 878 q 290 854 290 878 l 290 807 q 285 789 290 794 q 267 783 279 783 q 247 789 253 783 q 243 806 243 793 l 243 853 m 425 221 q 419 253 407 235 l 511 383 q 546 388 524 403 q 551 356 564 374 l 460 225 q 445 216 454 218 q 425 221 436 214 m 289 221 q 283 253 271 235 l 375 383 q 410 388 388 403 q 415 356 428 374 l 324 225 q 309 216 318 218 q 289 221 300 214 m 700 369 q 676 346 700 346 l 215 346 q 192 369 192 346 q 214 394 192 394 l 675 394 q 700 369 700 394 m 700 236 q 676 213 700 213 l 215 213 q 192 236 192 213 q 214 261 192 261 l 675 261 q 700 236 700 261 m 301 1075 q 281 1067 293 1067 q 256 1078 267 1067 q 243 1103 243 1090 q 253 1124 243 1114 l 401 1272 q 426 1285 414 1285 q 451 1272 439 1285 l 600 1124 q 610 1103 610 1114 q 597 1078 610 1090 q 572 1067 586 1067 q 551 1075 560 1067 l 426 1199 l 301 1075 m 267 1397 q 239 1439 239 1397 q 258 1499 239 1471 q 333 1528 276 1528 q 397 1513 365 1528 q 458 1483 429 1499 q 510 1468 488 1468 q 536 1472 522 1468 q 554 1489 550 1475 q 567 1517 560 1507 q 588 1528 574 1528 q 613 1486 613 1528 q 593 1424 613 1451 q 521 1397 574 1397 q 450 1413 489 1397 q 378 1444 411 1428 q 331 1460 344 1460 q 310 1454 321 1460 q 296 1433 300 1449 q 285 1408 292 1419 q 267 1397 278 1397 z "},"Ȁ":{"ha":853,"x_min":24,"x_max":832,"o":"m 744 0 q 726 5 735 0 q 711 24 717 10 l 450 783 q 440 810 444 803 q 428 817 436 817 q 406 783 417 817 l 142 24 q 110 0 133 0 q 77 10 88 0 q 67 33 67 19 q 69 47 67 39 l 383 911 q 390 919 386 919 q 410 919 394 919 q 443 919 426 919 q 463 919 460 919 q 469 913 467 919 l 782 53 q 785 38 785 44 q 771 10 785 19 q 744 0 757 0 m 115 346 q 91 356 101 346 q 81 381 81 367 q 91 406 81 396 q 115 415 101 415 l 739 415 q 764 406 754 415 q 774 381 774 396 q 764 356 774 367 q 739 346 754 346 l 115 346 m 24 104 q 33 128 24 119 q 60 138 43 138 l 128 138 q 154 129 144 138 q 164 104 164 119 q 154 78 164 88 q 128 69 144 69 l 60 69 q 33 79 43 69 q 24 104 24 88 m 238 104 q 228 79 238 88 q 201 69 218 69 l 133 69 q 107 78 118 69 q 97 104 97 88 q 107 129 97 119 q 133 138 118 138 l 201 138 q 228 128 218 138 q 238 104 238 119 m 618 104 q 628 128 618 119 q 654 138 638 138 l 722 138 q 749 129 739 138 q 758 104 758 119 q 749 78 758 88 q 722 69 739 69 l 654 69 q 628 79 638 69 q 618 104 618 88 m 832 104 q 822 79 832 88 q 796 69 813 69 l 728 69 q 701 78 713 69 q 692 104 692 88 q 701 129 692 119 q 728 138 713 138 l 796 138 q 822 128 813 138 q 832 104 832 119 m 321 938 q 331 963 321 954 q 357 972 340 972 l 425 972 q 451 964 442 972 q 461 938 461 954 q 451 913 461 922 q 425 904 442 904 l 357 904 q 331 914 340 904 q 321 938 321 922 m 535 938 q 525 914 535 922 q 499 904 515 904 l 431 904 q 404 913 415 904 q 394 938 394 922 q 404 964 394 954 q 431 972 415 972 l 499 972 q 525 963 515 972 q 535 938 535 954 m 594 801 q 571 778 594 778 l 288 778 q 264 801 264 778 q 286 826 264 826 l 569 826 q 594 801 594 826 m 590 726 q 568 750 568 726 l 568 797 q 574 815 568 810 q 592 821 579 821 q 611 815 606 821 q 615 799 615 811 l 615 751 q 590 726 615 726 m 590 876 q 615 851 615 876 l 615 804 q 611 788 615 792 q 592 782 606 782 q 574 788 579 782 q 568 806 568 793 l 568 853 q 590 876 568 876 m 290 750 q 268 726 290 726 q 243 751 243 726 l 243 799 q 247 815 243 811 q 267 821 253 821 q 285 815 279 821 q 290 797 290 810 l 290 750 m 243 853 q 268 878 243 878 q 290 854 290 878 l 290 807 q 285 789 290 794 q 267 783 279 783 q 247 789 253 783 q 243 806 243 793 l 243 853 m 425 221 q 419 253 407 235 l 511 383 q 546 388 524 403 q 551 356 564 374 l 460 225 q 445 216 454 218 q 425 221 436 214 m 289 221 q 283 253 271 235 l 375 383 q 410 388 388 403 q 415 356 428 374 l 324 225 q 309 216 318 218 q 289 221 300 214 m 700 369 q 676 346 700 346 l 215 346 q 192 369 192 346 q 214 394 192 394 l 675 394 q 700 369 700 394 m 700 236 q 676 213 700 213 l 215 213 q 192 236 192 213 q 214 261 192 261 l 675 261 q 700 236 700 261 m 376 1049 l 228 1196 q 215 1221 215 1208 q 226 1246 215 1235 q 251 1258 239 1258 q 276 1246 264 1258 l 425 1097 q 435 1076 435 1088 q 422 1051 435 1064 q 397 1040 411 1040 q 376 1049 385 1040 m 546 1049 l 397 1196 q 385 1221 385 1208 q 396 1246 385 1235 q 421 1258 408 1258 q 446 1246 433 1258 l 594 1097 q 604 1076 604 1088 q 592 1051 604 1064 q 567 1040 581 1040 q 546 1049 554 1040 z "},"Ä":{"ha":853,"x_min":24,"x_max":832,"o":"m 744 0 q 726 5 735 0 q 711 24 717 10 l 450 783 q 440 810 444 803 q 428 817 436 817 q 406 783 417 817 l 142 24 q 110 0 133 0 q 77 10 88 0 q 67 33 67 19 q 69 47 67 39 l 383 911 q 390 919 386 919 q 410 919 394 919 q 443 919 426 919 q 463 919 460 919 q 469 913 467 919 l 782 53 q 785 38 785 44 q 771 10 785 19 q 744 0 757 0 m 115 346 q 91 356 101 346 q 81 381 81 367 q 91 406 81 396 q 115 415 101 415 l 739 415 q 764 406 754 415 q 774 381 774 396 q 764 356 774 367 q 739 346 754 346 l 115 346 m 24 104 q 33 128 24 119 q 60 138 43 138 l 128 138 q 154 129 144 138 q 164 104 164 119 q 154 78 164 88 q 128 69 144 69 l 60 69 q 33 79 43 69 q 24 104 24 88 m 238 104 q 228 79 238 88 q 201 69 218 69 l 133 69 q 107 78 118 69 q 97 104 97 88 q 107 129 97 119 q 133 138 118 138 l 201 138 q 228 128 218 138 q 238 104 238 119 m 618 104 q 628 128 618 119 q 654 138 638 138 l 722 138 q 749 129 739 138 q 758 104 758 119 q 749 78 758 88 q 722 69 739 69 l 654 69 q 628 79 638 69 q 618 104 618 88 m 832 104 q 822 79 832 88 q 796 69 813 69 l 728 69 q 701 78 713 69 q 692 104 692 88 q 701 129 692 119 q 728 138 713 138 l 796 138 q 822 128 813 138 q 832 104 832 119 m 321 938 q 331 963 321 954 q 357 972 340 972 l 425 972 q 451 964 442 972 q 461 938 461 954 q 451 913 461 922 q 425 904 442 904 l 357 904 q 331 914 340 904 q 321 938 321 922 m 535 938 q 525 914 535 922 q 499 904 515 904 l 431 904 q 404 913 415 904 q 394 938 394 922 q 404 964 394 954 q 431 972 415 972 l 499 972 q 525 963 515 972 q 535 938 535 954 m 594 801 q 571 778 594 778 l 288 778 q 264 801 264 778 q 286 826 264 826 l 569 826 q 594 801 594 826 m 590 726 q 568 750 568 726 l 568 797 q 574 815 568 810 q 592 821 579 821 q 611 815 606 821 q 615 799 615 811 l 615 751 q 590 726 615 726 m 590 876 q 615 851 615 876 l 615 804 q 611 788 615 792 q 592 782 606 782 q 574 788 579 782 q 568 806 568 793 l 568 853 q 590 876 568 876 m 290 750 q 268 726 290 726 q 243 751 243 726 l 243 799 q 247 815 243 811 q 267 821 253 821 q 285 815 279 821 q 290 797 290 810 l 290 750 m 243 853 q 268 878 243 878 q 290 854 290 878 l 290 807 q 285 789 290 794 q 267 783 279 783 q 247 789 253 783 q 243 806 243 793 l 243 853 m 425 221 q 419 253 407 235 l 511 383 q 546 388 524 403 q 551 356 564 374 l 460 225 q 445 216 454 218 q 425 221 436 214 m 289 221 q 283 253 271 235 l 375 383 q 410 388 388 403 q 415 356 428 374 l 324 225 q 309 216 318 218 q 289 221 300 214 m 700 369 q 676 346 700 346 l 215 346 q 192 369 192 346 q 214 394 192 394 l 675 394 q 700 369 700 394 m 700 236 q 676 213 700 213 l 215 213 q 192 236 192 213 q 214 261 192 261 l 675 261 q 700 236 700 261 m 508 1110 q 474 1124 488 1110 q 461 1158 461 1138 q 474 1192 461 1178 q 508 1207 488 1207 q 544 1192 529 1207 q 558 1158 558 1178 q 544 1124 558 1138 q 508 1110 529 1110 m 342 1110 q 308 1124 321 1110 q 294 1158 294 1138 q 308 1192 294 1178 q 342 1207 321 1207 q 377 1192 363 1207 q 392 1158 392 1178 q 377 1124 392 1138 q 342 1110 363 1110 z "},"Ǟ":{"ha":853,"x_min":24,"x_max":832,"o":"m 744 0 q 726 5 735 0 q 711 24 717 10 l 450 783 q 440 810 444 803 q 428 817 436 817 q 406 783 417 817 l 142 24 q 110 0 133 0 q 77 10 88 0 q 67 33 67 19 q 69 47 67 39 l 383 911 q 390 919 386 919 q 410 919 394 919 q 443 919 426 919 q 463 919 460 919 q 469 913 467 919 l 782 53 q 785 38 785 44 q 771 10 785 19 q 744 0 757 0 m 115 346 q 91 356 101 346 q 81 381 81 367 q 91 406 81 396 q 115 415 101 415 l 739 415 q 764 406 754 415 q 774 381 774 396 q 764 356 774 367 q 739 346 754 346 l 115 346 m 24 104 q 33 128 24 119 q 60 138 43 138 l 128 138 q 154 129 144 138 q 164 104 164 119 q 154 78 164 88 q 128 69 144 69 l 60 69 q 33 79 43 69 q 24 104 24 88 m 238 104 q 228 79 238 88 q 201 69 218 69 l 133 69 q 107 78 118 69 q 97 104 97 88 q 107 129 97 119 q 133 138 118 138 l 201 138 q 228 128 218 138 q 238 104 238 119 m 618 104 q 628 128 618 119 q 654 138 638 138 l 722 138 q 749 129 739 138 q 758 104 758 119 q 749 78 758 88 q 722 69 739 69 l 654 69 q 628 79 638 69 q 618 104 618 88 m 832 104 q 822 79 832 88 q 796 69 813 69 l 728 69 q 701 78 713 69 q 692 104 692 88 q 701 129 692 119 q 728 138 713 138 l 796 138 q 822 128 813 138 q 832 104 832 119 m 321 938 q 331 963 321 954 q 357 972 340 972 l 425 972 q 451 964 442 972 q 461 938 461 954 q 451 913 461 922 q 425 904 442 904 l 357 904 q 331 914 340 904 q 321 938 321 922 m 535 938 q 525 914 535 922 q 499 904 515 904 l 431 904 q 404 913 415 904 q 394 938 394 922 q 404 964 394 954 q 431 972 415 972 l 499 972 q 525 963 515 972 q 535 938 535 954 m 594 801 q 571 778 594 778 l 288 778 q 264 801 264 778 q 286 826 264 826 l 569 826 q 594 801 594 826 m 590 726 q 568 750 568 726 l 568 797 q 574 815 568 810 q 592 821 579 821 q 611 815 606 821 q 615 799 615 811 l 615 751 q 590 726 615 726 m 590 876 q 615 851 615 876 l 615 804 q 611 788 615 792 q 592 782 606 782 q 574 788 579 782 q 568 806 568 793 l 568 853 q 590 876 568 876 m 290 750 q 268 726 290 726 q 243 751 243 726 l 243 799 q 247 815 243 811 q 267 821 253 821 q 285 815 279 821 q 290 797 290 810 l 290 750 m 243 853 q 268 878 243 878 q 290 854 290 878 l 290 807 q 285 789 290 794 q 267 783 279 783 q 247 789 253 783 q 243 806 243 793 l 243 853 m 425 221 q 419 253 407 235 l 511 383 q 546 388 524 403 q 551 356 564 374 l 460 225 q 445 216 454 218 q 425 221 436 214 m 289 221 q 283 253 271 235 l 375 383 q 410 388 388 403 q 415 356 428 374 l 324 225 q 309 216 318 218 q 289 221 300 214 m 700 369 q 676 346 700 346 l 215 346 q 192 369 192 346 q 214 394 192 394 l 675 394 q 700 369 700 394 m 700 236 q 676 213 700 213 l 215 213 q 192 236 192 213 q 214 261 192 261 l 675 261 q 700 236 700 261 m 508 1110 q 474 1124 488 1110 q 461 1158 461 1138 q 474 1192 461 1178 q 508 1207 488 1207 q 544 1192 529 1207 q 558 1158 558 1178 q 544 1124 558 1138 q 508 1110 529 1110 m 342 1110 q 308 1124 321 1110 q 294 1158 294 1138 q 308 1192 294 1178 q 342 1207 321 1207 q 377 1192 363 1207 q 392 1158 392 1178 q 377 1124 392 1138 q 342 1110 363 1110 m 294 1306 q 258 1340 258 1306 q 294 1375 258 1375 l 563 1375 q 599 1340 599 1375 q 563 1306 599 1306 l 294 1306 z "},"Ȧ":{"ha":853,"x_min":24,"x_max":832,"o":"m 744 0 q 726 5 735 0 q 711 24 717 10 l 450 783 q 440 810 444 803 q 428 817 436 817 q 406 783 417 817 l 142 24 q 110 0 133 0 q 77 10 88 0 q 67 33 67 19 q 69 47 67 39 l 383 911 q 390 919 386 919 q 410 919 394 919 q 443 919 426 919 q 463 919 460 919 q 469 913 467 919 l 782 53 q 785 38 785 44 q 771 10 785 19 q 744 0 757 0 m 115 346 q 91 356 101 346 q 81 381 81 367 q 91 406 81 396 q 115 415 101 415 l 739 415 q 764 406 754 415 q 774 381 774 396 q 764 356 774 367 q 739 346 754 346 l 115 346 m 24 104 q 33 128 24 119 q 60 138 43 138 l 128 138 q 154 129 144 138 q 164 104 164 119 q 154 78 164 88 q 128 69 144 69 l 60 69 q 33 79 43 69 q 24 104 24 88 m 238 104 q 228 79 238 88 q 201 69 218 69 l 133 69 q 107 78 118 69 q 97 104 97 88 q 107 129 97 119 q 133 138 118 138 l 201 138 q 228 128 218 138 q 238 104 238 119 m 618 104 q 628 128 618 119 q 654 138 638 138 l 722 138 q 749 129 739 138 q 758 104 758 119 q 749 78 758 88 q 722 69 739 69 l 654 69 q 628 79 638 69 q 618 104 618 88 m 832 104 q 822 79 832 88 q 796 69 813 69 l 728 69 q 701 78 713 69 q 692 104 692 88 q 701 129 692 119 q 728 138 713 138 l 796 138 q 822 128 813 138 q 832 104 832 119 m 321 938 q 331 963 321 954 q 357 972 340 972 l 425 972 q 451 964 442 972 q 461 938 461 954 q 451 913 461 922 q 425 904 442 904 l 357 904 q 331 914 340 904 q 321 938 321 922 m 535 938 q 525 914 535 922 q 499 904 515 904 l 431 904 q 404 913 415 904 q 394 938 394 922 q 404 964 394 954 q 431 972 415 972 l 499 972 q 525 963 515 972 q 535 938 535 954 m 594 801 q 571 778 594 778 l 288 778 q 264 801 264 778 q 286 826 264 826 l 569 826 q 594 801 594 826 m 590 726 q 568 750 568 726 l 568 797 q 574 815 568 810 q 592 821 579 821 q 611 815 606 821 q 615 799 615 811 l 615 751 q 590 726 615 726 m 590 876 q 615 851 615 876 l 615 804 q 611 788 615 792 q 592 782 606 782 q 574 788 579 782 q 568 806 568 793 l 568 853 q 590 876 568 876 m 290 750 q 268 726 290 726 q 243 751 243 726 l 243 799 q 247 815 243 811 q 267 821 253 821 q 285 815 279 821 q 290 797 290 810 l 290 750 m 243 853 q 268 878 243 878 q 290 854 290 878 l 290 807 q 285 789 290 794 q 267 783 279 783 q 247 789 253 783 q 243 806 243 793 l 243 853 m 425 221 q 419 253 407 235 l 511 383 q 546 388 524 403 q 551 356 564 374 l 460 225 q 445 216 454 218 q 425 221 436 214 m 289 221 q 283 253 271 235 l 375 383 q 410 388 388 403 q 415 356 428 374 l 324 225 q 309 216 318 218 q 289 221 300 214 m 700 369 q 676 346 700 346 l 215 346 q 192 369 192 346 q 214 394 192 394 l 675 394 q 700 369 700 394 m 700 236 q 676 213 700 213 l 215 213 q 192 236 192 213 q 214 261 192 261 l 675 261 q 700 236 700 261 m 426 1078 q 390 1093 404 1078 q 375 1131 375 1108 q 390 1167 375 1151 q 426 1182 404 1182 q 464 1167 449 1182 q 479 1131 479 1151 q 464 1093 479 1108 q 426 1078 449 1078 z "},"Ạ":{"ha":853,"x_min":24,"x_max":832,"o":"m 744 0 q 726 5 735 0 q 711 24 717 10 l 450 783 q 440 810 444 803 q 428 817 436 817 q 406 783 417 817 l 142 24 q 110 0 133 0 q 77 10 88 0 q 67 33 67 19 q 69 47 67 39 l 383 911 q 390 919 386 919 q 410 919 394 919 q 443 919 426 919 q 463 919 460 919 q 469 913 467 919 l 782 53 q 785 38 785 44 q 771 10 785 19 q 744 0 757 0 m 115 346 q 91 356 101 346 q 81 381 81 367 q 91 406 81 396 q 115 415 101 415 l 739 415 q 764 406 754 415 q 774 381 774 396 q 764 356 774 367 q 739 346 754 346 l 115 346 m 24 104 q 33 128 24 119 q 60 138 43 138 l 128 138 q 154 129 144 138 q 164 104 164 119 q 154 78 164 88 q 128 69 144 69 l 60 69 q 33 79 43 69 q 24 104 24 88 m 238 104 q 228 79 238 88 q 201 69 218 69 l 133 69 q 107 78 118 69 q 97 104 97 88 q 107 129 97 119 q 133 138 118 138 l 201 138 q 228 128 218 138 q 238 104 238 119 m 618 104 q 628 128 618 119 q 654 138 638 138 l 722 138 q 749 129 739 138 q 758 104 758 119 q 749 78 758 88 q 722 69 739 69 l 654 69 q 628 79 638 69 q 618 104 618 88 m 832 104 q 822 79 832 88 q 796 69 813 69 l 728 69 q 701 78 713 69 q 692 104 692 88 q 701 129 692 119 q 728 138 713 138 l 796 138 q 822 128 813 138 q 832 104 832 119 m 321 938 q 331 963 321 954 q 357 972 340 972 l 425 972 q 451 964 442 972 q 461 938 461 954 q 451 913 461 922 q 425 904 442 904 l 357 904 q 331 914 340 904 q 321 938 321 922 m 535 938 q 525 914 535 922 q 499 904 515 904 l 431 904 q 404 913 415 904 q 394 938 394 922 q 404 964 394 954 q 431 972 415 972 l 499 972 q 525 963 515 972 q 535 938 535 954 m 594 801 q 571 778 594 778 l 288 778 q 264 801 264 778 q 286 826 264 826 l 569 826 q 594 801 594 826 m 590 726 q 568 750 568 726 l 568 797 q 574 815 568 810 q 592 821 579 821 q 611 815 606 821 q 615 799 615 811 l 615 751 q 590 726 615 726 m 590 876 q 615 851 615 876 l 615 804 q 611 788 615 792 q 592 782 606 782 q 574 788 579 782 q 568 806 568 793 l 568 853 q 590 876 568 876 m 290 750 q 268 726 290 726 q 243 751 243 726 l 243 799 q 247 815 243 811 q 267 821 253 821 q 285 815 279 821 q 290 797 290 810 l 290 750 m 243 853 q 268 878 243 878 q 290 854 290 878 l 290 807 q 285 789 290 794 q 267 783 279 783 q 247 789 253 783 q 243 806 243 793 l 243 853 m 425 221 q 419 253 407 235 l 511 383 q 546 388 524 403 q 551 356 564 374 l 460 225 q 445 216 454 218 q 425 221 436 214 m 289 221 q 283 253 271 235 l 375 383 q 410 388 388 403 q 415 356 428 374 l 324 225 q 309 216 318 218 q 289 221 300 214 m 700 369 q 676 346 700 346 l 215 346 q 192 369 192 346 q 214 394 192 394 l 675 394 q 700 369 700 394 m 700 236 q 676 213 700 213 l 215 213 q 192 236 192 213 q 214 261 192 261 l 675 261 q 700 236 700 261 m 425 -211 q 388 -196 403 -211 q 374 -158 374 -181 q 388 -122 374 -137 q 425 -107 403 -107 q 463 -122 447 -107 q 478 -158 478 -137 q 463 -196 478 -181 q 425 -211 447 -211 z "},"Ǡ":{"ha":853,"x_min":24,"x_max":832,"o":"m 744 0 q 726 5 735 0 q 711 24 717 10 l 450 783 q 440 810 444 803 q 428 817 436 817 q 406 783 417 817 l 142 24 q 110 0 133 0 q 77 10 88 0 q 67 33 67 19 q 69 47 67 39 l 383 911 q 390 919 386 919 q 410 919 394 919 q 443 919 426 919 q 463 919 460 919 q 469 913 467 919 l 782 53 q 785 38 785 44 q 771 10 785 19 q 744 0 757 0 m 115 346 q 91 356 101 346 q 81 381 81 367 q 91 406 81 396 q 115 415 101 415 l 739 415 q 764 406 754 415 q 774 381 774 396 q 764 356 774 367 q 739 346 754 346 l 115 346 m 24 104 q 33 128 24 119 q 60 138 43 138 l 128 138 q 154 129 144 138 q 164 104 164 119 q 154 78 164 88 q 128 69 144 69 l 60 69 q 33 79 43 69 q 24 104 24 88 m 238 104 q 228 79 238 88 q 201 69 218 69 l 133 69 q 107 78 118 69 q 97 104 97 88 q 107 129 97 119 q 133 138 118 138 l 201 138 q 228 128 218 138 q 238 104 238 119 m 618 104 q 628 128 618 119 q 654 138 638 138 l 722 138 q 749 129 739 138 q 758 104 758 119 q 749 78 758 88 q 722 69 739 69 l 654 69 q 628 79 638 69 q 618 104 618 88 m 832 104 q 822 79 832 88 q 796 69 813 69 l 728 69 q 701 78 713 69 q 692 104 692 88 q 701 129 692 119 q 728 138 713 138 l 796 138 q 822 128 813 138 q 832 104 832 119 m 321 938 q 331 963 321 954 q 357 972 340 972 l 425 972 q 451 964 442 972 q 461 938 461 954 q 451 913 461 922 q 425 904 442 904 l 357 904 q 331 914 340 904 q 321 938 321 922 m 535 938 q 525 914 535 922 q 499 904 515 904 l 431 904 q 404 913 415 904 q 394 938 394 922 q 404 964 394 954 q 431 972 415 972 l 499 972 q 525 963 515 972 q 535 938 535 954 m 594 801 q 571 778 594 778 l 288 778 q 264 801 264 778 q 286 826 264 826 l 569 826 q 594 801 594 826 m 590 726 q 568 750 568 726 l 568 797 q 574 815 568 810 q 592 821 579 821 q 611 815 606 821 q 615 799 615 811 l 615 751 q 590 726 615 726 m 590 876 q 615 851 615 876 l 615 804 q 611 788 615 792 q 592 782 606 782 q 574 788 579 782 q 568 806 568 793 l 568 853 q 590 876 568 876 m 290 750 q 268 726 290 726 q 243 751 243 726 l 243 799 q 247 815 243 811 q 267 821 253 821 q 285 815 279 821 q 290 797 290 810 l 290 750 m 243 853 q 268 878 243 878 q 290 854 290 878 l 290 807 q 285 789 290 794 q 267 783 279 783 q 247 789 253 783 q 243 806 243 793 l 243 853 m 425 221 q 419 253 407 235 l 511 383 q 546 388 524 403 q 551 356 564 374 l 460 225 q 445 216 454 218 q 425 221 436 214 m 289 221 q 283 253 271 235 l 375 383 q 410 388 388 403 q 415 356 428 374 l 324 225 q 309 216 318 218 q 289 221 300 214 m 700 369 q 676 346 700 346 l 215 346 q 192 369 192 346 q 214 394 192 394 l 675 394 q 700 369 700 394 m 700 236 q 676 213 700 213 l 215 213 q 192 236 192 213 q 214 261 192 261 l 675 261 q 700 236 700 261 m 426 1078 q 390 1093 404 1078 q 375 1131 375 1108 q 390 1167 375 1151 q 426 1182 404 1182 q 464 1167 449 1182 q 479 1131 479 1151 q 464 1093 479 1108 q 426 1078 449 1078 m 292 1281 q 256 1315 256 1281 q 292 1350 256 1350 l 560 1350 q 596 1315 596 1350 q 560 1281 596 1281 l 292 1281 z "},"À":{"ha":853,"x_min":24,"x_max":832,"o":"m 744 0 q 726 5 735 0 q 711 24 717 10 l 450 783 q 440 810 444 803 q 428 817 436 817 q 406 783 417 817 l 142 24 q 110 0 133 0 q 77 10 88 0 q 67 33 67 19 q 69 47 67 39 l 383 911 q 390 919 386 919 q 410 919 394 919 q 443 919 426 919 q 463 919 460 919 q 469 913 467 919 l 782 53 q 785 38 785 44 q 771 10 785 19 q 744 0 757 0 m 115 346 q 91 356 101 346 q 81 381 81 367 q 91 406 81 396 q 115 415 101 415 l 739 415 q 764 406 754 415 q 774 381 774 396 q 764 356 774 367 q 739 346 754 346 l 115 346 m 24 104 q 33 128 24 119 q 60 138 43 138 l 128 138 q 154 129 144 138 q 164 104 164 119 q 154 78 164 88 q 128 69 144 69 l 60 69 q 33 79 43 69 q 24 104 24 88 m 238 104 q 228 79 238 88 q 201 69 218 69 l 133 69 q 107 78 118 69 q 97 104 97 88 q 107 129 97 119 q 133 138 118 138 l 201 138 q 228 128 218 138 q 238 104 238 119 m 618 104 q 628 128 618 119 q 654 138 638 138 l 722 138 q 749 129 739 138 q 758 104 758 119 q 749 78 758 88 q 722 69 739 69 l 654 69 q 628 79 638 69 q 618 104 618 88 m 832 104 q 822 79 832 88 q 796 69 813 69 l 728 69 q 701 78 713 69 q 692 104 692 88 q 701 129 692 119 q 728 138 713 138 l 796 138 q 822 128 813 138 q 832 104 832 119 m 321 938 q 331 963 321 954 q 357 972 340 972 l 425 972 q 451 964 442 972 q 461 938 461 954 q 451 913 461 922 q 425 904 442 904 l 357 904 q 331 914 340 904 q 321 938 321 922 m 535 938 q 525 914 535 922 q 499 904 515 904 l 431 904 q 404 913 415 904 q 394 938 394 922 q 404 964 394 954 q 431 972 415 972 l 499 972 q 525 963 515 972 q 535 938 535 954 m 594 801 q 571 778 594 778 l 288 778 q 264 801 264 778 q 286 826 264 826 l 569 826 q 594 801 594 826 m 590 726 q 568 750 568 726 l 568 797 q 574 815 568 810 q 592 821 579 821 q 611 815 606 821 q 615 799 615 811 l 615 751 q 590 726 615 726 m 590 876 q 615 851 615 876 l 615 804 q 611 788 615 792 q 592 782 606 782 q 574 788 579 782 q 568 806 568 793 l 568 853 q 590 876 568 876 m 290 750 q 268 726 290 726 q 243 751 243 726 l 243 799 q 247 815 243 811 q 267 821 253 821 q 285 815 279 821 q 290 797 290 810 l 290 750 m 243 853 q 268 878 243 878 q 290 854 290 878 l 290 807 q 285 789 290 794 q 267 783 279 783 q 247 789 253 783 q 243 806 243 793 l 243 853 m 425 221 q 419 253 407 235 l 511 383 q 546 388 524 403 q 551 356 564 374 l 460 225 q 445 216 454 218 q 425 221 436 214 m 289 221 q 283 253 271 235 l 375 383 q 410 388 388 403 q 415 356 428 374 l 324 225 q 309 216 318 218 q 289 221 300 214 m 700 369 q 676 346 700 346 l 215 346 q 192 369 192 346 q 214 394 192 394 l 675 394 q 700 369 700 394 m 700 236 q 676 213 700 213 l 215 213 q 192 236 192 213 q 214 261 192 261 l 675 261 q 700 236 700 261 m 454 1075 l 306 1222 q 293 1247 293 1235 q 304 1272 293 1261 q 329 1285 317 1285 q 354 1272 342 1285 l 503 1124 q 513 1103 513 1114 q 500 1078 513 1090 q 475 1067 489 1067 q 454 1075 463 1067 z "},"Ả":{"ha":853,"x_min":24,"x_max":832,"o":"m 744 0 q 726 5 735 0 q 711 24 717 10 l 450 783 q 440 810 444 803 q 428 817 436 817 q 406 783 417 817 l 142 24 q 110 0 133 0 q 77 10 88 0 q 67 33 67 19 q 69 47 67 39 l 383 911 q 390 919 386 919 q 410 919 394 919 q 443 919 426 919 q 463 919 460 919 q 469 913 467 919 l 782 53 q 785 38 785 44 q 771 10 785 19 q 744 0 757 0 m 115 346 q 91 356 101 346 q 81 381 81 367 q 91 406 81 396 q 115 415 101 415 l 739 415 q 764 406 754 415 q 774 381 774 396 q 764 356 774 367 q 739 346 754 346 l 115 346 m 24 104 q 33 128 24 119 q 60 138 43 138 l 128 138 q 154 129 144 138 q 164 104 164 119 q 154 78 164 88 q 128 69 144 69 l 60 69 q 33 79 43 69 q 24 104 24 88 m 238 104 q 228 79 238 88 q 201 69 218 69 l 133 69 q 107 78 118 69 q 97 104 97 88 q 107 129 97 119 q 133 138 118 138 l 201 138 q 228 128 218 138 q 238 104 238 119 m 618 104 q 628 128 618 119 q 654 138 638 138 l 722 138 q 749 129 739 138 q 758 104 758 119 q 749 78 758 88 q 722 69 739 69 l 654 69 q 628 79 638 69 q 618 104 618 88 m 832 104 q 822 79 832 88 q 796 69 813 69 l 728 69 q 701 78 713 69 q 692 104 692 88 q 701 129 692 119 q 728 138 713 138 l 796 138 q 822 128 813 138 q 832 104 832 119 m 321 938 q 331 963 321 954 q 357 972 340 972 l 425 972 q 451 964 442 972 q 461 938 461 954 q 451 913 461 922 q 425 904 442 904 l 357 904 q 331 914 340 904 q 321 938 321 922 m 535 938 q 525 914 535 922 q 499 904 515 904 l 431 904 q 404 913 415 904 q 394 938 394 922 q 404 964 394 954 q 431 972 415 972 l 499 972 q 525 963 515 972 q 535 938 535 954 m 594 801 q 571 778 594 778 l 288 778 q 264 801 264 778 q 286 826 264 826 l 569 826 q 594 801 594 826 m 590 726 q 568 750 568 726 l 568 797 q 574 815 568 810 q 592 821 579 821 q 611 815 606 821 q 615 799 615 811 l 615 751 q 590 726 615 726 m 590 876 q 615 851 615 876 l 615 804 q 611 788 615 792 q 592 782 606 782 q 574 788 579 782 q 568 806 568 793 l 568 853 q 590 876 568 876 m 290 750 q 268 726 290 726 q 243 751 243 726 l 243 799 q 247 815 243 811 q 267 821 253 821 q 285 815 279 821 q 290 797 290 810 l 290 750 m 243 853 q 268 878 243 878 q 290 854 290 878 l 290 807 q 285 789 290 794 q 267 783 279 783 q 247 789 253 783 q 243 806 243 793 l 243 853 m 425 221 q 419 253 407 235 l 511 383 q 546 388 524 403 q 551 356 564 374 l 460 225 q 445 216 454 218 q 425 221 436 214 m 289 221 q 283 253 271 235 l 375 383 q 410 388 388 403 q 415 356 428 374 l 324 225 q 309 216 318 218 q 289 221 300 214 m 700 369 q 676 346 700 346 l 215 346 q 192 369 192 346 q 214 394 192 394 l 675 394 q 700 369 700 394 m 700 236 q 676 213 700 213 l 215 213 q 192 236 192 213 q 214 261 192 261 l 675 261 q 700 236 700 261 m 431 1046 q 404 1057 415 1046 q 393 1083 393 1068 q 394 1105 393 1086 q 405 1146 396 1124 q 435 1183 414 1168 q 451 1214 450 1194 q 439 1246 451 1233 q 406 1260 425 1263 q 370 1248 386 1258 q 347 1226 354 1238 q 334 1213 342 1219 q 314 1207 326 1207 q 283 1223 294 1207 q 278 1257 272 1239 q 343 1319 296 1304 q 436 1324 390 1335 q 501 1288 474 1314 q 531 1219 529 1261 q 520 1170 532 1192 q 494 1139 508 1149 q 475 1110 481 1128 q 469 1083 469 1092 q 458 1057 469 1068 q 431 1046 446 1046 z "},"Ȃ":{"ha":853,"x_min":24,"x_max":832,"o":"m 744 0 q 726 5 735 0 q 711 24 717 10 l 450 783 q 440 810 444 803 q 428 817 436 817 q 406 783 417 817 l 142 24 q 110 0 133 0 q 77 10 88 0 q 67 33 67 19 q 69 47 67 39 l 383 911 q 390 919 386 919 q 410 919 394 919 q 443 919 426 919 q 463 919 460 919 q 469 913 467 919 l 782 53 q 785 38 785 44 q 771 10 785 19 q 744 0 757 0 m 115 346 q 91 356 101 346 q 81 381 81 367 q 91 406 81 396 q 115 415 101 415 l 739 415 q 764 406 754 415 q 774 381 774 396 q 764 356 774 367 q 739 346 754 346 l 115 346 m 24 104 q 33 128 24 119 q 60 138 43 138 l 128 138 q 154 129 144 138 q 164 104 164 119 q 154 78 164 88 q 128 69 144 69 l 60 69 q 33 79 43 69 q 24 104 24 88 m 238 104 q 228 79 238 88 q 201 69 218 69 l 133 69 q 107 78 118 69 q 97 104 97 88 q 107 129 97 119 q 133 138 118 138 l 201 138 q 228 128 218 138 q 238 104 238 119 m 618 104 q 628 128 618 119 q 654 138 638 138 l 722 138 q 749 129 739 138 q 758 104 758 119 q 749 78 758 88 q 722 69 739 69 l 654 69 q 628 79 638 69 q 618 104 618 88 m 832 104 q 822 79 832 88 q 796 69 813 69 l 728 69 q 701 78 713 69 q 692 104 692 88 q 701 129 692 119 q 728 138 713 138 l 796 138 q 822 128 813 138 q 832 104 832 119 m 321 938 q 331 963 321 954 q 357 972 340 972 l 425 972 q 451 964 442 972 q 461 938 461 954 q 451 913 461 922 q 425 904 442 904 l 357 904 q 331 914 340 904 q 321 938 321 922 m 535 938 q 525 914 535 922 q 499 904 515 904 l 431 904 q 404 913 415 904 q 394 938 394 922 q 404 964 394 954 q 431 972 415 972 l 499 972 q 525 963 515 972 q 535 938 535 954 m 594 801 q 571 778 594 778 l 288 778 q 264 801 264 778 q 286 826 264 826 l 569 826 q 594 801 594 826 m 590 726 q 568 750 568 726 l 568 797 q 574 815 568 810 q 592 821 579 821 q 611 815 606 821 q 615 799 615 811 l 615 751 q 590 726 615 726 m 590 876 q 615 851 615 876 l 615 804 q 611 788 615 792 q 592 782 606 782 q 574 788 579 782 q 568 806 568 793 l 568 853 q 590 876 568 876 m 290 750 q 268 726 290 726 q 243 751 243 726 l 243 799 q 247 815 243 811 q 267 821 253 821 q 285 815 279 821 q 290 797 290 810 l 290 750 m 243 853 q 268 878 243 878 q 290 854 290 878 l 290 807 q 285 789 290 794 q 267 783 279 783 q 247 789 253 783 q 243 806 243 793 l 243 853 m 425 221 q 419 253 407 235 l 511 383 q 546 388 524 403 q 551 356 564 374 l 460 225 q 445 216 454 218 q 425 221 436 214 m 289 221 q 283 253 271 235 l 375 383 q 410 388 388 403 q 415 356 428 374 l 324 225 q 309 216 318 218 q 289 221 300 214 m 700 369 q 676 346 700 346 l 215 346 q 192 369 192 346 q 214 394 192 394 l 675 394 q 700 369 700 394 m 700 236 q 676 213 700 213 l 215 213 q 192 236 192 213 q 214 261 192 261 l 675 261 q 700 236 700 261 m 428 1246 q 519 1224 479 1246 q 583 1170 560 1203 q 607 1103 607 1138 q 597 1072 607 1085 q 575 1058 588 1058 q 548 1070 558 1058 q 532 1100 538 1082 q 428 1176 513 1176 q 361 1157 389 1176 q 322 1099 333 1138 q 306 1069 317 1081 q 279 1058 296 1058 q 256 1070 265 1058 q 246 1100 246 1082 q 265 1157 246 1122 q 325 1219 285 1192 q 428 1246 365 1246 z "},"Ɑ":{"ha":997,"x_min":69,"x_max":914,"o":"m 506 -14 q 287 37 386 -14 q 128 196 188 88 q 69 479 69 304 q 128 763 69 654 q 287 922 188 871 q 506 972 386 972 q 692 928 606 972 q 838 811 778 885 l 838 904 q 843 940 838 928 q 875 953 849 953 q 907 940 900 953 q 914 904 914 928 l 914 54 q 907 19 914 32 q 875 6 900 6 q 843 19 849 6 q 838 54 838 32 l 838 147 q 692 30 778 74 q 506 -14 606 -14 m 506 63 q 685 104 607 63 q 807 238 763 146 q 851 479 851 329 q 807 721 851 629 q 685 854 763 813 q 506 896 607 896 q 323 854 404 896 q 194 721 242 813 q 146 479 146 629 q 194 238 146 329 q 323 104 242 146 q 506 63 404 63 m 388 35 q 364 58 364 35 l 364 908 q 388 932 364 932 q 413 910 413 932 l 413 60 q 388 35 413 35 m 271 281 q 239 286 253 268 q 243 321 224 308 l 374 413 q 406 407 392 425 q 403 372 421 386 l 271 281 m 254 104 q 231 128 231 104 l 231 853 q 254 876 231 876 q 279 854 279 876 l 279 129 q 254 104 279 104 m 271 557 q 239 563 253 544 q 243 597 224 585 l 374 689 q 406 683 392 701 q 403 649 421 663 l 271 557 m 271 417 q 239 422 253 404 q 243 457 224 444 l 374 549 q 406 543 392 561 q 403 508 421 522 l 271 417 z "},"Ā":{"ha":853,"x_min":24,"x_max":832,"o":"m 744 0 q 726 5 735 0 q 711 24 717 10 l 450 783 q 440 810 444 803 q 428 817 436 817 q 406 783 417 817 l 142 24 q 110 0 133 0 q 77 10 88 0 q 67 33 67 19 q 69 47 67 39 l 383 911 q 390 919 386 919 q 410 919 394 919 q 443 919 426 919 q 463 919 460 919 q 469 913 467 919 l 782 53 q 785 38 785 44 q 771 10 785 19 q 744 0 757 0 m 115 346 q 91 356 101 346 q 81 381 81 367 q 91 406 81 396 q 115 415 101 415 l 739 415 q 764 406 754 415 q 774 381 774 396 q 764 356 774 367 q 739 346 754 346 l 115 346 m 24 104 q 33 128 24 119 q 60 138 43 138 l 128 138 q 154 129 144 138 q 164 104 164 119 q 154 78 164 88 q 128 69 144 69 l 60 69 q 33 79 43 69 q 24 104 24 88 m 238 104 q 228 79 238 88 q 201 69 218 69 l 133 69 q 107 78 118 69 q 97 104 97 88 q 107 129 97 119 q 133 138 118 138 l 201 138 q 228 128 218 138 q 238 104 238 119 m 618 104 q 628 128 618 119 q 654 138 638 138 l 722 138 q 749 129 739 138 q 758 104 758 119 q 749 78 758 88 q 722 69 739 69 l 654 69 q 628 79 638 69 q 618 104 618 88 m 832 104 q 822 79 832 88 q 796 69 813 69 l 728 69 q 701 78 713 69 q 692 104 692 88 q 701 129 692 119 q 728 138 713 138 l 796 138 q 822 128 813 138 q 832 104 832 119 m 321 938 q 331 963 321 954 q 357 972 340 972 l 425 972 q 451 964 442 972 q 461 938 461 954 q 451 913 461 922 q 425 904 442 904 l 357 904 q 331 914 340 904 q 321 938 321 922 m 535 938 q 525 914 535 922 q 499 904 515 904 l 431 904 q 404 913 415 904 q 394 938 394 922 q 404 964 394 954 q 431 972 415 972 l 499 972 q 525 963 515 972 q 535 938 535 954 m 594 801 q 571 778 594 778 l 288 778 q 264 801 264 778 q 286 826 264 826 l 569 826 q 594 801 594 826 m 590 726 q 568 750 568 726 l 568 797 q 574 815 568 810 q 592 821 579 821 q 611 815 606 821 q 615 799 615 811 l 615 751 q 590 726 615 726 m 590 876 q 615 851 615 876 l 615 804 q 611 788 615 792 q 592 782 606 782 q 574 788 579 782 q 568 806 568 793 l 568 853 q 590 876 568 876 m 290 750 q 268 726 290 726 q 243 751 243 726 l 243 799 q 247 815 243 811 q 267 821 253 821 q 285 815 279 821 q 290 797 290 810 l 290 750 m 243 853 q 268 878 243 878 q 290 854 290 878 l 290 807 q 285 789 290 794 q 267 783 279 783 q 247 789 253 783 q 243 806 243 793 l 243 853 m 425 221 q 419 253 407 235 l 511 383 q 546 388 524 403 q 551 356 564 374 l 460 225 q 445 216 454 218 q 425 221 436 214 m 289 221 q 283 253 271 235 l 375 383 q 410 388 388 403 q 415 356 428 374 l 324 225 q 309 216 318 218 q 289 221 300 214 m 700 369 q 676 346 700 346 l 215 346 q 192 369 192 346 q 214 394 192 394 l 675 394 q 700 369 700 394 m 700 236 q 676 213 700 213 l 215 213 q 192 236 192 213 q 214 261 192 261 l 675 261 q 700 236 700 261 m 292 1126 q 256 1161 256 1126 q 292 1196 256 1196 l 560 1196 q 596 1161 596 1196 q 560 1126 596 1126 l 292 1126 z "},"Ą":{"ha":853,"x_min":24,"x_max":854,"o":"m 744 0 q 726 5 735 0 q 711 24 717 10 l 450 783 q 440 810 444 803 q 428 817 436 817 q 406 783 417 817 l 142 24 q 110 0 133 0 q 77 10 88 0 q 67 33 67 19 q 69 47 67 39 l 383 911 q 390 919 386 919 q 410 919 394 919 q 443 919 426 919 q 463 919 460 919 q 469 913 467 919 l 782 53 q 785 38 785 44 q 771 10 785 19 q 744 0 757 0 m 115 346 q 91 356 101 346 q 81 381 81 367 q 91 406 81 396 q 115 415 101 415 l 739 415 q 764 406 754 415 q 774 381 774 396 q 764 356 774 367 q 739 346 754 346 l 115 346 m 24 104 q 33 128 24 119 q 60 138 43 138 l 128 138 q 154 129 144 138 q 164 104 164 119 q 154 78 164 88 q 128 69 144 69 l 60 69 q 33 79 43 69 q 24 104 24 88 m 238 104 q 228 79 238 88 q 201 69 218 69 l 133 69 q 107 78 118 69 q 97 104 97 88 q 107 129 97 119 q 133 138 118 138 l 201 138 q 228 128 218 138 q 238 104 238 119 m 618 104 q 628 128 618 119 q 654 138 638 138 l 722 138 q 749 129 739 138 q 758 104 758 119 q 749 78 758 88 q 722 69 739 69 l 654 69 q 628 79 638 69 q 618 104 618 88 m 832 104 q 822 79 832 88 q 796 69 813 69 l 728 69 q 701 78 713 69 q 692 104 692 88 q 701 129 692 119 q 728 138 713 138 l 796 138 q 822 128 813 138 q 832 104 832 119 m 321 938 q 331 963 321 954 q 357 972 340 972 l 425 972 q 451 964 442 972 q 461 938 461 954 q 451 913 461 922 q 425 904 442 904 l 357 904 q 331 914 340 904 q 321 938 321 922 m 535 938 q 525 914 535 922 q 499 904 515 904 l 431 904 q 404 913 415 904 q 394 938 394 922 q 404 964 394 954 q 431 972 415 972 l 499 972 q 525 963 515 972 q 535 938 535 954 m 594 801 q 571 778 594 778 l 288 778 q 264 801 264 778 q 286 826 264 826 l 569 826 q 594 801 594 826 m 590 726 q 568 750 568 726 l 568 797 q 574 815 568 810 q 592 821 579 821 q 611 815 606 821 q 615 799 615 811 l 615 751 q 590 726 615 726 m 590 876 q 615 851 615 876 l 615 804 q 611 788 615 792 q 592 782 606 782 q 574 788 579 782 q 568 806 568 793 l 568 853 q 590 876 568 876 m 290 750 q 268 726 290 726 q 243 751 243 726 l 243 799 q 247 815 243 811 q 267 821 253 821 q 285 815 279 821 q 290 797 290 810 l 290 750 m 243 853 q 268 878 243 878 q 290 854 290 878 l 290 807 q 285 789 290 794 q 267 783 279 783 q 247 789 253 783 q 243 806 243 793 l 243 853 m 425 221 q 419 253 407 235 l 511 383 q 546 388 524 403 q 551 356 564 374 l 460 225 q 445 216 454 218 q 425 221 436 214 m 289 221 q 283 253 271 235 l 375 383 q 410 388 388 403 q 415 356 428 374 l 324 225 q 309 216 318 218 q 289 221 300 214 m 700 369 q 676 346 700 346 l 215 346 q 192 369 192 346 q 214 394 192 394 l 675 394 q 700 369 700 394 m 700 236 q 676 213 700 213 l 215 213 q 192 236 192 213 q 214 261 192 261 l 675 261 q 700 236 700 261 m 761 53 q 779 40 775 53 q 772 18 783 26 q 703 -47 738 -8 q 668 -125 668 -86 q 684 -165 668 -151 q 722 -184 700 -179 q 761 -189 744 -189 q 794 -185 776 -189 q 819 -182 811 -182 q 844 -190 835 -182 q 854 -212 854 -197 q 824 -247 854 -236 q 758 -257 794 -257 q 642 -228 692 -257 q 592 -133 592 -200 q 623 -44 592 -89 q 724 53 654 0 l 761 53 z "},"Å":{"ha":853,"x_min":24,"x_max":832,"o":"m 744 0 q 726 5 735 0 q 711 24 717 10 l 450 783 q 440 810 444 803 q 428 817 436 817 q 406 783 417 817 l 142 24 q 110 0 133 0 q 77 10 88 0 q 67 33 67 19 q 69 47 67 39 l 383 911 q 390 919 386 919 q 410 919 394 919 q 443 919 426 919 q 463 919 460 919 q 469 913 467 919 l 782 53 q 785 38 785 44 q 771 10 785 19 q 744 0 757 0 m 115 346 q 91 356 101 346 q 81 381 81 367 q 91 406 81 396 q 115 415 101 415 l 739 415 q 764 406 754 415 q 774 381 774 396 q 764 356 774 367 q 739 346 754 346 l 115 346 m 24 104 q 33 128 24 119 q 60 138 43 138 l 128 138 q 154 129 144 138 q 164 104 164 119 q 154 78 164 88 q 128 69 144 69 l 60 69 q 33 79 43 69 q 24 104 24 88 m 238 104 q 228 79 238 88 q 201 69 218 69 l 133 69 q 107 78 118 69 q 97 104 97 88 q 107 129 97 119 q 133 138 118 138 l 201 138 q 228 128 218 138 q 238 104 238 119 m 618 104 q 628 128 618 119 q 654 138 638 138 l 722 138 q 749 129 739 138 q 758 104 758 119 q 749 78 758 88 q 722 69 739 69 l 654 69 q 628 79 638 69 q 618 104 618 88 m 832 104 q 822 79 832 88 q 796 69 813 69 l 728 69 q 701 78 713 69 q 692 104 692 88 q 701 129 692 119 q 728 138 713 138 l 796 138 q 822 128 813 138 q 832 104 832 119 m 321 938 q 331 963 321 954 q 357 972 340 972 l 425 972 q 451 964 442 972 q 461 938 461 954 q 451 913 461 922 q 425 904 442 904 l 357 904 q 331 914 340 904 q 321 938 321 922 m 535 938 q 525 914 535 922 q 499 904 515 904 l 431 904 q 404 913 415 904 q 394 938 394 922 q 404 964 394 954 q 431 972 415 972 l 499 972 q 525 963 515 972 q 535 938 535 954 m 594 801 q 571 778 594 778 l 288 778 q 264 801 264 778 q 286 826 264 826 l 569 826 q 594 801 594 826 m 590 726 q 568 750 568 726 l 568 797 q 574 815 568 810 q 592 821 579 821 q 611 815 606 821 q 615 799 615 811 l 615 751 q 590 726 615 726 m 590 876 q 615 851 615 876 l 615 804 q 611 788 615 792 q 592 782 606 782 q 574 788 579 782 q 568 806 568 793 l 568 853 q 590 876 568 876 m 290 750 q 268 726 290 726 q 243 751 243 726 l 243 799 q 247 815 243 811 q 267 821 253 821 q 285 815 279 821 q 290 797 290 810 l 290 750 m 243 853 q 268 878 243 878 q 290 854 290 878 l 290 807 q 285 789 290 794 q 267 783 279 783 q 247 789 253 783 q 243 806 243 793 l 243 853 m 425 221 q 419 253 407 235 l 511 383 q 546 388 524 403 q 551 356 564 374 l 460 225 q 445 216 454 218 q 425 221 436 214 m 289 221 q 283 253 271 235 l 375 383 q 410 388 388 403 q 415 356 428 374 l 324 225 q 309 216 318 218 q 289 221 300 214 m 700 369 q 676 346 700 346 l 215 346 q 192 369 192 346 q 214 394 192 394 l 675 394 q 700 369 700 394 m 700 236 q 676 213 700 213 l 215 213 q 192 236 192 213 q 214 261 192 261 l 675 261 q 700 236 700 261 m 426 1083 q 360 1107 392 1083 q 329 1182 329 1131 q 360 1256 329 1233 q 426 1279 392 1279 q 493 1256 463 1279 q 524 1182 524 1233 q 493 1107 524 1131 q 426 1083 463 1083 m 426 1153 q 461 1182 461 1153 q 426 1210 461 1210 q 392 1182 392 1210 q 426 1153 392 1153 z "},"Ḁ":{"ha":853,"x_min":24,"x_max":832,"o":"m 744 0 q 726 5 735 0 q 711 24 717 10 l 450 783 q 440 810 444 803 q 428 817 436 817 q 406 783 417 817 l 142 24 q 110 0 133 0 q 77 10 88 0 q 67 33 67 19 q 69 47 67 39 l 383 911 q 390 919 386 919 q 410 919 394 919 q 443 919 426 919 q 463 919 460 919 q 469 913 467 919 l 782 53 q 785 38 785 44 q 771 10 785 19 q 744 0 757 0 m 115 346 q 91 356 101 346 q 81 381 81 367 q 91 406 81 396 q 115 415 101 415 l 739 415 q 764 406 754 415 q 774 381 774 396 q 764 356 774 367 q 739 346 754 346 l 115 346 m 24 104 q 33 128 24 119 q 60 138 43 138 l 128 138 q 154 129 144 138 q 164 104 164 119 q 154 78 164 88 q 128 69 144 69 l 60 69 q 33 79 43 69 q 24 104 24 88 m 238 104 q 228 79 238 88 q 201 69 218 69 l 133 69 q 107 78 118 69 q 97 104 97 88 q 107 129 97 119 q 133 138 118 138 l 201 138 q 228 128 218 138 q 238 104 238 119 m 618 104 q 628 128 618 119 q 654 138 638 138 l 722 138 q 749 129 739 138 q 758 104 758 119 q 749 78 758 88 q 722 69 739 69 l 654 69 q 628 79 638 69 q 618 104 618 88 m 832 104 q 822 79 832 88 q 796 69 813 69 l 728 69 q 701 78 713 69 q 692 104 692 88 q 701 129 692 119 q 728 138 713 138 l 796 138 q 822 128 813 138 q 832 104 832 119 m 321 938 q 331 963 321 954 q 357 972 340 972 l 425 972 q 451 964 442 972 q 461 938 461 954 q 451 913 461 922 q 425 904 442 904 l 357 904 q 331 914 340 904 q 321 938 321 922 m 535 938 q 525 914 535 922 q 499 904 515 904 l 431 904 q 404 913 415 904 q 394 938 394 922 q 404 964 394 954 q 431 972 415 972 l 499 972 q 525 963 515 972 q 535 938 535 954 m 594 801 q 571 778 594 778 l 288 778 q 264 801 264 778 q 286 826 264 826 l 569 826 q 594 801 594 826 m 590 726 q 568 750 568 726 l 568 797 q 574 815 568 810 q 592 821 579 821 q 611 815 606 821 q 615 799 615 811 l 615 751 q 590 726 615 726 m 590 876 q 615 851 615 876 l 615 804 q 611 788 615 792 q 592 782 606 782 q 574 788 579 782 q 568 806 568 793 l 568 853 q 590 876 568 876 m 290 750 q 268 726 290 726 q 243 751 243 726 l 243 799 q 247 815 243 811 q 267 821 253 821 q 285 815 279 821 q 290 797 290 810 l 290 750 m 243 853 q 268 878 243 878 q 290 854 290 878 l 290 807 q 285 789 290 794 q 267 783 279 783 q 247 789 253 783 q 243 806 243 793 l 243 853 m 425 221 q 419 253 407 235 l 511 383 q 546 388 524 403 q 551 356 564 374 l 460 225 q 445 216 454 218 q 425 221 436 214 m 289 221 q 283 253 271 235 l 375 383 q 410 388 388 403 q 415 356 428 374 l 324 225 q 309 216 318 218 q 289 221 300 214 m 700 369 q 676 346 700 346 l 215 346 q 192 369 192 346 q 214 394 192 394 l 675 394 q 700 369 700 394 m 700 236 q 676 213 700 213 l 215 213 q 192 236 192 213 q 214 261 192 261 l 675 261 q 700 236 700 261 m 426 -272 q 360 -249 392 -272 q 329 -174 329 -225 q 360 -99 329 -122 q 426 -76 392 -76 q 493 -99 463 -76 q 524 -174 524 -122 q 493 -249 524 -225 q 426 -272 463 -272 m 426 -203 q 461 -174 461 -203 q 426 -146 461 -146 q 392 -174 392 -146 q 426 -203 392 -203 z "},"Ⱥ":{"ha":853,"x_min":24,"x_max":832,"o":"m 744 0 q 726 5 735 0 q 711 24 717 10 l 428 844 l 142 24 q 110 0 133 0 q 77 10 88 0 q 67 33 67 19 q 69 47 67 39 l 383 911 q 390 919 386 919 q 410 919 394 919 q 443 919 426 919 q 463 919 460 919 q 469 913 467 919 l 782 53 q 785 38 785 44 q 771 10 785 19 q 744 0 757 0 m 115 346 q 91 356 101 346 q 81 381 81 367 q 91 406 81 396 q 115 415 101 415 l 739 415 q 764 406 754 415 q 774 381 774 396 q 764 356 774 367 q 739 346 754 346 l 115 346 m 400 257 q 426 210 438 246 q 408 144 418 178 q 386 63 399 110 q 354 -58 374 15 q 310 -81 346 -92 q 281 -39 272 -72 l 353 229 q 369 253 357 244 q 400 257 382 261 m 597 989 q 624 942 632 979 q 585 799 600 854 q 560 705 571 744 q 538 625 549 665 q 511 529 526 585 q 472 385 496 474 q 428 363 464 351 q 399 404 390 371 l 550 961 q 567 985 554 976 q 597 989 579 993 m 24 104 q 33 128 24 119 q 60 138 43 138 l 128 138 q 154 129 144 138 q 164 104 164 119 q 154 78 164 88 q 128 69 144 69 l 60 69 q 33 79 43 69 q 24 104 24 88 m 238 104 q 228 79 238 88 q 201 69 218 69 l 133 69 q 107 78 118 69 q 97 104 97 88 q 107 129 97 119 q 133 138 118 138 l 201 138 q 228 128 218 138 q 238 104 238 119 m 618 104 q 628 128 618 119 q 654 138 638 138 l 722 138 q 749 129 739 138 q 758 104 758 119 q 749 78 758 88 q 722 69 739 69 l 654 69 q 628 79 638 69 q 618 104 618 88 m 832 104 q 822 79 832 88 q 796 69 813 69 l 728 69 q 701 78 713 69 q 692 104 692 88 q 701 129 692 119 q 728 138 713 138 l 796 138 q 822 128 813 138 q 832 104 832 119 m 321 938 q 331 963 321 954 q 357 972 340 972 l 425 972 q 451 964 442 972 q 461 938 461 954 q 451 913 461 922 q 425 904 442 904 l 357 904 q 331 914 340 904 q 321 938 321 922 m 535 938 q 525 914 535 922 q 499 904 515 904 l 431 904 q 404 913 415 904 q 394 938 394 922 q 404 964 394 954 q 431 972 415 972 l 499 972 q 525 963 515 972 q 535 938 535 954 m 425 221 q 419 253 407 235 l 511 383 q 546 388 524 403 q 551 356 564 374 l 460 225 q 445 216 454 218 q 425 221 436 214 m 289 221 q 283 253 271 235 l 375 383 q 410 388 388 403 q 415 356 428 374 l 324 225 q 309 216 318 218 q 289 221 300 214 m 700 369 q 676 346 700 346 l 215 346 q 192 369 192 346 q 214 394 192 394 l 675 394 q 700 369 700 394 m 700 236 q 676 213 700 213 l 215 213 q 192 236 192 213 q 214 261 192 261 l 675 261 q 700 236 700 261 z "},"Ã":{"ha":853,"x_min":24,"x_max":832,"o":"m 744 0 q 726 5 735 0 q 711 24 717 10 l 450 783 q 440 810 444 803 q 428 817 436 817 q 406 783 417 817 l 142 24 q 110 0 133 0 q 77 10 88 0 q 67 33 67 19 q 69 47 67 39 l 383 911 q 390 919 386 919 q 410 919 394 919 q 443 919 426 919 q 463 919 460 919 q 469 913 467 919 l 782 53 q 785 38 785 44 q 771 10 785 19 q 744 0 757 0 m 115 346 q 91 356 101 346 q 81 381 81 367 q 91 406 81 396 q 115 415 101 415 l 739 415 q 764 406 754 415 q 774 381 774 396 q 764 356 774 367 q 739 346 754 346 l 115 346 m 24 104 q 33 128 24 119 q 60 138 43 138 l 128 138 q 154 129 144 138 q 164 104 164 119 q 154 78 164 88 q 128 69 144 69 l 60 69 q 33 79 43 69 q 24 104 24 88 m 238 104 q 228 79 238 88 q 201 69 218 69 l 133 69 q 107 78 118 69 q 97 104 97 88 q 107 129 97 119 q 133 138 118 138 l 201 138 q 228 128 218 138 q 238 104 238 119 m 618 104 q 628 128 618 119 q 654 138 638 138 l 722 138 q 749 129 739 138 q 758 104 758 119 q 749 78 758 88 q 722 69 739 69 l 654 69 q 628 79 638 69 q 618 104 618 88 m 832 104 q 822 79 832 88 q 796 69 813 69 l 728 69 q 701 78 713 69 q 692 104 692 88 q 701 129 692 119 q 728 138 713 138 l 796 138 q 822 128 813 138 q 832 104 832 119 m 321 938 q 331 963 321 954 q 357 972 340 972 l 425 972 q 451 964 442 972 q 461 938 461 954 q 451 913 461 922 q 425 904 442 904 l 357 904 q 331 914 340 904 q 321 938 321 922 m 535 938 q 525 914 535 922 q 499 904 515 904 l 431 904 q 404 913 415 904 q 394 938 394 922 q 404 964 394 954 q 431 972 415 972 l 499 972 q 525 963 515 972 q 535 938 535 954 m 594 801 q 571 778 594 778 l 288 778 q 264 801 264 778 q 286 826 264 826 l 569 826 q 594 801 594 826 m 590 726 q 568 750 568 726 l 568 797 q 574 815 568 810 q 592 821 579 821 q 611 815 606 821 q 615 799 615 811 l 615 751 q 590 726 615 726 m 590 876 q 615 851 615 876 l 615 804 q 611 788 615 792 q 592 782 606 782 q 574 788 579 782 q 568 806 568 793 l 568 853 q 590 876 568 876 m 290 750 q 268 726 290 726 q 243 751 243 726 l 243 799 q 247 815 243 811 q 267 821 253 821 q 285 815 279 821 q 290 797 290 810 l 290 750 m 243 853 q 268 878 243 878 q 290 854 290 878 l 290 807 q 285 789 290 794 q 267 783 279 783 q 247 789 253 783 q 243 806 243 793 l 243 853 m 425 221 q 419 253 407 235 l 511 383 q 546 388 524 403 q 551 356 564 374 l 460 225 q 445 216 454 218 q 425 221 436 214 m 289 221 q 283 253 271 235 l 375 383 q 410 388 388 403 q 415 356 428 374 l 324 225 q 309 216 318 218 q 289 221 300 214 m 700 369 q 676 346 700 346 l 215 346 q 192 369 192 346 q 214 394 192 394 l 675 394 q 700 369 700 394 m 700 236 q 676 213 700 213 l 215 213 q 192 236 192 213 q 214 261 192 261 l 675 261 q 700 236 700 261 m 267 1085 q 239 1126 239 1085 q 258 1187 239 1158 q 333 1215 276 1215 q 397 1201 365 1215 q 458 1171 429 1186 q 510 1156 488 1156 q 536 1159 522 1156 q 554 1176 550 1163 q 567 1205 560 1194 q 588 1215 574 1215 q 613 1174 613 1215 q 593 1112 613 1139 q 521 1085 574 1085 q 450 1100 489 1085 q 378 1131 411 1115 q 331 1147 344 1147 q 310 1142 321 1147 q 296 1121 300 1136 q 285 1096 292 1107 q 267 1085 278 1085 z "},"Æ":{"ha":1226,"x_min":24,"x_max":1192,"o":"m 406 783 l 142 24 q 110 0 133 0 q 77 10 88 0 q 67 33 67 19 q 69 47 67 39 l 383 911 q 390 919 386 919 q 417 919 396 919 q 453 919 439 919 q 428 852 439 888 q 406 783 417 817 m 115 346 q 91 356 101 346 q 81 381 81 367 q 91 406 81 396 q 115 415 101 415 l 571 415 q 596 406 586 415 q 606 381 606 396 q 596 356 606 367 q 571 346 586 346 l 115 346 m 588 0 q 553 50 553 0 l 553 936 q 588 972 553 972 q 622 936 622 972 l 622 36 q 588 0 622 0 m 492 0 q 456 35 456 0 q 492 69 456 69 l 1151 69 q 1188 35 1188 69 q 1151 0 1188 0 l 492 0 m 603 460 q 567 494 567 460 q 603 529 567 529 l 1082 529 q 1118 494 1118 529 q 1082 460 1118 460 l 603 460 m 357 903 q 321 938 321 903 q 357 972 321 972 l 1151 972 q 1180 963 1168 972 q 1192 938 1192 954 q 1180 912 1192 921 q 1151 903 1168 903 l 357 903 m 596 236 q 572 213 596 213 l 176 213 q 153 236 153 213 q 175 261 153 261 l 571 261 q 596 236 596 261 m 24 104 q 33 128 24 119 q 60 138 43 138 l 128 138 q 154 129 144 138 q 164 104 164 119 q 154 78 164 88 q 128 69 144 69 l 60 69 q 33 79 43 69 q 24 104 24 88 m 238 104 q 228 79 238 88 q 201 69 218 69 l 133 69 q 107 78 118 69 q 97 104 97 88 q 107 129 97 119 q 133 138 118 138 l 201 138 q 228 128 218 138 q 238 104 238 119 m 585 801 q 561 778 585 778 l 278 778 q 254 801 254 778 q 276 826 254 826 l 560 826 q 585 801 585 826 m 581 726 q 558 750 558 726 l 558 797 q 564 815 558 810 q 582 821 569 821 q 601 815 596 821 q 606 799 606 811 l 606 751 q 581 726 606 726 m 581 876 q 606 851 606 876 l 606 804 q 601 788 606 792 q 582 782 596 782 q 564 788 569 782 q 558 806 558 793 l 558 853 q 581 876 558 876 m 281 750 q 258 726 281 726 q 233 751 233 726 l 233 799 q 238 815 233 811 q 257 821 243 821 q 275 815 269 821 q 281 797 281 810 l 281 750 m 233 853 q 258 878 233 878 q 281 854 281 878 l 281 807 q 275 789 281 794 q 257 783 269 783 q 238 789 243 783 q 233 806 233 793 l 233 853 m 1028 388 q 1004 397 1013 388 q 994 424 994 407 l 994 492 q 1003 518 994 508 q 1028 528 1013 528 q 1054 518 1044 528 q 1063 492 1063 508 l 1063 424 q 1053 397 1063 407 q 1028 388 1044 388 m 1028 601 q 1053 592 1044 601 q 1063 565 1063 582 l 1063 497 q 1054 471 1063 482 q 1028 461 1044 461 q 1003 471 1013 461 q 994 497 994 482 l 994 565 q 1004 592 994 582 q 1028 601 1013 601 m 747 689 q 752 669 754 679 q 743 654 750 660 l 613 563 q 581 568 594 550 q 585 603 565 590 l 715 694 q 747 689 733 707 m 747 825 q 752 806 754 815 q 743 790 750 796 l 613 699 q 581 704 594 686 q 585 739 565 726 l 715 831 q 747 825 733 843 m 599 414 q 574 439 574 414 l 574 900 q 599 922 574 922 q 622 899 622 922 l 622 438 q 599 414 622 414 m 732 414 q 707 439 707 414 l 707 900 q 732 922 707 922 q 756 899 756 922 l 756 438 q 732 414 756 414 m 747 279 q 752 260 754 269 q 743 244 750 250 l 613 153 q 581 158 594 140 q 585 193 565 181 l 715 285 q 747 279 733 297 m 747 415 q 752 396 754 406 q 743 381 750 386 l 613 289 q 581 294 594 276 q 585 329 565 317 l 715 421 q 747 415 733 433 m 599 4 q 574 29 574 4 l 574 490 q 599 513 574 513 q 622 489 622 513 l 622 28 q 599 4 622 4 m 732 4 q 707 29 707 4 l 707 490 q 732 513 707 513 q 756 489 756 513 l 756 28 q 732 4 756 4 m 324 242 q 289 235 308 222 q 278 249 282 240 q 282 269 275 258 l 357 376 q 390 383 372 396 q 403 368 400 376 q 397 349 406 360 l 324 242 m 439 242 q 404 235 424 222 q 394 249 397 240 q 397 269 390 258 l 472 376 q 506 383 488 396 q 518 368 515 376 q 513 349 521 360 l 439 242 z "},"Ǣ":{"ha":1226,"x_min":24,"x_max":1192,"o":"m 406 783 l 142 24 q 110 0 133 0 q 77 10 88 0 q 67 33 67 19 q 69 47 67 39 l 383 911 q 390 919 386 919 q 417 919 396 919 q 453 919 439 919 q 428 852 439 888 q 406 783 417 817 m 115 346 q 91 356 101 346 q 81 381 81 367 q 91 406 81 396 q 115 415 101 415 l 571 415 q 596 406 586 415 q 606 381 606 396 q 596 356 606 367 q 571 346 586 346 l 115 346 m 588 0 q 553 50 553 0 l 553 936 q 588 972 553 972 q 622 936 622 972 l 622 36 q 588 0 622 0 m 492 0 q 456 35 456 0 q 492 69 456 69 l 1151 69 q 1188 35 1188 69 q 1151 0 1188 0 l 492 0 m 603 460 q 567 494 567 460 q 603 529 567 529 l 1082 529 q 1118 494 1118 529 q 1082 460 1118 460 l 603 460 m 357 903 q 321 938 321 903 q 357 972 321 972 l 1151 972 q 1180 963 1168 972 q 1192 938 1192 954 q 1180 912 1192 921 q 1151 903 1168 903 l 357 903 m 596 236 q 572 213 596 213 l 176 213 q 153 236 153 213 q 175 261 153 261 l 571 261 q 596 236 596 261 m 24 104 q 33 128 24 119 q 60 138 43 138 l 128 138 q 154 129 144 138 q 164 104 164 119 q 154 78 164 88 q 128 69 144 69 l 60 69 q 33 79 43 69 q 24 104 24 88 m 238 104 q 228 79 238 88 q 201 69 218 69 l 133 69 q 107 78 118 69 q 97 104 97 88 q 107 129 97 119 q 133 138 118 138 l 201 138 q 228 128 218 138 q 238 104 238 119 m 585 801 q 561 778 585 778 l 278 778 q 254 801 254 778 q 276 826 254 826 l 560 826 q 585 801 585 826 m 581 726 q 558 750 558 726 l 558 797 q 564 815 558 810 q 582 821 569 821 q 601 815 596 821 q 606 799 606 811 l 606 751 q 581 726 606 726 m 581 876 q 606 851 606 876 l 606 804 q 601 788 606 792 q 582 782 596 782 q 564 788 569 782 q 558 806 558 793 l 558 853 q 581 876 558 876 m 281 750 q 258 726 281 726 q 233 751 233 726 l 233 799 q 238 815 233 811 q 257 821 243 821 q 275 815 269 821 q 281 797 281 810 l 281 750 m 233 853 q 258 878 233 878 q 281 854 281 878 l 281 807 q 275 789 281 794 q 257 783 269 783 q 238 789 243 783 q 233 806 233 793 l 233 853 m 1028 388 q 1004 397 1013 388 q 994 424 994 407 l 994 492 q 1003 518 994 508 q 1028 528 1013 528 q 1054 518 1044 528 q 1063 492 1063 508 l 1063 424 q 1053 397 1063 407 q 1028 388 1044 388 m 1028 601 q 1053 592 1044 601 q 1063 565 1063 582 l 1063 497 q 1054 471 1063 482 q 1028 461 1044 461 q 1003 471 1013 461 q 994 497 994 482 l 994 565 q 1004 592 994 582 q 1028 601 1013 601 m 747 689 q 752 669 754 679 q 743 654 750 660 l 613 563 q 581 568 594 550 q 585 603 565 590 l 715 694 q 747 689 733 707 m 747 825 q 752 806 754 815 q 743 790 750 796 l 613 699 q 581 704 594 686 q 585 739 565 726 l 715 831 q 747 825 733 843 m 599 414 q 574 439 574 414 l 574 900 q 599 922 574 922 q 622 899 622 922 l 622 438 q 599 414 622 414 m 732 414 q 707 439 707 414 l 707 900 q 732 922 707 922 q 756 899 756 922 l 756 438 q 732 414 756 414 m 747 279 q 752 260 754 269 q 743 244 750 250 l 613 153 q 581 158 594 140 q 585 193 565 181 l 715 285 q 747 279 733 297 m 747 415 q 752 396 754 406 q 743 381 750 386 l 613 289 q 581 294 594 276 q 585 329 565 317 l 715 421 q 747 415 733 433 m 599 4 q 574 29 574 4 l 574 490 q 599 513 574 513 q 622 489 622 513 l 622 28 q 599 4 622 4 m 732 4 q 707 29 707 4 l 707 490 q 732 513 707 513 q 756 489 756 513 l 756 28 q 732 4 756 4 m 324 242 q 289 235 308 222 q 278 249 282 240 q 282 269 275 258 l 357 376 q 390 383 372 396 q 403 368 400 376 q 397 349 406 360 l 324 242 m 439 242 q 404 235 424 222 q 394 249 397 240 q 397 269 390 258 l 472 376 q 506 383 488 396 q 518 368 515 376 q 513 349 521 360 l 439 242 m 479 1126 q 443 1161 443 1126 q 479 1196 443 1196 l 747 1196 q 783 1161 783 1196 q 747 1126 783 1126 l 479 1126 z "},"B":{"ha":929,"x_min":69,"x_max":846,"o":"m 219 0 q 181 39 181 0 l 181 478 l 103 478 q 79 488 89 478 q 69 511 69 497 q 80 536 69 526 q 104 546 90 546 l 181 546 l 181 933 q 219 972 181 972 l 521 972 q 649 941 592 972 q 742 855 707 910 q 776 731 776 800 q 746 604 776 649 q 678 531 715 560 q 763 486 725 521 q 824 401 801 451 q 846 289 846 350 q 811 131 846 196 q 719 33 776 67 q 590 0 661 0 l 219 0 m 257 69 l 575 69 q 635 81 603 69 q 699 119 668 93 q 750 187 731 144 q 769 290 769 229 q 743 384 769 342 q 673 452 717 426 q 575 478 629 478 l 257 478 l 257 69 m 257 546 l 528 546 q 615 573 576 546 q 678 643 654 600 q 701 733 701 686 q 678 819 701 781 q 615 880 654 857 q 528 903 576 903 l 257 903 l 257 546 m 382 689 q 387 669 389 679 q 378 654 385 660 l 247 563 q 215 568 229 550 q 219 603 200 590 l 350 694 q 382 689 368 707 m 382 825 q 387 806 389 815 q 378 790 385 796 l 247 699 q 215 704 229 686 q 219 739 200 726 l 350 831 q 382 825 368 843 m 233 414 q 208 439 208 414 l 208 900 q 233 922 208 922 q 257 899 257 922 l 257 438 q 233 414 257 414 m 367 414 q 342 439 342 414 l 342 900 q 367 922 342 922 q 390 899 390 922 l 390 438 q 367 414 390 414 m 382 279 q 387 260 389 269 q 378 244 385 250 l 247 153 q 215 158 229 140 q 219 193 200 181 l 350 285 q 382 279 368 297 m 382 415 q 387 396 389 406 q 378 381 385 386 l 247 289 q 215 294 229 276 q 219 329 200 317 l 350 421 q 382 415 368 433 m 233 4 q 208 29 208 4 l 208 490 q 233 513 208 513 q 257 489 257 513 l 257 28 q 233 4 257 4 m 367 4 q 342 29 342 4 l 342 490 q 367 513 342 513 q 390 489 390 513 l 390 28 q 367 4 390 4 z "},"Ḃ":{"ha":929,"x_min":69,"x_max":846,"o":"m 219 0 q 181 39 181 0 l 181 478 l 103 478 q 79 488 89 478 q 69 511 69 497 q 80 536 69 526 q 104 546 90 546 l 181 546 l 181 933 q 219 972 181 972 l 521 972 q 649 941 592 972 q 742 855 707 910 q 776 731 776 800 q 746 604 776 649 q 678 531 715 560 q 763 486 725 521 q 824 401 801 451 q 846 289 846 350 q 811 131 846 196 q 719 33 776 67 q 590 0 661 0 l 219 0 m 257 69 l 575 69 q 635 81 603 69 q 699 119 668 93 q 750 187 731 144 q 769 290 769 229 q 743 384 769 342 q 673 452 717 426 q 575 478 629 478 l 257 478 l 257 69 m 257 546 l 528 546 q 615 573 576 546 q 678 643 654 600 q 701 733 701 686 q 678 819 701 781 q 615 880 654 857 q 528 903 576 903 l 257 903 l 257 546 m 382 689 q 387 669 389 679 q 378 654 385 660 l 247 563 q 215 568 229 550 q 219 603 200 590 l 350 694 q 382 689 368 707 m 382 825 q 387 806 389 815 q 378 790 385 796 l 247 699 q 215 704 229 686 q 219 739 200 726 l 350 831 q 382 825 368 843 m 233 414 q 208 439 208 414 l 208 900 q 233 922 208 922 q 257 899 257 922 l 257 438 q 233 414 257 414 m 367 414 q 342 439 342 414 l 342 900 q 367 922 342 922 q 390 899 390 922 l 390 438 q 367 414 390 414 m 382 279 q 387 260 389 269 q 378 244 385 250 l 247 153 q 215 158 229 140 q 219 193 200 181 l 350 285 q 382 279 368 297 m 382 415 q 387 396 389 406 q 378 381 385 386 l 247 289 q 215 294 229 276 q 219 329 200 317 l 350 421 q 382 415 368 433 m 233 4 q 208 29 208 4 l 208 490 q 233 513 208 513 q 257 489 257 513 l 257 28 q 233 4 257 4 m 367 4 q 342 29 342 4 l 342 490 q 367 513 342 513 q 390 489 390 513 l 390 28 q 367 4 390 4 m 465 1078 q 428 1093 443 1078 q 414 1131 414 1108 q 428 1167 414 1151 q 465 1182 443 1182 q 503 1167 488 1182 q 518 1131 518 1151 q 503 1093 518 1108 q 465 1078 488 1078 z "},"Ḅ":{"ha":929,"x_min":69,"x_max":846,"o":"m 219 0 q 181 39 181 0 l 181 478 l 103 478 q 79 488 89 478 q 69 511 69 497 q 80 536 69 526 q 104 546 90 546 l 181 546 l 181 933 q 219 972 181 972 l 521 972 q 649 941 592 972 q 742 855 707 910 q 776 731 776 800 q 746 604 776 649 q 678 531 715 560 q 763 486 725 521 q 824 401 801 451 q 846 289 846 350 q 811 131 846 196 q 719 33 776 67 q 590 0 661 0 l 219 0 m 257 69 l 575 69 q 635 81 603 69 q 699 119 668 93 q 750 187 731 144 q 769 290 769 229 q 743 384 769 342 q 673 452 717 426 q 575 478 629 478 l 257 478 l 257 69 m 257 546 l 528 546 q 615 573 576 546 q 678 643 654 600 q 701 733 701 686 q 678 819 701 781 q 615 880 654 857 q 528 903 576 903 l 257 903 l 257 546 m 382 689 q 387 669 389 679 q 378 654 385 660 l 247 563 q 215 568 229 550 q 219 603 200 590 l 350 694 q 382 689 368 707 m 382 825 q 387 806 389 815 q 378 790 385 796 l 247 699 q 215 704 229 686 q 219 739 200 726 l 350 831 q 382 825 368 843 m 233 414 q 208 439 208 414 l 208 900 q 233 922 208 922 q 257 899 257 922 l 257 438 q 233 414 257 414 m 367 414 q 342 439 342 414 l 342 900 q 367 922 342 922 q 390 899 390 922 l 390 438 q 367 414 390 414 m 382 279 q 387 260 389 269 q 378 244 385 250 l 247 153 q 215 158 229 140 q 219 193 200 181 l 350 285 q 382 279 368 297 m 382 415 q 387 396 389 406 q 378 381 385 386 l 247 289 q 215 294 229 276 q 219 329 200 317 l 350 421 q 382 415 368 433 m 233 4 q 208 29 208 4 l 208 490 q 233 513 208 513 q 257 489 257 513 l 257 28 q 233 4 257 4 m 367 4 q 342 29 342 4 l 342 490 q 367 513 342 513 q 390 489 390 513 l 390 28 q 367 4 390 4 m 464 -211 q 427 -196 442 -211 q 413 -158 413 -181 q 427 -122 413 -137 q 464 -107 442 -107 q 501 -122 486 -107 q 517 -158 517 -137 q 501 -196 517 -181 q 464 -211 486 -211 z "},"Ꞵ":{"ha":929,"x_min":69,"x_max":846,"o":"m 219 0 q 181 39 181 0 l 181 478 l 103 478 q 79 488 89 478 q 69 511 69 497 q 80 536 69 526 q 104 546 90 546 l 181 546 l 181 933 q 219 972 181 972 l 521 972 q 649 941 592 972 q 742 855 707 910 q 776 731 776 800 q 746 604 776 649 q 678 531 715 560 q 763 486 725 521 q 824 401 801 451 q 846 289 846 350 q 811 131 846 196 q 719 33 776 67 q 590 0 661 0 l 219 0 m 257 69 l 575 69 q 635 81 603 69 q 699 119 668 93 q 750 187 731 144 q 769 290 769 229 q 743 384 769 342 q 673 452 717 426 q 575 478 629 478 l 257 478 l 257 69 m 257 546 l 528 546 q 615 573 576 546 q 678 643 654 600 q 701 733 701 686 q 678 819 701 781 q 615 880 654 857 q 528 903 576 903 l 257 903 l 257 546 m 382 689 q 387 669 389 679 q 378 654 385 660 l 247 563 q 215 568 229 550 q 219 603 200 590 l 350 694 q 382 689 368 707 m 382 825 q 387 806 389 815 q 378 790 385 796 l 247 699 q 215 704 229 686 q 219 739 200 726 l 350 831 q 382 825 368 843 m 233 414 q 208 439 208 414 l 208 900 q 233 922 208 922 q 257 899 257 922 l 257 438 q 233 414 257 414 m 367 414 q 342 439 342 414 l 342 900 q 367 922 342 922 q 390 899 390 922 l 390 438 q 367 414 390 414 m 382 279 q 387 260 389 269 q 378 244 385 250 l 247 153 q 215 158 229 140 q 219 193 200 181 l 350 285 q 382 279 368 297 m 382 415 q 387 396 389 406 q 378 381 385 386 l 247 289 q 215 294 229 276 q 219 329 200 317 l 350 421 q 382 415 368 433 m 233 4 q 208 29 208 4 l 208 490 q 233 513 208 513 q 257 489 257 513 l 257 28 q 233 4 257 4 m 367 4 q 342 29 342 4 l 342 490 q 367 513 342 513 q 390 489 390 513 l 390 28 q 367 4 390 4 m 218 -269 q 181 -231 181 -269 q 181 -114 181 -156 q 181 -53 181 -72 q 181 -24 181 -33 q 181 -7 181 -15 q 181 21 181 1 q 181 82 181 40 q 190 108 181 97 q 218 118 200 118 q 257 82 257 118 l 257 -231 q 247 -258 257 -247 q 218 -269 238 -269 z "},"Ɓ":{"ha":929,"x_min":11,"x_max":846,"o":"m 336 903 l 218 903 q 154 894 185 903 q 104 862 124 885 q 85 797 85 839 q 86 781 85 792 q 88 761 88 769 q 80 741 88 750 q 57 732 72 732 q 18 755 25 732 q 11 801 11 778 q 40 902 11 865 q 117 956 68 939 q 225 972 165 972 l 336 972 l 336 903 m 219 0 q 181 39 181 0 l 181 478 l 103 478 q 79 488 89 478 q 69 511 69 497 q 80 536 69 526 q 104 546 90 546 l 181 546 l 181 933 q 219 972 181 972 l 521 972 q 649 941 592 972 q 742 855 707 910 q 776 731 776 800 q 746 604 776 649 q 678 531 715 560 q 763 486 725 521 q 824 401 801 451 q 846 289 846 350 q 811 131 846 196 q 719 33 776 67 q 590 0 661 0 l 219 0 m 257 69 l 575 69 q 635 81 603 69 q 699 119 668 93 q 750 187 731 144 q 769 290 769 229 q 743 384 769 342 q 673 452 717 426 q 575 478 629 478 l 257 478 l 257 69 m 257 546 l 528 546 q 615 573 576 546 q 678 643 654 600 q 701 733 701 686 q 678 819 701 781 q 615 880 654 857 q 528 903 576 903 l 257 903 l 257 546 m 382 689 q 387 669 389 679 q 378 654 385 660 l 247 563 q 215 568 229 550 q 219 603 200 590 l 350 694 q 382 689 368 707 m 382 825 q 387 806 389 815 q 378 790 385 796 l 247 699 q 215 704 229 686 q 219 739 200 726 l 350 831 q 382 825 368 843 m 233 414 q 208 439 208 414 l 208 900 q 233 922 208 922 q 257 899 257 922 l 257 438 q 233 414 257 414 m 367 414 q 342 439 342 414 l 342 900 q 367 922 342 922 q 390 899 390 922 l 390 438 q 367 414 390 414 m 382 279 q 387 260 389 269 q 378 244 385 250 l 247 153 q 215 158 229 140 q 219 193 200 181 l 350 285 q 382 279 368 297 m 382 415 q 387 396 389 406 q 378 381 385 386 l 247 289 q 215 294 229 276 q 219 329 200 317 l 350 421 q 382 415 368 433 m 233 4 q 208 29 208 4 l 208 490 q 233 513 208 513 q 257 489 257 513 l 257 28 q 233 4 257 4 m 367 4 q 342 29 342 4 l 342 490 q 367 513 342 513 q 390 489 390 513 l 390 28 q 367 4 390 4 z "},"Ḇ":{"ha":929,"x_min":69,"x_max":846,"o":"m 219 0 q 181 39 181 0 l 181 478 l 103 478 q 79 488 89 478 q 69 511 69 497 q 80 536 69 526 q 104 546 90 546 l 181 546 l 181 933 q 219 972 181 972 l 521 972 q 649 941 592 972 q 742 855 707 910 q 776 731 776 800 q 746 604 776 649 q 678 531 715 560 q 763 486 725 521 q 824 401 801 451 q 846 289 846 350 q 811 131 846 196 q 719 33 776 67 q 590 0 661 0 l 219 0 m 257 69 l 575 69 q 635 81 603 69 q 699 119 668 93 q 750 187 731 144 q 769 290 769 229 q 743 384 769 342 q 673 452 717 426 q 575 478 629 478 l 257 478 l 257 69 m 257 546 l 528 546 q 615 573 576 546 q 678 643 654 600 q 701 733 701 686 q 678 819 701 781 q 615 880 654 857 q 528 903 576 903 l 257 903 l 257 546 m 382 689 q 387 669 389 679 q 378 654 385 660 l 247 563 q 215 568 229 550 q 219 603 200 590 l 350 694 q 382 689 368 707 m 382 825 q 387 806 389 815 q 378 790 385 796 l 247 699 q 215 704 229 686 q 219 739 200 726 l 350 831 q 382 825 368 843 m 233 414 q 208 439 208 414 l 208 900 q 233 922 208 922 q 257 899 257 922 l 257 438 q 233 414 257 414 m 367 414 q 342 439 342 414 l 342 900 q 367 922 342 922 q 390 899 390 922 l 390 438 q 367 414 390 414 m 382 279 q 387 260 389 269 q 378 244 385 250 l 247 153 q 215 158 229 140 q 219 193 200 181 l 350 285 q 382 279 368 297 m 382 415 q 387 396 389 406 q 378 381 385 386 l 247 289 q 215 294 229 276 q 219 329 200 317 l 350 421 q 382 415 368 433 m 233 4 q 208 29 208 4 l 208 490 q 233 513 208 513 q 257 489 257 513 l 257 28 q 233 4 257 4 m 367 4 q 342 29 342 4 l 342 490 q 367 513 342 513 q 390 489 390 513 l 390 28 q 367 4 390 4 m 331 -172 q 294 -137 294 -172 q 331 -103 294 -103 l 599 -103 q 635 -137 635 -103 q 599 -172 635 -172 l 331 -172 z "},"Ƀ":{"ha":929,"x_min":64,"x_max":846,"o":"m 219 0 q 181 39 181 0 l 181 478 l 103 478 q 79 488 89 478 q 69 511 69 497 q 80 536 69 526 q 104 546 90 546 l 181 546 l 181 933 q 219 972 181 972 l 521 972 q 649 941 592 972 q 742 855 707 910 q 776 731 776 800 q 746 604 776 649 q 678 531 715 560 q 763 486 725 521 q 824 401 801 451 q 846 289 846 350 q 811 131 846 196 q 719 33 776 67 q 590 0 661 0 l 219 0 m 257 69 l 575 69 q 635 81 603 69 q 699 119 668 93 q 750 187 731 144 q 769 290 769 229 q 743 384 769 342 q 673 452 717 426 q 575 478 629 478 l 257 478 l 257 69 m 257 546 l 528 546 q 615 573 576 546 q 678 643 654 600 q 701 733 701 686 q 678 819 701 781 q 615 880 654 857 q 528 903 576 903 l 257 903 l 257 546 m 240 283 q 201 246 240 246 q 140 246 171 246 q 100 246 108 246 q 74 256 85 246 q 64 283 64 265 q 100 322 64 322 l 201 322 q 229 313 218 322 q 240 283 240 303 m 451 283 q 413 246 451 246 q 397 246 406 246 q 383 246 388 246 q 358 256 368 246 q 347 283 347 265 q 383 322 347 322 l 413 322 q 440 313 429 322 q 451 283 451 303 m 382 689 q 387 669 389 679 q 378 654 385 660 l 247 563 q 215 568 229 550 q 219 603 200 590 l 350 694 q 382 689 368 707 m 382 825 q 387 806 389 815 q 378 790 385 796 l 247 699 q 215 704 229 686 q 219 739 200 726 l 350 831 q 382 825 368 843 m 233 414 q 208 439 208 414 l 208 900 q 233 922 208 922 q 257 899 257 922 l 257 438 q 233 414 257 414 m 367 414 q 342 439 342 414 l 342 900 q 367 922 342 922 q 390 899 390 922 l 390 438 q 367 414 390 414 m 382 279 q 387 260 389 269 q 378 244 385 250 l 247 153 q 215 158 229 140 q 219 193 200 181 l 350 285 q 382 279 368 297 m 382 415 q 387 396 389 406 q 378 381 385 386 l 247 289 q 215 294 229 276 q 219 329 200 317 l 350 421 q 382 415 368 433 m 233 4 q 208 29 208 4 l 208 490 q 233 513 208 513 q 257 489 257 513 l 257 28 q 233 4 257 4 m 367 4 q 342 29 342 4 l 342 490 q 367 513 342 513 q 390 489 390 513 l 390 28 q 367 4 390 4 z "},"C":{"ha":988,"x_min":81,"x_max":907,"o":"m 526 -14 q 352 28 433 -14 q 210 140 271 69 q 115 301 149 211 q 81 488 81 390 q 117 703 81 610 q 216 859 153 796 q 359 954 279 922 q 526 986 439 986 q 703 960 617 986 q 858 878 789 933 q 876 844 876 864 q 864 817 876 828 q 840 807 851 807 q 810 818 822 807 q 676 892 750 868 q 526 917 601 917 q 347 866 431 917 q 210 719 263 815 q 157 488 157 624 q 186 330 157 407 q 266 191 215 253 q 383 92 317 129 q 526 56 450 56 q 688 89 610 56 q 825 182 765 122 q 857 196 839 196 q 882 188 872 196 q 894 161 894 179 q 879 131 894 146 q 719 24 811 63 q 526 -14 626 -14 m 849 49 q 824 60 835 49 q 814 85 814 71 q 815 88 814 86 q 815 92 815 90 l 838 221 q 850 240 840 232 q 874 249 860 249 q 877 248 875 249 q 881 247 879 247 q 899 236 892 246 q 907 214 907 226 q 906 211 907 213 q 906 207 906 210 l 882 76 q 853 49 878 53 q 851 49 851 49 q 849 49 850 49 m 854 743 q 831 752 840 743 q 819 772 822 761 q 803 867 808 839 q 797 903 797 896 q 796 910 796 910 q 806 933 796 924 q 829 943 815 943 q 852 935 842 943 q 864 914 863 926 q 881 819 876 847 q 887 784 886 790 q 888 776 888 778 q 877 753 888 763 q 854 743 867 743 m 556 25 q 406 117 474 57 q 299 269 339 176 q 260 488 260 361 q 299 708 260 615 q 407 860 339 800 q 557 951 475 921 l 614 908 q 506 883 560 911 q 407 800 451 854 q 335 667 363 746 q 308 488 308 588 q 335 315 308 392 q 407 183 363 238 q 505 99 451 128 q 611 69 558 69 q 625 69 618 69 q 638 71 632 69 l 556 25 m 158 601 q 133 625 133 601 q 138 642 133 633 q 157 650 143 650 l 288 650 q 313 626 313 650 q 307 609 313 617 q 289 601 301 601 l 158 601 m 150 460 q 125 483 125 460 q 130 500 125 492 q 149 508 135 508 l 279 508 q 304 485 304 508 q 299 467 304 475 q 281 460 293 460 l 150 460 m 160 325 q 135 349 135 325 q 140 365 135 357 q 158 374 144 374 l 289 374 q 314 350 314 374 q 308 333 314 340 q 290 325 303 325 l 160 325 z "},"Ć":{"ha":988,"x_min":81,"x_max":907,"o":"m 526 -14 q 352 28 433 -14 q 210 140 271 69 q 115 301 149 211 q 81 488 81 390 q 117 703 81 610 q 216 859 153 796 q 359 954 279 922 q 526 986 439 986 q 703 960 617 986 q 858 878 789 933 q 876 844 876 864 q 864 817 876 828 q 840 807 851 807 q 810 818 822 807 q 676 892 750 868 q 526 917 601 917 q 347 866 431 917 q 210 719 263 815 q 157 488 157 624 q 186 330 157 407 q 266 191 215 253 q 383 92 317 129 q 526 56 450 56 q 688 89 610 56 q 825 182 765 122 q 857 196 839 196 q 882 188 872 196 q 894 161 894 179 q 879 131 894 146 q 719 24 811 63 q 526 -14 626 -14 m 849 49 q 824 60 835 49 q 814 85 814 71 q 815 88 814 86 q 815 92 815 90 l 838 221 q 850 240 840 232 q 874 249 860 249 q 877 248 875 249 q 881 247 879 247 q 899 236 892 246 q 907 214 907 226 q 906 211 907 213 q 906 207 906 210 l 882 76 q 853 49 878 53 q 851 49 851 49 q 849 49 850 49 m 854 743 q 831 752 840 743 q 819 772 822 761 q 803 867 808 839 q 797 903 797 896 q 796 910 796 910 q 806 933 796 924 q 829 943 815 943 q 852 935 842 943 q 864 914 863 926 q 881 819 876 847 q 887 784 886 790 q 888 776 888 778 q 877 753 888 763 q 854 743 867 743 m 556 25 q 406 117 474 57 q 299 269 339 176 q 260 488 260 361 q 299 708 260 615 q 407 860 339 800 q 557 951 475 921 l 614 908 q 506 883 560 911 q 407 800 451 854 q 335 667 363 746 q 308 488 308 588 q 335 315 308 392 q 407 183 363 238 q 505 99 451 128 q 611 69 558 69 q 625 69 618 69 q 638 71 632 69 l 556 25 m 158 601 q 133 625 133 601 q 138 642 133 633 q 157 650 143 650 l 288 650 q 313 626 313 650 q 307 609 313 617 q 289 601 301 601 l 158 601 m 150 460 q 125 483 125 460 q 130 500 125 492 q 149 508 135 508 l 279 508 q 304 485 304 508 q 299 467 304 475 q 281 460 293 460 l 150 460 m 160 325 q 135 349 135 325 q 140 365 135 357 q 158 374 144 374 l 289 374 q 314 350 314 374 q 308 333 314 340 q 290 325 303 325 l 160 325 m 467 1075 q 446 1067 458 1067 q 421 1078 432 1067 q 408 1103 408 1090 q 418 1124 408 1114 l 567 1272 q 592 1285 579 1285 q 617 1272 604 1285 q 628 1247 628 1261 q 615 1222 628 1235 l 467 1075 z "},"Č":{"ha":988,"x_min":81,"x_max":907,"o":"m 526 -14 q 352 28 433 -14 q 210 140 271 69 q 115 301 149 211 q 81 488 81 390 q 117 703 81 610 q 216 859 153 796 q 359 954 279 922 q 526 986 439 986 q 703 960 617 986 q 858 878 789 933 q 876 844 876 864 q 864 817 876 828 q 840 807 851 807 q 810 818 822 807 q 676 892 750 868 q 526 917 601 917 q 347 866 431 917 q 210 719 263 815 q 157 488 157 624 q 186 330 157 407 q 266 191 215 253 q 383 92 317 129 q 526 56 450 56 q 688 89 610 56 q 825 182 765 122 q 857 196 839 196 q 882 188 872 196 q 894 161 894 179 q 879 131 894 146 q 719 24 811 63 q 526 -14 626 -14 m 849 49 q 824 60 835 49 q 814 85 814 71 q 815 88 814 86 q 815 92 815 90 l 838 221 q 850 240 840 232 q 874 249 860 249 q 877 248 875 249 q 881 247 879 247 q 899 236 892 246 q 907 214 907 226 q 906 211 907 213 q 906 207 906 210 l 882 76 q 853 49 878 53 q 851 49 851 49 q 849 49 850 49 m 854 743 q 831 752 840 743 q 819 772 822 761 q 803 867 808 839 q 797 903 797 896 q 796 910 796 910 q 806 933 796 924 q 829 943 815 943 q 852 935 842 943 q 864 914 863 926 q 881 819 876 847 q 887 784 886 790 q 888 776 888 778 q 877 753 888 763 q 854 743 867 743 m 556 25 q 406 117 474 57 q 299 269 339 176 q 260 488 260 361 q 299 708 260 615 q 407 860 339 800 q 557 951 475 921 l 614 908 q 506 883 560 911 q 407 800 451 854 q 335 667 363 746 q 308 488 308 588 q 335 315 308 392 q 407 183 363 238 q 505 99 451 128 q 611 69 558 69 q 625 69 618 69 q 638 71 632 69 l 556 25 m 158 601 q 133 625 133 601 q 138 642 133 633 q 157 650 143 650 l 288 650 q 313 626 313 650 q 307 609 313 617 q 289 601 301 601 l 158 601 m 150 460 q 125 483 125 460 q 130 500 125 492 q 149 508 135 508 l 279 508 q 304 485 304 508 q 299 467 304 475 q 281 460 293 460 l 150 460 m 160 325 q 135 349 135 325 q 140 365 135 357 q 158 374 144 374 l 289 374 q 314 350 314 374 q 308 333 314 340 q 290 325 303 325 l 160 325 m 369 1276 l 494 1153 l 619 1276 q 640 1285 628 1285 q 665 1274 654 1285 q 678 1249 678 1261 q 668 1228 678 1238 l 519 1079 q 494 1067 507 1067 q 469 1079 482 1067 l 321 1228 q 311 1249 311 1238 q 324 1274 311 1261 q 349 1285 335 1285 q 369 1276 361 1285 z "},"Ç":{"ha":988,"x_min":81,"x_max":907,"o":"m 526 -14 q 352 28 433 -14 q 210 140 271 69 q 115 301 149 211 q 81 488 81 390 q 117 703 81 610 q 216 859 153 796 q 359 954 279 922 q 526 986 439 986 q 703 960 617 986 q 858 878 789 933 q 876 844 876 864 q 864 817 876 828 q 840 807 851 807 q 810 818 822 807 q 676 892 750 868 q 526 917 601 917 q 347 866 431 917 q 210 719 263 815 q 157 488 157 624 q 186 330 157 407 q 266 191 215 253 q 383 92 317 129 q 526 56 450 56 q 688 89 610 56 q 825 182 765 122 q 857 196 839 196 q 882 188 872 196 q 894 161 894 179 q 879 131 894 146 q 719 24 811 63 q 526 -14 626 -14 m 849 49 q 824 60 835 49 q 814 85 814 71 q 815 88 814 86 q 815 92 815 90 l 838 221 q 850 240 840 232 q 874 249 860 249 q 877 248 875 249 q 881 247 879 247 q 899 236 892 246 q 907 214 907 226 q 906 211 907 213 q 906 207 906 210 l 882 76 q 853 49 878 53 q 851 49 851 49 q 849 49 850 49 m 854 743 q 831 752 840 743 q 819 772 822 761 q 803 867 808 839 q 797 903 797 896 q 796 910 796 910 q 806 933 796 924 q 829 943 815 943 q 852 935 842 943 q 864 914 863 926 q 881 819 876 847 q 887 784 886 790 q 888 776 888 778 q 877 753 888 763 q 854 743 867 743 m 556 25 q 406 117 474 57 q 299 269 339 176 q 260 488 260 361 q 299 708 260 615 q 407 860 339 800 q 557 951 475 921 l 614 908 q 506 883 560 911 q 407 800 451 854 q 335 667 363 746 q 308 488 308 588 q 335 315 308 392 q 407 183 363 238 q 505 99 451 128 q 611 69 558 69 q 625 69 618 69 q 638 71 632 69 l 556 25 m 158 601 q 133 625 133 601 q 138 642 133 633 q 157 650 143 650 l 288 650 q 313 626 313 650 q 307 609 313 617 q 289 601 301 601 l 158 601 m 150 460 q 125 483 125 460 q 130 500 125 492 q 149 508 135 508 l 279 508 q 304 485 304 508 q 299 467 304 475 q 281 460 293 460 l 150 460 m 160 325 q 135 349 135 325 q 140 365 135 357 q 158 374 144 374 l 289 374 q 314 350 314 374 q 308 333 314 340 q 290 325 303 325 l 160 325 m 494 26 q 519 17 510 26 q 528 -7 528 8 q 528 -10 528 -8 q 528 -15 528 -12 l 515 -92 l 564 -89 q 568 -89 567 -89 q 571 -89 569 -89 q 655 -126 615 -89 q 694 -244 694 -162 q 672 -328 694 -294 q 615 -378 650 -361 q 542 -396 581 -396 q 490 -386 518 -396 q 422 -350 463 -376 q 406 -319 406 -339 q 410 -304 406 -310 q 433 -289 418 -289 q 457 -297 444 -289 q 502 -319 479 -312 q 542 -326 525 -326 q 602 -299 586 -326 q 618 -244 618 -271 q 612 -207 618 -226 q 589 -173 606 -187 q 540 -158 572 -158 q 513 -159 528 -158 q 481 -165 499 -160 q 468 -167 476 -167 q 442 -143 442 -167 q 442 -140 442 -142 q 442 -137 442 -139 l 456 -11 q 494 26 460 26 z "},"Ḉ":{"ha":988,"x_min":81,"x_max":907,"o":"m 526 -14 q 352 28 433 -14 q 210 140 271 69 q 115 301 149 211 q 81 488 81 390 q 117 703 81 610 q 216 859 153 796 q 359 954 279 922 q 526 986 439 986 q 703 960 617 986 q 858 878 789 933 q 876 844 876 864 q 864 817 876 828 q 840 807 851 807 q 810 818 822 807 q 676 892 750 868 q 526 917 601 917 q 347 866 431 917 q 210 719 263 815 q 157 488 157 624 q 186 330 157 407 q 266 191 215 253 q 383 92 317 129 q 526 56 450 56 q 688 89 610 56 q 825 182 765 122 q 857 196 839 196 q 882 188 872 196 q 894 161 894 179 q 879 131 894 146 q 719 24 811 63 q 526 -14 626 -14 m 849 49 q 824 60 835 49 q 814 85 814 71 q 815 88 814 86 q 815 92 815 90 l 838 221 q 850 240 840 232 q 874 249 860 249 q 877 248 875 249 q 881 247 879 247 q 899 236 892 246 q 907 214 907 226 q 906 211 907 213 q 906 207 906 210 l 882 76 q 853 49 878 53 q 851 49 851 49 q 849 49 850 49 m 854 743 q 831 752 840 743 q 819 772 822 761 q 803 867 808 839 q 797 903 797 896 q 796 910 796 910 q 806 933 796 924 q 829 943 815 943 q 852 935 842 943 q 864 914 863 926 q 881 819 876 847 q 887 784 886 790 q 888 776 888 778 q 877 753 888 763 q 854 743 867 743 m 556 25 q 406 117 474 57 q 299 269 339 176 q 260 488 260 361 q 299 708 260 615 q 407 860 339 800 q 557 951 475 921 l 614 908 q 506 883 560 911 q 407 800 451 854 q 335 667 363 746 q 308 488 308 588 q 335 315 308 392 q 407 183 363 238 q 505 99 451 128 q 611 69 558 69 q 625 69 618 69 q 638 71 632 69 l 556 25 m 158 601 q 133 625 133 601 q 138 642 133 633 q 157 650 143 650 l 288 650 q 313 626 313 650 q 307 609 313 617 q 289 601 301 601 l 158 601 m 150 460 q 125 483 125 460 q 130 500 125 492 q 149 508 135 508 l 279 508 q 304 485 304 508 q 299 467 304 475 q 281 460 293 460 l 150 460 m 160 325 q 135 349 135 325 q 140 365 135 357 q 158 374 144 374 l 289 374 q 314 350 314 374 q 308 333 314 340 q 290 325 303 325 l 160 325 m 494 26 q 519 17 510 26 q 528 -7 528 8 q 528 -10 528 -8 q 528 -15 528 -12 l 515 -92 l 564 -89 q 568 -89 567 -89 q 571 -89 569 -89 q 655 -126 615 -89 q 694 -244 694 -162 q 672 -328 694 -294 q 615 -378 650 -361 q 542 -396 581 -396 q 490 -386 518 -396 q 422 -350 463 -376 q 406 -319 406 -339 q 410 -304 406 -310 q 433 -289 418 -289 q 457 -297 444 -289 q 502 -319 479 -312 q 542 -326 525 -326 q 602 -299 586 -326 q 618 -244 618 -271 q 612 -207 618 -226 q 589 -173 606 -187 q 540 -158 572 -158 q 513 -159 528 -158 q 481 -165 499 -160 q 468 -167 476 -167 q 442 -143 442 -167 q 442 -140 442 -142 q 442 -137 442 -139 l 456 -11 q 494 26 460 26 m 467 1075 q 446 1067 458 1067 q 421 1078 432 1067 q 408 1103 408 1090 q 418 1124 408 1114 l 567 1272 q 592 1285 579 1285 q 617 1272 604 1285 q 628 1247 628 1261 q 615 1222 628 1235 l 467 1075 z "},"Ċ":{"ha":988,"x_min":81,"x_max":907,"o":"m 526 -14 q 352 28 433 -14 q 210 140 271 69 q 115 301 149 211 q 81 488 81 390 q 117 703 81 610 q 216 859 153 796 q 359 954 279 922 q 526 986 439 986 q 703 960 617 986 q 858 878 789 933 q 876 844 876 864 q 864 817 876 828 q 840 807 851 807 q 810 818 822 807 q 676 892 750 868 q 526 917 601 917 q 347 866 431 917 q 210 719 263 815 q 157 488 157 624 q 186 330 157 407 q 266 191 215 253 q 383 92 317 129 q 526 56 450 56 q 688 89 610 56 q 825 182 765 122 q 857 196 839 196 q 882 188 872 196 q 894 161 894 179 q 879 131 894 146 q 719 24 811 63 q 526 -14 626 -14 m 849 49 q 824 60 835 49 q 814 85 814 71 q 815 88 814 86 q 815 92 815 90 l 838 221 q 850 240 840 232 q 874 249 860 249 q 877 248 875 249 q 881 247 879 247 q 899 236 892 246 q 907 214 907 226 q 906 211 907 213 q 906 207 906 210 l 882 76 q 853 49 878 53 q 851 49 851 49 q 849 49 850 49 m 854 743 q 831 752 840 743 q 819 772 822 761 q 803 867 808 839 q 797 903 797 896 q 796 910 796 910 q 806 933 796 924 q 829 943 815 943 q 852 935 842 943 q 864 914 863 926 q 881 819 876 847 q 887 784 886 790 q 888 776 888 778 q 877 753 888 763 q 854 743 867 743 m 556 25 q 406 117 474 57 q 299 269 339 176 q 260 488 260 361 q 299 708 260 615 q 407 860 339 800 q 557 951 475 921 l 614 908 q 506 883 560 911 q 407 800 451 854 q 335 667 363 746 q 308 488 308 588 q 335 315 308 392 q 407 183 363 238 q 505 99 451 128 q 611 69 558 69 q 625 69 618 69 q 638 71 632 69 l 556 25 m 158 601 q 133 625 133 601 q 138 642 133 633 q 157 650 143 650 l 288 650 q 313 626 313 650 q 307 609 313 617 q 289 601 301 601 l 158 601 m 150 460 q 125 483 125 460 q 130 500 125 492 q 149 508 135 508 l 279 508 q 304 485 304 508 q 299 467 304 475 q 281 460 293 460 l 150 460 m 160 325 q 135 349 135 325 q 140 365 135 357 q 158 374 144 374 l 289 374 q 314 350 314 374 q 308 333 314 340 q 290 325 303 325 l 160 325 m 494 1078 q 458 1093 472 1078 q 443 1131 443 1108 q 458 1167 443 1151 q 494 1182 472 1182 q 532 1167 517 1182 q 547 1131 547 1151 q 532 1093 547 1108 q 494 1078 517 1078 z "},"Ꭓ":{"ha":854,"x_min":68,"x_max":786,"o":"m 104 0 q 85 7 96 0 q 68 32 68 18 q 76 56 68 43 l 381 490 q 225 715 301 606 q 85 913 149 824 q 76 935 76 925 q 94 964 76 951 q 119 972 110 972 q 144 958 135 972 l 433 546 q 585 763 511 657 q 719 954 660 869 q 747 972 733 972 q 768 965 760 972 q 786 936 786 953 q 779 918 786 928 l 476 485 l 772 63 q 781 39 781 53 q 763 8 781 21 q 739 0 750 0 q 713 15 724 0 q 577 210 653 103 q 424 429 501 318 l 136 18 q 104 0 122 0 m 333 592 q 328 624 314 604 l 563 960 q 596 965 575 979 q 604 932 617 951 l 368 597 q 333 592 353 578 m 256 6 q 250 38 236 19 l 493 382 q 526 388 506 401 q 533 354 546 374 l 292 11 q 256 6 276 -10 m 772 947 q 749 924 772 924 l 588 924 q 561 947 561 924 q 586 972 561 972 l 747 972 q 772 947 772 972 m 81 26 q 104 50 81 50 l 269 50 q 293 25 293 50 q 271 0 293 0 q 188 0 238 0 q 104 0 138 0 q 88 7 94 0 q 81 26 81 14 m 694 828 q 671 804 694 804 l 510 804 q 483 828 483 804 q 508 853 483 853 l 669 853 q 694 828 694 853 m 385 164 q 361 140 385 140 l 200 140 q 174 164 174 140 q 199 189 174 189 l 360 189 q 385 164 385 189 m 588 6 q 551 11 567 -10 l 310 354 q 317 388 297 374 q 350 382 338 401 l 593 38 q 588 6 607 19 m 763 26 q 756 7 763 14 q 739 0 749 0 q 656 0 706 0 q 572 0 606 0 q 550 25 550 0 q 574 50 550 50 l 739 50 q 763 26 763 50 m 458 164 q 483 189 458 189 l 644 189 q 669 164 669 189 q 643 140 669 140 l 482 140 q 458 164 458 140 m 533 592 q 499 597 514 578 l 263 932 q 271 965 250 951 q 304 960 292 979 l 539 624 q 533 592 553 604 m 94 947 q 119 972 94 972 l 281 972 q 306 947 306 972 q 279 924 306 924 l 118 924 q 94 947 94 924 m 172 828 q 197 853 172 853 l 358 853 q 383 828 383 853 q 357 804 383 804 l 196 804 q 172 828 172 804 z "},"Ƈ":{"ha":988,"x_min":81,"x_max":1036,"o":"m 865 868 l 796 868 l 796 953 q 813 1062 796 1014 q 867 1138 829 1110 q 967 1167 904 1167 q 1013 1160 990 1167 q 1036 1121 1036 1153 q 1027 1099 1036 1107 q 1007 1090 1018 1090 q 988 1092 999 1090 q 971 1093 976 1093 q 906 1074 929 1093 q 874 1024 883 1054 q 865 960 865 993 l 865 868 m 526 -14 q 352 28 433 -14 q 210 140 271 69 q 115 301 149 211 q 81 488 81 390 q 117 703 81 610 q 216 859 153 796 q 359 954 279 922 q 526 986 439 986 q 703 960 617 986 q 858 878 789 933 q 876 844 876 864 q 864 817 876 828 q 840 807 851 807 q 810 818 822 807 q 676 892 750 868 q 526 917 601 917 q 347 866 431 917 q 210 719 263 815 q 157 488 157 624 q 186 330 157 407 q 266 191 215 253 q 383 92 317 129 q 526 56 450 56 q 688 89 610 56 q 825 182 765 122 q 857 196 839 196 q 882 188 872 196 q 894 161 894 179 q 879 131 894 146 q 719 24 811 63 q 526 -14 626 -14 m 849 49 q 824 60 835 49 q 814 85 814 71 q 815 88 814 86 q 815 92 815 90 l 838 221 q 850 240 840 232 q 874 249 860 249 q 877 248 875 249 q 881 247 879 247 q 899 236 892 246 q 907 214 907 226 q 906 211 907 213 q 906 207 906 210 l 882 76 q 853 49 878 53 q 851 49 851 49 q 849 49 850 49 m 854 743 q 831 752 840 743 q 819 772 822 761 q 803 867 808 839 q 797 903 797 896 q 796 910 796 910 q 806 933 796 924 q 829 943 815 943 q 852 935 842 943 q 864 914 863 926 q 881 819 876 847 q 887 784 886 790 q 888 776 888 778 q 877 753 888 763 q 854 743 867 743 m 556 25 q 406 117 474 57 q 299 269 339 176 q 260 488 260 361 q 299 708 260 615 q 407 860 339 800 q 557 951 475 921 l 614 908 q 506 883 560 911 q 407 800 451 854 q 335 667 363 746 q 308 488 308 588 q 335 315 308 392 q 407 183 363 238 q 505 99 451 128 q 611 69 558 69 q 625 69 618 69 q 638 71 632 69 l 556 25 m 158 601 q 133 625 133 601 q 138 642 133 633 q 157 650 143 650 l 288 650 q 313 626 313 650 q 307 609 313 617 q 289 601 301 601 l 158 601 m 150 460 q 125 483 125 460 q 130 500 125 492 q 149 508 135 508 l 279 508 q 304 485 304 508 q 299 467 304 475 q 281 460 293 460 l 150 460 m 160 325 q 135 349 135 325 q 140 365 135 357 q 158 374 144 374 l 289 374 q 314 350 314 374 q 308 333 314 340 q 290 325 303 325 l 160 325 z "},"Ȼ":{"ha":988,"x_min":81,"x_max":907,"o":"m 526 -14 q 352 28 433 -14 q 210 140 271 69 q 115 301 149 211 q 81 488 81 390 q 117 703 81 610 q 216 859 153 796 q 359 954 279 922 q 526 986 439 986 q 703 960 617 986 q 858 878 789 933 q 876 844 876 864 q 864 817 876 828 q 840 807 851 807 q 810 818 822 807 q 676 892 750 868 q 526 917 601 917 q 347 866 431 917 q 210 719 263 815 q 157 488 157 624 q 186 330 157 407 q 266 191 215 253 q 383 92 317 129 q 526 56 450 56 q 688 89 610 56 q 825 182 765 122 q 857 196 839 196 q 882 188 872 196 q 894 161 894 179 q 879 131 894 146 q 719 24 811 63 q 526 -14 626 -14 m 849 49 q 824 60 835 49 q 814 85 814 71 q 815 88 814 86 q 815 92 815 90 l 838 221 q 850 240 840 232 q 874 249 860 249 q 877 248 875 249 q 881 247 879 247 q 899 236 892 246 q 907 214 907 226 q 906 211 907 213 q 906 207 906 210 l 882 76 q 853 49 878 53 q 851 49 851 49 q 849 49 850 49 m 854 743 q 831 752 840 743 q 819 772 822 761 q 803 867 808 839 q 797 903 797 896 q 796 910 796 910 q 806 933 796 924 q 829 943 815 943 q 852 935 842 943 q 864 914 863 926 q 881 819 876 847 q 887 784 886 790 q 888 776 888 778 q 877 753 888 763 q 854 743 867 743 m 556 25 q 406 117 474 57 q 299 269 339 176 q 260 488 260 361 q 299 708 260 615 q 407 860 339 800 q 557 951 475 921 l 614 908 q 506 883 560 911 q 407 800 451 854 q 335 667 363 746 q 308 488 308 588 q 335 315 308 392 q 407 183 363 238 q 505 99 451 128 q 611 69 558 69 q 625 69 618 69 q 638 71 632 69 l 556 25 m 668 1111 q 694 1064 703 1101 q 640 862 671 976 q 575 619 610 747 q 506 363 540 492 q 441 119 472 235 q 386 -85 410 4 q 342 -107 378 -118 q 313 -65 304 -99 l 621 1083 q 638 1107 625 1099 q 668 1111 650 1115 m 158 601 q 133 625 133 601 q 138 642 133 633 q 157 650 143 650 l 288 650 q 313 626 313 650 q 307 609 313 617 q 289 601 301 601 l 158 601 m 150 460 q 125 483 125 460 q 130 500 125 492 q 149 508 135 508 l 279 508 q 304 485 304 508 q 299 467 304 475 q 281 460 293 460 l 150 460 m 160 325 q 135 349 135 325 q 140 365 135 357 q 158 374 144 374 l 289 374 q 314 350 314 374 q 308 333 314 340 q 290 325 303 325 l 160 325 z "},"D":{"ha":993,"x_min":69,"x_max":913,"o":"m 104 0 q 80 10 90 0 q 69 35 69 21 q 80 60 69 50 q 104 69 90 69 l 347 69 q 715 176 594 69 q 836 488 836 282 q 795 674 836 596 q 684 803 754 753 q 526 878 614 854 q 347 903 439 903 l 106 903 q 81 913 92 903 q 69 938 69 924 q 80 963 69 953 q 104 972 90 972 l 347 972 q 555 946 454 972 q 737 862 656 919 q 865 712 818 804 q 913 488 913 619 q 768 121 913 242 q 347 0 624 0 l 104 0 m 204 0 q 167 36 167 0 l 167 936 q 204 972 167 972 q 243 939 243 972 l 243 39 q 233 11 243 22 q 204 0 224 0 m 351 38 q 328 61 328 38 l 328 911 q 351 935 328 935 q 376 913 376 935 l 376 63 q 351 38 376 38 m 235 283 q 203 289 217 271 q 207 324 188 311 l 338 415 q 369 410 356 428 q 367 375 385 389 l 235 283 m 218 107 q 194 131 194 107 l 194 856 q 218 879 194 879 q 243 857 243 879 l 243 132 q 218 107 243 107 m 235 560 q 203 565 217 547 q 207 600 188 588 l 338 692 q 369 686 356 704 q 367 651 385 665 l 235 560 m 235 419 q 203 425 217 407 q 207 460 188 447 l 338 551 q 369 546 356 564 q 367 511 385 525 l 235 419 z "},"Ď":{"ha":993,"x_min":69,"x_max":913,"o":"m 104 0 q 80 10 90 0 q 69 35 69 21 q 80 60 69 50 q 104 69 90 69 l 347 69 q 715 176 594 69 q 836 488 836 282 q 795 674 836 596 q 684 803 754 753 q 526 878 614 854 q 347 903 439 903 l 106 903 q 81 913 92 903 q 69 938 69 924 q 80 963 69 953 q 104 972 90 972 l 347 972 q 555 946 454 972 q 737 862 656 919 q 865 712 818 804 q 913 488 913 619 q 768 121 913 242 q 347 0 624 0 l 104 0 m 204 0 q 167 36 167 0 l 167 936 q 204 972 167 972 q 243 939 243 972 l 243 39 q 233 11 243 22 q 204 0 224 0 m 351 38 q 328 61 328 38 l 328 911 q 351 935 328 935 q 376 913 376 935 l 376 63 q 351 38 376 38 m 235 283 q 203 289 217 271 q 207 324 188 311 l 338 415 q 369 410 356 428 q 367 375 385 389 l 235 283 m 218 107 q 194 131 194 107 l 194 856 q 218 879 194 879 q 243 857 243 879 l 243 132 q 218 107 243 107 m 235 560 q 203 565 217 547 q 207 600 188 588 l 338 692 q 369 686 356 704 q 367 651 385 665 l 235 560 m 235 419 q 203 425 217 407 q 207 460 188 447 l 338 551 q 369 546 356 564 q 367 511 385 525 l 235 419 m 372 1276 l 497 1153 l 622 1276 q 643 1285 631 1285 q 668 1274 657 1285 q 681 1249 681 1261 q 671 1228 681 1238 l 522 1079 q 497 1067 510 1067 q 472 1079 485 1067 l 324 1228 q 314 1249 314 1238 q 326 1274 314 1261 q 351 1285 338 1285 q 372 1276 364 1285 z "},"Ḑ":{"ha":993,"x_min":69,"x_max":913,"o":"m 104 0 q 80 10 90 0 q 69 35 69 21 q 80 60 69 50 q 104 69 90 69 l 347 69 q 715 176 594 69 q 836 488 836 282 q 795 674 836 596 q 684 803 754 753 q 526 878 614 854 q 347 903 439 903 l 106 903 q 81 913 92 903 q 69 938 69 924 q 80 963 69 953 q 104 972 90 972 l 347 972 q 555 946 454 972 q 737 862 656 919 q 865 712 818 804 q 913 488 913 619 q 768 121 913 242 q 347 0 624 0 l 104 0 m 204 0 q 167 36 167 0 l 167 936 q 204 972 167 972 q 243 939 243 972 l 243 39 q 233 11 243 22 q 204 0 224 0 m 351 38 q 328 61 328 38 l 328 911 q 351 935 328 935 q 376 913 376 935 l 376 63 q 351 38 376 38 m 235 283 q 203 289 217 271 q 207 324 188 311 l 338 415 q 369 410 356 428 q 367 375 385 389 l 235 283 m 218 107 q 194 131 194 107 l 194 856 q 218 879 194 879 q 243 857 243 879 l 243 132 q 218 107 243 107 m 235 560 q 203 565 217 547 q 207 600 188 588 l 338 692 q 369 686 356 704 q 367 651 385 665 l 235 560 m 235 419 q 203 425 217 407 q 207 460 188 447 l 338 551 q 369 546 356 564 q 367 511 385 525 l 235 419 m 447 -308 q 426 -279 426 -300 q 431 -262 426 -271 l 474 -168 q 449 -118 449 -150 q 465 -77 449 -94 q 506 -60 481 -60 q 549 -77 531 -60 q 567 -118 567 -94 q 564 -139 567 -131 q 558 -154 561 -147 l 493 -292 q 464 -312 483 -312 q 447 -308 456 -312 z "},"Ḓ":{"ha":993,"x_min":69,"x_max":913,"o":"m 104 0 q 80 10 90 0 q 69 35 69 21 q 80 60 69 50 q 104 69 90 69 l 347 69 q 715 176 594 69 q 836 488 836 282 q 795 674 836 596 q 684 803 754 753 q 526 878 614 854 q 347 903 439 903 l 106 903 q 81 913 92 903 q 69 938 69 924 q 80 963 69 953 q 104 972 90 972 l 347 972 q 555 946 454 972 q 737 862 656 919 q 865 712 818 804 q 913 488 913 619 q 768 121 913 242 q 347 0 624 0 l 104 0 m 204 0 q 167 36 167 0 l 167 936 q 204 972 167 972 q 243 939 243 972 l 243 39 q 233 11 243 22 q 204 0 224 0 m 351 38 q 328 61 328 38 l 328 911 q 351 935 328 935 q 376 913 376 935 l 376 63 q 351 38 376 38 m 235 283 q 203 289 217 271 q 207 324 188 311 l 338 415 q 369 410 356 428 q 367 375 385 389 l 235 283 m 218 107 q 194 131 194 107 l 194 856 q 218 879 194 879 q 243 857 243 879 l 243 132 q 218 107 243 107 m 235 560 q 203 565 217 547 q 207 600 188 588 l 338 692 q 369 686 356 704 q 367 651 385 665 l 235 560 m 235 419 q 203 425 217 407 q 207 460 188 447 l 338 551 q 369 546 356 564 q 367 511 385 525 l 235 419 m 372 -296 q 351 -304 364 -304 q 326 -293 338 -304 q 314 -268 314 -281 q 324 -247 314 -257 l 472 -99 q 497 -86 485 -86 q 522 -99 510 -86 l 671 -247 q 681 -268 681 -257 q 668 -293 681 -281 q 643 -304 657 -304 q 622 -296 631 -304 l 497 -172 l 372 -296 z "},"Đ":{"ha":993,"x_min":69,"x_max":913,"o":"m 104 0 q 80 10 90 0 q 69 35 69 21 q 80 60 69 50 q 104 69 90 69 l 347 69 q 715 176 594 69 q 836 488 836 282 q 795 674 836 596 q 684 803 754 753 q 526 878 614 854 q 347 903 439 903 l 106 903 q 81 913 92 903 q 69 938 69 924 q 80 963 69 953 q 104 972 90 972 l 347 972 q 555 946 454 972 q 737 862 656 919 q 865 712 818 804 q 913 488 913 619 q 768 121 913 242 q 347 0 624 0 l 104 0 m 204 0 q 167 36 167 0 l 167 936 q 204 972 167 972 q 243 939 243 972 l 243 39 q 233 11 243 22 q 204 0 224 0 m 351 38 q 328 61 328 38 l 328 911 q 351 935 328 935 q 376 913 376 935 l 376 63 q 351 38 376 38 m 235 283 q 203 289 217 271 q 207 324 188 311 l 338 415 q 369 410 356 428 q 367 375 385 389 l 235 283 m 218 107 q 194 131 194 107 l 194 856 q 218 879 194 879 q 243 857 243 879 l 243 132 q 218 107 243 107 m 235 560 q 203 565 217 547 q 207 600 188 588 l 338 692 q 369 686 356 704 q 367 651 385 665 l 235 560 m 235 419 q 203 425 217 407 q 207 460 188 447 l 338 551 q 369 546 356 564 q 367 511 385 525 l 235 419 m 457 485 q 418 447 457 447 q 301 447 343 447 q 240 447 260 447 q 212 447 221 447 q 194 447 203 447 q 167 447 186 447 q 106 447 147 447 q 80 457 90 447 q 69 485 69 467 q 106 524 69 524 l 418 524 q 446 514 435 524 q 457 485 457 504 z "},"Ḋ":{"ha":993,"x_min":69,"x_max":913,"o":"m 104 0 q 80 10 90 0 q 69 35 69 21 q 80 60 69 50 q 104 69 90 69 l 347 69 q 715 176 594 69 q 836 488 836 282 q 795 674 836 596 q 684 803 754 753 q 526 878 614 854 q 347 903 439 903 l 106 903 q 81 913 92 903 q 69 938 69 924 q 80 963 69 953 q 104 972 90 972 l 347 972 q 555 946 454 972 q 737 862 656 919 q 865 712 818 804 q 913 488 913 619 q 768 121 913 242 q 347 0 624 0 l 104 0 m 204 0 q 167 36 167 0 l 167 936 q 204 972 167 972 q 243 939 243 972 l 243 39 q 233 11 243 22 q 204 0 224 0 m 351 38 q 328 61 328 38 l 328 911 q 351 935 328 935 q 376 913 376 935 l 376 63 q 351 38 376 38 m 235 283 q 203 289 217 271 q 207 324 188 311 l 338 415 q 369 410 356 428 q 367 375 385 389 l 235 283 m 218 107 q 194 131 194 107 l 194 856 q 218 879 194 879 q 243 857 243 879 l 243 132 q 218 107 243 107 m 235 560 q 203 565 217 547 q 207 600 188 588 l 338 692 q 369 686 356 704 q 367 651 385 665 l 235 560 m 235 419 q 203 425 217 407 q 207 460 188 447 l 338 551 q 369 546 356 564 q 367 511 385 525 l 235 419 m 497 1078 q 460 1093 475 1078 q 446 1131 446 1108 q 460 1167 446 1151 q 497 1182 475 1182 q 535 1167 519 1182 q 550 1131 550 1151 q 535 1093 550 1108 q 497 1078 519 1078 z "},"Ḍ":{"ha":993,"x_min":69,"x_max":913,"o":"m 104 0 q 80 10 90 0 q 69 35 69 21 q 80 60 69 50 q 104 69 90 69 l 347 69 q 715 176 594 69 q 836 488 836 282 q 795 674 836 596 q 684 803 754 753 q 526 878 614 854 q 347 903 439 903 l 106 903 q 81 913 92 903 q 69 938 69 924 q 80 963 69 953 q 104 972 90 972 l 347 972 q 555 946 454 972 q 737 862 656 919 q 865 712 818 804 q 913 488 913 619 q 768 121 913 242 q 347 0 624 0 l 104 0 m 204 0 q 167 36 167 0 l 167 936 q 204 972 167 972 q 243 939 243 972 l 243 39 q 233 11 243 22 q 204 0 224 0 m 351 38 q 328 61 328 38 l 328 911 q 351 935 328 935 q 376 913 376 935 l 376 63 q 351 38 376 38 m 235 283 q 203 289 217 271 q 207 324 188 311 l 338 415 q 369 410 356 428 q 367 375 385 389 l 235 283 m 218 107 q 194 131 194 107 l 194 856 q 218 879 194 879 q 243 857 243 879 l 243 132 q 218 107 243 107 m 235 560 q 203 565 217 547 q 207 600 188 588 l 338 692 q 369 686 356 704 q 367 651 385 665 l 235 560 m 235 419 q 203 425 217 407 q 207 460 188 447 l 338 551 q 369 546 356 564 q 367 511 385 525 l 235 419 m 496 -211 q 459 -196 474 -211 q 444 -158 444 -181 q 459 -122 444 -137 q 496 -107 474 -107 q 533 -122 518 -107 q 549 -158 549 -137 q 533 -196 549 -181 q 496 -211 518 -211 z "},"Ɗ":{"ha":1110,"x_min":28,"x_max":1029,"o":"m 353 903 l 235 903 q 171 894 201 903 q 121 862 140 885 q 101 797 101 839 q 103 781 101 792 q 104 761 104 769 q 97 741 104 750 q 74 732 89 732 q 35 755 42 732 q 28 801 28 778 q 56 902 28 865 q 133 956 85 939 q 242 972 182 972 l 353 972 l 353 903 m 221 0 q 197 10 207 0 q 186 35 186 21 q 197 60 186 50 q 221 69 207 69 l 464 69 q 832 176 711 69 q 953 488 953 282 q 912 674 953 596 q 801 803 871 753 q 643 878 731 854 q 464 903 556 903 l 222 903 q 197 913 208 903 q 186 938 186 924 q 197 963 186 953 q 221 972 207 972 l 464 972 q 672 946 571 972 q 853 862 772 919 q 982 712 935 804 q 1029 488 1029 619 q 885 121 1029 242 q 464 0 740 0 l 221 0 m 321 0 q 283 36 283 0 l 283 936 q 321 972 283 972 q 360 939 360 972 l 360 39 q 350 11 360 22 q 321 0 340 0 m 468 38 q 444 61 444 38 l 444 911 q 468 935 444 935 q 493 913 493 935 l 493 63 q 468 38 493 38 m 351 283 q 319 289 333 271 q 324 324 304 311 l 454 415 q 486 410 472 428 q 483 375 501 389 l 351 283 m 335 107 q 311 131 311 107 l 311 856 q 335 879 311 879 q 360 857 360 879 l 360 132 q 335 107 360 107 m 351 560 q 319 565 333 547 q 324 600 304 588 l 454 692 q 486 686 472 704 q 483 651 501 665 l 351 560 m 351 419 q 319 425 333 407 q 324 460 304 447 l 454 551 q 486 546 472 564 q 483 511 501 525 l 351 419 z "},"Ḏ":{"ha":993,"x_min":69,"x_max":913,"o":"m 104 0 q 80 10 90 0 q 69 35 69 21 q 80 60 69 50 q 104 69 90 69 l 347 69 q 715 176 594 69 q 836 488 836 282 q 795 674 836 596 q 684 803 754 753 q 526 878 614 854 q 347 903 439 903 l 106 903 q 81 913 92 903 q 69 938 69 924 q 80 963 69 953 q 104 972 90 972 l 347 972 q 555 946 454 972 q 737 862 656 919 q 865 712 818 804 q 913 488 913 619 q 768 121 913 242 q 347 0 624 0 l 104 0 m 204 0 q 167 36 167 0 l 167 936 q 204 972 167 972 q 243 939 243 972 l 243 39 q 233 11 243 22 q 204 0 224 0 m 351 38 q 328 61 328 38 l 328 911 q 351 935 328 935 q 376 913 376 935 l 376 63 q 351 38 376 38 m 235 283 q 203 289 217 271 q 207 324 188 311 l 338 415 q 369 410 356 428 q 367 375 385 389 l 235 283 m 218 107 q 194 131 194 107 l 194 856 q 218 879 194 879 q 243 857 243 879 l 243 132 q 218 107 243 107 m 235 560 q 203 565 217 547 q 207 600 188 588 l 338 692 q 369 686 356 704 q 367 651 385 665 l 235 560 m 235 419 q 203 425 217 407 q 207 460 188 447 l 338 551 q 369 546 356 564 q 367 511 385 525 l 235 419 m 363 -172 q 326 -137 326 -172 q 363 -103 326 -103 l 631 -103 q 667 -137 667 -103 q 631 -172 667 -172 l 363 -172 z "},"Ɖ":{"ha":993,"x_min":69,"x_max":913,"o":"m 104 0 q 80 10 90 0 q 69 35 69 21 q 80 60 69 50 q 104 69 90 69 l 347 69 q 715 176 594 69 q 836 488 836 282 q 795 674 836 596 q 684 803 754 753 q 526 878 614 854 q 347 903 439 903 l 106 903 q 81 913 92 903 q 69 938 69 924 q 80 963 69 953 q 104 972 90 972 l 347 972 q 555 946 454 972 q 737 862 656 919 q 865 712 818 804 q 913 488 913 619 q 768 121 913 242 q 347 0 624 0 l 104 0 m 204 0 q 167 36 167 0 l 167 936 q 204 972 167 972 q 243 939 243 972 l 243 39 q 233 11 243 22 q 204 0 224 0 m 351 38 q 328 61 328 38 l 328 911 q 351 935 328 935 q 376 913 376 935 l 376 63 q 351 38 376 38 m 235 283 q 203 289 217 271 q 207 324 188 311 l 338 415 q 369 410 356 428 q 367 375 385 389 l 235 283 m 218 107 q 194 131 194 107 l 194 856 q 218 879 194 879 q 243 857 243 879 l 243 132 q 218 107 243 107 m 235 560 q 203 565 217 547 q 207 600 188 588 l 338 692 q 369 686 356 704 q 367 651 385 665 l 235 560 m 235 419 q 203 425 217 407 q 207 460 188 447 l 338 551 q 369 546 356 564 q 367 511 385 525 l 235 419 m 457 485 q 418 447 457 447 q 301 447 343 447 q 240 447 260 447 q 212 447 221 447 q 194 447 203 447 q 167 447 186 447 q 106 447 147 447 q 80 457 90 447 q 69 485 69 467 q 106 524 69 524 l 418 524 q 446 514 435 524 q 457 485 457 504 z "},"Ð":{"ha":993,"x_min":69,"x_max":913,"o":"m 104 0 q 80 10 90 0 q 69 35 69 21 q 80 60 69 50 q 104 69 90 69 l 347 69 q 715 176 594 69 q 836 488 836 282 q 795 674 836 596 q 684 803 754 753 q 526 878 614 854 q 347 903 439 903 l 106 903 q 81 913 92 903 q 69 938 69 924 q 80 963 69 953 q 104 972 90 972 l 347 972 q 555 946 454 972 q 737 862 656 919 q 865 712 818 804 q 913 488 913 619 q 768 121 913 242 q 347 0 624 0 l 104 0 m 204 0 q 167 36 167 0 l 167 936 q 204 972 167 972 q 243 939 243 972 l 243 39 q 233 11 243 22 q 204 0 224 0 m 351 38 q 328 61 328 38 l 328 911 q 351 935 328 935 q 376 913 376 935 l 376 63 q 351 38 376 38 m 235 283 q 203 289 217 271 q 207 324 188 311 l 338 415 q 369 410 356 428 q 367 375 385 389 l 235 283 m 218 107 q 194 131 194 107 l 194 856 q 218 879 194 879 q 243 857 243 879 l 243 132 q 218 107 243 107 m 235 560 q 203 565 217 547 q 207 600 188 588 l 338 692 q 369 686 356 704 q 367 651 385 665 l 235 560 m 235 419 q 203 425 217 407 q 207 460 188 447 l 338 551 q 369 546 356 564 q 367 511 385 525 l 235 419 m 457 485 q 418 447 457 447 q 301 447 343 447 q 240 447 260 447 q 212 447 221 447 q 194 447 203 447 q 167 447 186 447 q 106 447 147 447 q 80 457 90 447 q 69 485 69 467 q 106 524 69 524 l 418 524 q 446 514 435 524 q 457 485 457 504 z "},"E":{"ha":840,"x_min":69,"x_max":806,"o":"m 201 0 q 167 50 167 0 l 167 936 q 201 972 167 972 q 236 936 236 972 l 236 36 q 201 0 236 0 m 106 0 q 69 35 69 0 q 106 69 69 69 l 765 69 q 801 35 801 69 q 765 0 801 0 l 106 0 m 217 460 q 181 494 181 460 q 217 529 181 529 l 696 529 q 732 494 732 529 q 696 460 732 460 l 217 460 m 106 903 q 69 938 69 903 q 106 972 69 972 l 765 972 q 794 963 782 972 q 806 938 806 954 q 794 912 806 921 q 765 903 782 903 l 106 903 m 642 388 q 618 397 626 388 q 608 424 608 407 l 608 492 q 617 518 608 508 q 642 528 626 528 q 668 518 658 528 q 676 492 676 508 l 676 424 q 667 397 676 407 q 642 388 658 388 m 642 601 q 667 592 658 601 q 676 565 676 582 l 676 497 q 668 471 676 482 q 642 461 658 461 q 617 471 626 461 q 608 497 608 482 l 608 565 q 618 592 608 582 q 642 601 626 601 m 361 689 q 366 669 368 679 q 357 654 364 660 l 226 563 q 194 568 208 550 q 199 603 179 590 l 329 694 q 361 689 347 707 m 361 825 q 366 806 368 815 q 357 790 364 796 l 226 699 q 194 704 208 686 q 199 739 179 726 l 329 831 q 361 825 347 843 m 213 414 q 188 439 188 414 l 188 900 q 213 922 188 922 q 236 899 236 922 l 236 438 q 213 414 236 414 m 346 414 q 321 439 321 414 l 321 900 q 346 922 321 922 q 369 899 369 922 l 369 438 q 346 414 369 414 m 361 279 q 366 260 368 269 q 357 244 364 250 l 226 153 q 194 158 208 140 q 199 193 179 181 l 329 285 q 361 279 347 297 m 361 415 q 366 396 368 406 q 357 381 364 386 l 226 289 q 194 294 208 276 q 199 329 179 317 l 329 421 q 361 415 347 433 m 213 4 q 188 29 188 4 l 188 490 q 213 513 188 513 q 236 489 236 513 l 236 28 q 213 4 236 4 m 346 4 q 321 29 321 4 l 321 490 q 346 513 321 513 q 369 489 369 513 l 369 28 q 346 4 369 4 z "},"É":{"ha":840,"x_min":69,"x_max":806,"o":"m 201 0 q 167 50 167 0 l 167 936 q 201 972 167 972 q 236 936 236 972 l 236 36 q 201 0 236 0 m 106 0 q 69 35 69 0 q 106 69 69 69 l 765 69 q 801 35 801 69 q 765 0 801 0 l 106 0 m 217 460 q 181 494 181 460 q 217 529 181 529 l 696 529 q 732 494 732 529 q 696 460 732 460 l 217 460 m 106 903 q 69 938 69 903 q 106 972 69 972 l 765 972 q 794 963 782 972 q 806 938 806 954 q 794 912 806 921 q 765 903 782 903 l 106 903 m 642 388 q 618 397 626 388 q 608 424 608 407 l 608 492 q 617 518 608 508 q 642 528 626 528 q 668 518 658 528 q 676 492 676 508 l 676 424 q 667 397 676 407 q 642 388 658 388 m 642 601 q 667 592 658 601 q 676 565 676 582 l 676 497 q 668 471 676 482 q 642 461 658 461 q 617 471 626 461 q 608 497 608 482 l 608 565 q 618 592 608 582 q 642 601 626 601 m 361 689 q 366 669 368 679 q 357 654 364 660 l 226 563 q 194 568 208 550 q 199 603 179 590 l 329 694 q 361 689 347 707 m 361 825 q 366 806 368 815 q 357 790 364 796 l 226 699 q 194 704 208 686 q 199 739 179 726 l 329 831 q 361 825 347 843 m 213 414 q 188 439 188 414 l 188 900 q 213 922 188 922 q 236 899 236 922 l 236 438 q 213 414 236 414 m 346 414 q 321 439 321 414 l 321 900 q 346 922 321 922 q 369 899 369 922 l 369 438 q 346 414 369 414 m 361 279 q 366 260 368 269 q 357 244 364 250 l 226 153 q 194 158 208 140 q 199 193 179 181 l 329 285 q 361 279 347 297 m 361 415 q 366 396 368 406 q 357 381 364 386 l 226 289 q 194 294 208 276 q 199 329 179 317 l 329 421 q 361 415 347 433 m 213 4 q 188 29 188 4 l 188 490 q 213 513 188 513 q 236 489 236 513 l 236 28 q 213 4 236 4 m 346 4 q 321 29 321 4 l 321 490 q 346 513 321 513 q 369 489 369 513 l 369 28 q 346 4 369 4 m 393 1075 q 372 1067 385 1067 q 347 1078 358 1067 q 335 1103 335 1090 q 344 1124 335 1114 l 493 1272 q 518 1285 506 1285 q 543 1272 531 1285 q 554 1247 554 1261 q 542 1222 554 1235 l 393 1075 z "},"Ě":{"ha":840,"x_min":69,"x_max":806,"o":"m 201 0 q 167 50 167 0 l 167 936 q 201 972 167 972 q 236 936 236 972 l 236 36 q 201 0 236 0 m 106 0 q 69 35 69 0 q 106 69 69 69 l 765 69 q 801 35 801 69 q 765 0 801 0 l 106 0 m 217 460 q 181 494 181 460 q 217 529 181 529 l 696 529 q 732 494 732 529 q 696 460 732 460 l 217 460 m 106 903 q 69 938 69 903 q 106 972 69 972 l 765 972 q 794 963 782 972 q 806 938 806 954 q 794 912 806 921 q 765 903 782 903 l 106 903 m 642 388 q 618 397 626 388 q 608 424 608 407 l 608 492 q 617 518 608 508 q 642 528 626 528 q 668 518 658 528 q 676 492 676 508 l 676 424 q 667 397 676 407 q 642 388 658 388 m 642 601 q 667 592 658 601 q 676 565 676 582 l 676 497 q 668 471 676 482 q 642 461 658 461 q 617 471 626 461 q 608 497 608 482 l 608 565 q 618 592 608 582 q 642 601 626 601 m 361 689 q 366 669 368 679 q 357 654 364 660 l 226 563 q 194 568 208 550 q 199 603 179 590 l 329 694 q 361 689 347 707 m 361 825 q 366 806 368 815 q 357 790 364 796 l 226 699 q 194 704 208 686 q 199 739 179 726 l 329 831 q 361 825 347 843 m 213 414 q 188 439 188 414 l 188 900 q 213 922 188 922 q 236 899 236 922 l 236 438 q 213 414 236 414 m 346 414 q 321 439 321 414 l 321 900 q 346 922 321 922 q 369 899 369 922 l 369 438 q 346 414 369 414 m 361 279 q 366 260 368 269 q 357 244 364 250 l 226 153 q 194 158 208 140 q 199 193 179 181 l 329 285 q 361 279 347 297 m 361 415 q 366 396 368 406 q 357 381 364 386 l 226 289 q 194 294 208 276 q 199 329 179 317 l 329 421 q 361 415 347 433 m 213 4 q 188 29 188 4 l 188 490 q 213 513 188 513 q 236 489 236 513 l 236 28 q 213 4 236 4 m 346 4 q 321 29 321 4 l 321 490 q 346 513 321 513 q 369 489 369 513 l 369 28 q 346 4 369 4 m 296 1276 l 421 1153 l 546 1276 q 567 1285 554 1285 q 592 1274 581 1285 q 604 1249 604 1261 q 594 1228 604 1238 l 446 1079 q 421 1067 433 1067 q 396 1079 408 1067 l 247 1228 q 238 1249 238 1238 q 250 1274 238 1261 q 275 1285 261 1285 q 296 1276 288 1285 z "},"Ȩ":{"ha":840,"x_min":69,"x_max":806,"o":"m 201 0 q 167 50 167 0 l 167 936 q 201 972 167 972 q 236 936 236 972 l 236 36 q 201 0 236 0 m 106 0 q 69 35 69 0 q 106 69 69 69 l 765 69 q 801 35 801 69 q 765 0 801 0 l 106 0 m 217 460 q 181 494 181 460 q 217 529 181 529 l 696 529 q 732 494 732 529 q 696 460 732 460 l 217 460 m 106 903 q 69 938 69 903 q 106 972 69 972 l 765 972 q 794 963 782 972 q 806 938 806 954 q 794 912 806 921 q 765 903 782 903 l 106 903 m 642 388 q 618 397 626 388 q 608 424 608 407 l 608 492 q 617 518 608 508 q 642 528 626 528 q 668 518 658 528 q 676 492 676 508 l 676 424 q 667 397 676 407 q 642 388 658 388 m 642 601 q 667 592 658 601 q 676 565 676 582 l 676 497 q 668 471 676 482 q 642 461 658 461 q 617 471 626 461 q 608 497 608 482 l 608 565 q 618 592 608 582 q 642 601 626 601 m 361 689 q 366 669 368 679 q 357 654 364 660 l 226 563 q 194 568 208 550 q 199 603 179 590 l 329 694 q 361 689 347 707 m 361 825 q 366 806 368 815 q 357 790 364 796 l 226 699 q 194 704 208 686 q 199 739 179 726 l 329 831 q 361 825 347 843 m 213 414 q 188 439 188 414 l 188 900 q 213 922 188 922 q 236 899 236 922 l 236 438 q 213 414 236 414 m 346 414 q 321 439 321 414 l 321 900 q 346 922 321 922 q 369 899 369 922 l 369 438 q 346 414 369 414 m 361 279 q 366 260 368 269 q 357 244 364 250 l 226 153 q 194 158 208 140 q 199 193 179 181 l 329 285 q 361 279 347 297 m 361 415 q 366 396 368 406 q 357 381 364 386 l 226 289 q 194 294 208 276 q 199 329 179 317 l 329 421 q 361 415 347 433 m 213 4 q 188 29 188 4 l 188 490 q 213 513 188 513 q 236 489 236 513 l 236 28 q 213 4 236 4 m 346 4 q 321 29 321 4 l 321 490 q 346 513 321 513 q 369 489 369 513 l 369 28 q 346 4 369 4 m 421 26 q 445 17 436 26 q 454 -7 454 8 q 454 -10 454 -8 q 454 -15 454 -12 l 442 -92 l 490 -89 q 494 -89 493 -89 q 497 -89 496 -89 q 581 -126 542 -89 q 621 -244 621 -162 q 599 -328 621 -294 q 542 -378 576 -361 q 468 -396 507 -396 q 417 -386 444 -396 q 349 -350 389 -376 q 332 -319 332 -339 q 336 -304 332 -310 q 360 -289 344 -289 q 383 -297 371 -289 q 428 -319 406 -312 q 468 -326 451 -326 q 528 -299 513 -326 q 544 -244 544 -271 q 538 -207 544 -226 q 515 -173 532 -187 q 467 -158 499 -158 q 440 -159 454 -158 q 407 -165 425 -160 q 394 -167 403 -167 q 368 -143 368 -167 q 368 -140 368 -142 q 368 -137 368 -139 l 382 -11 q 421 26 386 26 z "},"Ḝ":{"ha":840,"x_min":69,"x_max":806,"o":"m 201 0 q 167 50 167 0 l 167 936 q 201 972 167 972 q 236 936 236 972 l 236 36 q 201 0 236 0 m 106 0 q 69 35 69 0 q 106 69 69 69 l 765 69 q 801 35 801 69 q 765 0 801 0 l 106 0 m 217 460 q 181 494 181 460 q 217 529 181 529 l 696 529 q 732 494 732 529 q 696 460 732 460 l 217 460 m 106 903 q 69 938 69 903 q 106 972 69 972 l 765 972 q 794 963 782 972 q 806 938 806 954 q 794 912 806 921 q 765 903 782 903 l 106 903 m 642 388 q 618 397 626 388 q 608 424 608 407 l 608 492 q 617 518 608 508 q 642 528 626 528 q 668 518 658 528 q 676 492 676 508 l 676 424 q 667 397 676 407 q 642 388 658 388 m 642 601 q 667 592 658 601 q 676 565 676 582 l 676 497 q 668 471 676 482 q 642 461 658 461 q 617 471 626 461 q 608 497 608 482 l 608 565 q 618 592 608 582 q 642 601 626 601 m 361 689 q 366 669 368 679 q 357 654 364 660 l 226 563 q 194 568 208 550 q 199 603 179 590 l 329 694 q 361 689 347 707 m 361 825 q 366 806 368 815 q 357 790 364 796 l 226 699 q 194 704 208 686 q 199 739 179 726 l 329 831 q 361 825 347 843 m 213 414 q 188 439 188 414 l 188 900 q 213 922 188 922 q 236 899 236 922 l 236 438 q 213 414 236 414 m 346 414 q 321 439 321 414 l 321 900 q 346 922 321 922 q 369 899 369 922 l 369 438 q 346 414 369 414 m 361 279 q 366 260 368 269 q 357 244 364 250 l 226 153 q 194 158 208 140 q 199 193 179 181 l 329 285 q 361 279 347 297 m 361 415 q 366 396 368 406 q 357 381 364 386 l 226 289 q 194 294 208 276 q 199 329 179 317 l 329 421 q 361 415 347 433 m 213 4 q 188 29 188 4 l 188 490 q 213 513 188 513 q 236 489 236 513 l 236 28 q 213 4 236 4 m 346 4 q 321 29 321 4 l 321 490 q 346 513 321 513 q 369 489 369 513 l 369 28 q 346 4 369 4 m 421 26 q 445 17 436 26 q 454 -7 454 8 q 454 -10 454 -8 q 454 -15 454 -12 l 442 -92 l 490 -89 q 494 -89 493 -89 q 497 -89 496 -89 q 581 -126 542 -89 q 621 -244 621 -162 q 599 -328 621 -294 q 542 -378 576 -361 q 468 -396 507 -396 q 417 -386 444 -396 q 349 -350 389 -376 q 332 -319 332 -339 q 336 -304 332 -310 q 360 -289 344 -289 q 383 -297 371 -289 q 428 -319 406 -312 q 468 -326 451 -326 q 528 -299 513 -326 q 544 -244 544 -271 q 538 -207 544 -226 q 515 -173 532 -187 q 467 -158 499 -158 q 440 -159 454 -158 q 407 -165 425 -160 q 394 -167 403 -167 q 368 -143 368 -167 q 368 -140 368 -142 q 368 -137 368 -139 l 382 -11 q 421 26 386 26 m 422 1058 q 319 1085 360 1058 q 260 1147 279 1113 q 240 1204 240 1182 q 251 1234 240 1222 q 276 1246 261 1246 q 301 1235 292 1246 q 317 1206 311 1224 q 356 1147 328 1167 q 422 1128 383 1128 q 490 1147 461 1128 q 528 1206 518 1167 q 544 1235 533 1224 q 568 1246 554 1246 q 594 1234 583 1246 q 604 1204 604 1222 q 585 1147 604 1182 q 526 1085 565 1113 q 422 1058 486 1058 z "},"Ê":{"ha":840,"x_min":69,"x_max":806,"o":"m 201 0 q 167 50 167 0 l 167 936 q 201 972 167 972 q 236 936 236 972 l 236 36 q 201 0 236 0 m 106 0 q 69 35 69 0 q 106 69 69 69 l 765 69 q 801 35 801 69 q 765 0 801 0 l 106 0 m 217 460 q 181 494 181 460 q 217 529 181 529 l 696 529 q 732 494 732 529 q 696 460 732 460 l 217 460 m 106 903 q 69 938 69 903 q 106 972 69 972 l 765 972 q 794 963 782 972 q 806 938 806 954 q 794 912 806 921 q 765 903 782 903 l 106 903 m 642 388 q 618 397 626 388 q 608 424 608 407 l 608 492 q 617 518 608 508 q 642 528 626 528 q 668 518 658 528 q 676 492 676 508 l 676 424 q 667 397 676 407 q 642 388 658 388 m 642 601 q 667 592 658 601 q 676 565 676 582 l 676 497 q 668 471 676 482 q 642 461 658 461 q 617 471 626 461 q 608 497 608 482 l 608 565 q 618 592 608 582 q 642 601 626 601 m 361 689 q 366 669 368 679 q 357 654 364 660 l 226 563 q 194 568 208 550 q 199 603 179 590 l 329 694 q 361 689 347 707 m 361 825 q 366 806 368 815 q 357 790 364 796 l 226 699 q 194 704 208 686 q 199 739 179 726 l 329 831 q 361 825 347 843 m 213 414 q 188 439 188 414 l 188 900 q 213 922 188 922 q 236 899 236 922 l 236 438 q 213 414 236 414 m 346 414 q 321 439 321 414 l 321 900 q 346 922 321 922 q 369 899 369 922 l 369 438 q 346 414 369 414 m 361 279 q 366 260 368 269 q 357 244 364 250 l 226 153 q 194 158 208 140 q 199 193 179 181 l 329 285 q 361 279 347 297 m 361 415 q 366 396 368 406 q 357 381 364 386 l 226 289 q 194 294 208 276 q 199 329 179 317 l 329 421 q 361 415 347 433 m 213 4 q 188 29 188 4 l 188 490 q 213 513 188 513 q 236 489 236 513 l 236 28 q 213 4 236 4 m 346 4 q 321 29 321 4 l 321 490 q 346 513 321 513 q 369 489 369 513 l 369 28 q 346 4 369 4 m 296 1075 q 275 1067 288 1067 q 250 1078 261 1067 q 238 1103 238 1090 q 247 1124 238 1114 l 396 1272 q 421 1285 408 1285 q 446 1272 433 1285 l 594 1124 q 604 1103 604 1114 q 592 1078 604 1090 q 567 1067 581 1067 q 546 1075 554 1067 l 421 1199 l 296 1075 z "},"Ế":{"ha":840,"x_min":69,"x_max":806,"o":"m 201 0 q 167 50 167 0 l 167 936 q 201 972 167 972 q 236 936 236 972 l 236 36 q 201 0 236 0 m 106 0 q 69 35 69 0 q 106 69 69 69 l 765 69 q 801 35 801 69 q 765 0 801 0 l 106 0 m 217 460 q 181 494 181 460 q 217 529 181 529 l 696 529 q 732 494 732 529 q 696 460 732 460 l 217 460 m 106 903 q 69 938 69 903 q 106 972 69 972 l 765 972 q 794 963 782 972 q 806 938 806 954 q 794 912 806 921 q 765 903 782 903 l 106 903 m 642 388 q 618 397 626 388 q 608 424 608 407 l 608 492 q 617 518 608 508 q 642 528 626 528 q 668 518 658 528 q 676 492 676 508 l 676 424 q 667 397 676 407 q 642 388 658 388 m 642 601 q 667 592 658 601 q 676 565 676 582 l 676 497 q 668 471 676 482 q 642 461 658 461 q 617 471 626 461 q 608 497 608 482 l 608 565 q 618 592 608 582 q 642 601 626 601 m 361 689 q 366 669 368 679 q 357 654 364 660 l 226 563 q 194 568 208 550 q 199 603 179 590 l 329 694 q 361 689 347 707 m 361 825 q 366 806 368 815 q 357 790 364 796 l 226 699 q 194 704 208 686 q 199 739 179 726 l 329 831 q 361 825 347 843 m 213 414 q 188 439 188 414 l 188 900 q 213 922 188 922 q 236 899 236 922 l 236 438 q 213 414 236 414 m 346 414 q 321 439 321 414 l 321 900 q 346 922 321 922 q 369 899 369 922 l 369 438 q 346 414 369 414 m 361 279 q 366 260 368 269 q 357 244 364 250 l 226 153 q 194 158 208 140 q 199 193 179 181 l 329 285 q 361 279 347 297 m 361 415 q 366 396 368 406 q 357 381 364 386 l 226 289 q 194 294 208 276 q 199 329 179 317 l 329 421 q 361 415 347 433 m 213 4 q 188 29 188 4 l 188 490 q 213 513 188 513 q 236 489 236 513 l 236 28 q 213 4 236 4 m 346 4 q 321 29 321 4 l 321 490 q 346 513 321 513 q 369 489 369 513 l 369 28 q 346 4 369 4 m 296 1075 q 275 1067 288 1067 q 250 1078 261 1067 q 238 1103 238 1090 q 247 1124 238 1114 l 396 1272 q 421 1285 408 1285 q 446 1272 433 1285 l 594 1124 q 604 1103 604 1114 q 592 1078 604 1090 q 567 1067 581 1067 q 546 1075 554 1067 l 421 1199 l 296 1075 m 393 1388 q 372 1379 385 1379 q 347 1390 358 1379 q 335 1415 335 1403 q 344 1436 335 1426 l 493 1585 q 518 1597 506 1597 q 543 1585 531 1597 q 554 1560 554 1574 q 542 1535 554 1547 l 393 1388 z "},"Ḙ":{"ha":840,"x_min":69,"x_max":806,"o":"m 201 0 q 167 50 167 0 l 167 936 q 201 972 167 972 q 236 936 236 972 l 236 36 q 201 0 236 0 m 106 0 q 69 35 69 0 q 106 69 69 69 l 765 69 q 801 35 801 69 q 765 0 801 0 l 106 0 m 217 460 q 181 494 181 460 q 217 529 181 529 l 696 529 q 732 494 732 529 q 696 460 732 460 l 217 460 m 106 903 q 69 938 69 903 q 106 972 69 972 l 765 972 q 794 963 782 972 q 806 938 806 954 q 794 912 806 921 q 765 903 782 903 l 106 903 m 642 388 q 618 397 626 388 q 608 424 608 407 l 608 492 q 617 518 608 508 q 642 528 626 528 q 668 518 658 528 q 676 492 676 508 l 676 424 q 667 397 676 407 q 642 388 658 388 m 642 601 q 667 592 658 601 q 676 565 676 582 l 676 497 q 668 471 676 482 q 642 461 658 461 q 617 471 626 461 q 608 497 608 482 l 608 565 q 618 592 608 582 q 642 601 626 601 m 361 689 q 366 669 368 679 q 357 654 364 660 l 226 563 q 194 568 208 550 q 199 603 179 590 l 329 694 q 361 689 347 707 m 361 825 q 366 806 368 815 q 357 790 364 796 l 226 699 q 194 704 208 686 q 199 739 179 726 l 329 831 q 361 825 347 843 m 213 414 q 188 439 188 414 l 188 900 q 213 922 188 922 q 236 899 236 922 l 236 438 q 213 414 236 414 m 346 414 q 321 439 321 414 l 321 900 q 346 922 321 922 q 369 899 369 922 l 369 438 q 346 414 369 414 m 361 279 q 366 260 368 269 q 357 244 364 250 l 226 153 q 194 158 208 140 q 199 193 179 181 l 329 285 q 361 279 347 297 m 361 415 q 366 396 368 406 q 357 381 364 386 l 226 289 q 194 294 208 276 q 199 329 179 317 l 329 421 q 361 415 347 433 m 213 4 q 188 29 188 4 l 188 490 q 213 513 188 513 q 236 489 236 513 l 236 28 q 213 4 236 4 m 346 4 q 321 29 321 4 l 321 490 q 346 513 321 513 q 369 489 369 513 l 369 28 q 346 4 369 4 m 296 -296 q 275 -304 288 -304 q 250 -293 261 -304 q 238 -268 238 -281 q 247 -247 238 -257 l 396 -99 q 421 -86 408 -86 q 446 -99 433 -86 l 594 -247 q 604 -268 604 -257 q 592 -293 604 -281 q 567 -304 581 -304 q 546 -296 554 -304 l 421 -172 l 296 -296 z "},"Ệ":{"ha":840,"x_min":69,"x_max":806,"o":"m 201 0 q 167 50 167 0 l 167 936 q 201 972 167 972 q 236 936 236 972 l 236 36 q 201 0 236 0 m 106 0 q 69 35 69 0 q 106 69 69 69 l 765 69 q 801 35 801 69 q 765 0 801 0 l 106 0 m 217 460 q 181 494 181 460 q 217 529 181 529 l 696 529 q 732 494 732 529 q 696 460 732 460 l 217 460 m 106 903 q 69 938 69 903 q 106 972 69 972 l 765 972 q 794 963 782 972 q 806 938 806 954 q 794 912 806 921 q 765 903 782 903 l 106 903 m 642 388 q 618 397 626 388 q 608 424 608 407 l 608 492 q 617 518 608 508 q 642 528 626 528 q 668 518 658 528 q 676 492 676 508 l 676 424 q 667 397 676 407 q 642 388 658 388 m 642 601 q 667 592 658 601 q 676 565 676 582 l 676 497 q 668 471 676 482 q 642 461 658 461 q 617 471 626 461 q 608 497 608 482 l 608 565 q 618 592 608 582 q 642 601 626 601 m 361 689 q 366 669 368 679 q 357 654 364 660 l 226 563 q 194 568 208 550 q 199 603 179 590 l 329 694 q 361 689 347 707 m 361 825 q 366 806 368 815 q 357 790 364 796 l 226 699 q 194 704 208 686 q 199 739 179 726 l 329 831 q 361 825 347 843 m 213 414 q 188 439 188 414 l 188 900 q 213 922 188 922 q 236 899 236 922 l 236 438 q 213 414 236 414 m 346 414 q 321 439 321 414 l 321 900 q 346 922 321 922 q 369 899 369 922 l 369 438 q 346 414 369 414 m 361 279 q 366 260 368 269 q 357 244 364 250 l 226 153 q 194 158 208 140 q 199 193 179 181 l 329 285 q 361 279 347 297 m 361 415 q 366 396 368 406 q 357 381 364 386 l 226 289 q 194 294 208 276 q 199 329 179 317 l 329 421 q 361 415 347 433 m 213 4 q 188 29 188 4 l 188 490 q 213 513 188 513 q 236 489 236 513 l 236 28 q 213 4 236 4 m 346 4 q 321 29 321 4 l 321 490 q 346 513 321 513 q 369 489 369 513 l 369 28 q 346 4 369 4 m 419 -211 q 383 -196 397 -211 q 368 -158 368 -181 q 383 -122 368 -137 q 419 -107 397 -107 q 457 -122 442 -107 q 472 -158 472 -137 q 457 -196 472 -181 q 419 -211 442 -211 m 296 1075 q 275 1067 288 1067 q 250 1078 261 1067 q 238 1103 238 1090 q 247 1124 238 1114 l 396 1272 q 421 1285 408 1285 q 446 1272 433 1285 l 594 1124 q 604 1103 604 1114 q 592 1078 604 1090 q 567 1067 581 1067 q 546 1075 554 1067 l 421 1199 l 296 1075 z "},"Ề":{"ha":840,"x_min":69,"x_max":806,"o":"m 201 0 q 167 50 167 0 l 167 936 q 201 972 167 972 q 236 936 236 972 l 236 36 q 201 0 236 0 m 106 0 q 69 35 69 0 q 106 69 69 69 l 765 69 q 801 35 801 69 q 765 0 801 0 l 106 0 m 217 460 q 181 494 181 460 q 217 529 181 529 l 696 529 q 732 494 732 529 q 696 460 732 460 l 217 460 m 106 903 q 69 938 69 903 q 106 972 69 972 l 765 972 q 794 963 782 972 q 806 938 806 954 q 794 912 806 921 q 765 903 782 903 l 106 903 m 642 388 q 618 397 626 388 q 608 424 608 407 l 608 492 q 617 518 608 508 q 642 528 626 528 q 668 518 658 528 q 676 492 676 508 l 676 424 q 667 397 676 407 q 642 388 658 388 m 642 601 q 667 592 658 601 q 676 565 676 582 l 676 497 q 668 471 676 482 q 642 461 658 461 q 617 471 626 461 q 608 497 608 482 l 608 565 q 618 592 608 582 q 642 601 626 601 m 361 689 q 366 669 368 679 q 357 654 364 660 l 226 563 q 194 568 208 550 q 199 603 179 590 l 329 694 q 361 689 347 707 m 361 825 q 366 806 368 815 q 357 790 364 796 l 226 699 q 194 704 208 686 q 199 739 179 726 l 329 831 q 361 825 347 843 m 213 414 q 188 439 188 414 l 188 900 q 213 922 188 922 q 236 899 236 922 l 236 438 q 213 414 236 414 m 346 414 q 321 439 321 414 l 321 900 q 346 922 321 922 q 369 899 369 922 l 369 438 q 346 414 369 414 m 361 279 q 366 260 368 269 q 357 244 364 250 l 226 153 q 194 158 208 140 q 199 193 179 181 l 329 285 q 361 279 347 297 m 361 415 q 366 396 368 406 q 357 381 364 386 l 226 289 q 194 294 208 276 q 199 329 179 317 l 329 421 q 361 415 347 433 m 213 4 q 188 29 188 4 l 188 490 q 213 513 188 513 q 236 489 236 513 l 236 28 q 213 4 236 4 m 346 4 q 321 29 321 4 l 321 490 q 346 513 321 513 q 369 489 369 513 l 369 28 q 346 4 369 4 m 296 1075 q 275 1067 288 1067 q 250 1078 261 1067 q 238 1103 238 1090 q 247 1124 238 1114 l 396 1272 q 421 1285 408 1285 q 446 1272 433 1285 l 594 1124 q 604 1103 604 1114 q 592 1078 604 1090 q 567 1067 581 1067 q 546 1075 554 1067 l 421 1199 l 296 1075 m 449 1388 l 300 1535 q 288 1560 288 1547 q 299 1585 288 1574 q 324 1597 311 1597 q 349 1585 336 1597 l 497 1436 q 507 1415 507 1426 q 494 1390 507 1403 q 469 1379 483 1379 q 449 1388 457 1379 z "},"Ể":{"ha":840,"x_min":69,"x_max":806,"o":"m 201 0 q 167 50 167 0 l 167 936 q 201 972 167 972 q 236 936 236 972 l 236 36 q 201 0 236 0 m 106 0 q 69 35 69 0 q 106 69 69 69 l 765 69 q 801 35 801 69 q 765 0 801 0 l 106 0 m 217 460 q 181 494 181 460 q 217 529 181 529 l 696 529 q 732 494 732 529 q 696 460 732 460 l 217 460 m 106 903 q 69 938 69 903 q 106 972 69 972 l 765 972 q 794 963 782 972 q 806 938 806 954 q 794 912 806 921 q 765 903 782 903 l 106 903 m 642 388 q 618 397 626 388 q 608 424 608 407 l 608 492 q 617 518 608 508 q 642 528 626 528 q 668 518 658 528 q 676 492 676 508 l 676 424 q 667 397 676 407 q 642 388 658 388 m 642 601 q 667 592 658 601 q 676 565 676 582 l 676 497 q 668 471 676 482 q 642 461 658 461 q 617 471 626 461 q 608 497 608 482 l 608 565 q 618 592 608 582 q 642 601 626 601 m 361 689 q 366 669 368 679 q 357 654 364 660 l 226 563 q 194 568 208 550 q 199 603 179 590 l 329 694 q 361 689 347 707 m 361 825 q 366 806 368 815 q 357 790 364 796 l 226 699 q 194 704 208 686 q 199 739 179 726 l 329 831 q 361 825 347 843 m 213 414 q 188 439 188 414 l 188 900 q 213 922 188 922 q 236 899 236 922 l 236 438 q 213 414 236 414 m 346 414 q 321 439 321 414 l 321 900 q 346 922 321 922 q 369 899 369 922 l 369 438 q 346 414 369 414 m 361 279 q 366 260 368 269 q 357 244 364 250 l 226 153 q 194 158 208 140 q 199 193 179 181 l 329 285 q 361 279 347 297 m 361 415 q 366 396 368 406 q 357 381 364 386 l 226 289 q 194 294 208 276 q 199 329 179 317 l 329 421 q 361 415 347 433 m 213 4 q 188 29 188 4 l 188 490 q 213 513 188 513 q 236 489 236 513 l 236 28 q 213 4 236 4 m 346 4 q 321 29 321 4 l 321 490 q 346 513 321 513 q 369 489 369 513 l 369 28 q 346 4 369 4 m 214 1047 q 193 1039 206 1039 q 168 1050 179 1039 q 156 1075 156 1063 q 165 1096 156 1086 l 314 1244 q 339 1257 326 1257 q 364 1244 351 1257 l 513 1096 q 522 1075 522 1086 q 510 1050 522 1063 q 485 1039 499 1039 q 464 1047 472 1039 l 339 1171 l 214 1047 m 633 1015 q 607 1026 618 1015 q 596 1053 596 1038 q 597 1074 596 1056 q 608 1115 599 1093 q 638 1153 617 1138 q 653 1183 653 1164 q 642 1215 654 1203 q 608 1230 628 1232 q 573 1217 589 1228 q 550 1196 557 1207 q 537 1183 544 1189 q 517 1176 529 1176 q 486 1192 497 1176 q 481 1226 475 1208 q 546 1289 499 1274 q 639 1293 593 1304 q 704 1257 676 1283 q 733 1189 732 1231 q 723 1140 735 1161 q 697 1108 711 1118 q 678 1079 683 1097 q 672 1053 672 1061 q 660 1026 672 1038 q 633 1015 649 1015 z "},"Ễ":{"ha":840,"x_min":69,"x_max":806,"o":"m 201 0 q 167 50 167 0 l 167 936 q 201 972 167 972 q 236 936 236 972 l 236 36 q 201 0 236 0 m 106 0 q 69 35 69 0 q 106 69 69 69 l 765 69 q 801 35 801 69 q 765 0 801 0 l 106 0 m 217 460 q 181 494 181 460 q 217 529 181 529 l 696 529 q 732 494 732 529 q 696 460 732 460 l 217 460 m 106 903 q 69 938 69 903 q 106 972 69 972 l 765 972 q 794 963 782 972 q 806 938 806 954 q 794 912 806 921 q 765 903 782 903 l 106 903 m 642 388 q 618 397 626 388 q 608 424 608 407 l 608 492 q 617 518 608 508 q 642 528 626 528 q 668 518 658 528 q 676 492 676 508 l 676 424 q 667 397 676 407 q 642 388 658 388 m 642 601 q 667 592 658 601 q 676 565 676 582 l 676 497 q 668 471 676 482 q 642 461 658 461 q 617 471 626 461 q 608 497 608 482 l 608 565 q 618 592 608 582 q 642 601 626 601 m 361 689 q 366 669 368 679 q 357 654 364 660 l 226 563 q 194 568 208 550 q 199 603 179 590 l 329 694 q 361 689 347 707 m 361 825 q 366 806 368 815 q 357 790 364 796 l 226 699 q 194 704 208 686 q 199 739 179 726 l 329 831 q 361 825 347 843 m 213 414 q 188 439 188 414 l 188 900 q 213 922 188 922 q 236 899 236 922 l 236 438 q 213 414 236 414 m 346 414 q 321 439 321 414 l 321 900 q 346 922 321 922 q 369 899 369 922 l 369 438 q 346 414 369 414 m 361 279 q 366 260 368 269 q 357 244 364 250 l 226 153 q 194 158 208 140 q 199 193 179 181 l 329 285 q 361 279 347 297 m 361 415 q 366 396 368 406 q 357 381 364 386 l 226 289 q 194 294 208 276 q 199 329 179 317 l 329 421 q 361 415 347 433 m 213 4 q 188 29 188 4 l 188 490 q 213 513 188 513 q 236 489 236 513 l 236 28 q 213 4 236 4 m 346 4 q 321 29 321 4 l 321 490 q 346 513 321 513 q 369 489 369 513 l 369 28 q 346 4 369 4 m 296 1075 q 275 1067 288 1067 q 250 1078 261 1067 q 238 1103 238 1090 q 247 1124 238 1114 l 396 1272 q 421 1285 408 1285 q 446 1272 433 1285 l 594 1124 q 604 1103 604 1114 q 592 1078 604 1090 q 567 1067 581 1067 q 546 1075 554 1067 l 421 1199 l 296 1075 m 261 1397 q 233 1439 233 1397 q 252 1499 233 1471 q 328 1528 271 1528 q 392 1513 360 1528 q 453 1483 424 1499 q 504 1468 482 1468 q 531 1472 517 1468 q 549 1489 544 1475 q 561 1517 554 1507 q 582 1528 568 1528 q 607 1486 607 1528 q 588 1424 607 1451 q 515 1397 568 1397 q 444 1413 483 1397 q 372 1444 406 1428 q 325 1460 339 1460 q 305 1454 315 1460 q 290 1433 294 1449 q 279 1408 286 1419 q 261 1397 272 1397 z "},"Ȅ":{"ha":840,"x_min":69,"x_max":806,"o":"m 201 0 q 167 50 167 0 l 167 936 q 201 972 167 972 q 236 936 236 972 l 236 36 q 201 0 236 0 m 106 0 q 69 35 69 0 q 106 69 69 69 l 765 69 q 801 35 801 69 q 765 0 801 0 l 106 0 m 217 460 q 181 494 181 460 q 217 529 181 529 l 696 529 q 732 494 732 529 q 696 460 732 460 l 217 460 m 106 903 q 69 938 69 903 q 106 972 69 972 l 765 972 q 794 963 782 972 q 806 938 806 954 q 794 912 806 921 q 765 903 782 903 l 106 903 m 642 388 q 618 397 626 388 q 608 424 608 407 l 608 492 q 617 518 608 508 q 642 528 626 528 q 668 518 658 528 q 676 492 676 508 l 676 424 q 667 397 676 407 q 642 388 658 388 m 642 601 q 667 592 658 601 q 676 565 676 582 l 676 497 q 668 471 676 482 q 642 461 658 461 q 617 471 626 461 q 608 497 608 482 l 608 565 q 618 592 608 582 q 642 601 626 601 m 361 689 q 366 669 368 679 q 357 654 364 660 l 226 563 q 194 568 208 550 q 199 603 179 590 l 329 694 q 361 689 347 707 m 361 825 q 366 806 368 815 q 357 790 364 796 l 226 699 q 194 704 208 686 q 199 739 179 726 l 329 831 q 361 825 347 843 m 213 414 q 188 439 188 414 l 188 900 q 213 922 188 922 q 236 899 236 922 l 236 438 q 213 414 236 414 m 346 414 q 321 439 321 414 l 321 900 q 346 922 321 922 q 369 899 369 922 l 369 438 q 346 414 369 414 m 361 279 q 366 260 368 269 q 357 244 364 250 l 226 153 q 194 158 208 140 q 199 193 179 181 l 329 285 q 361 279 347 297 m 361 415 q 366 396 368 406 q 357 381 364 386 l 226 289 q 194 294 208 276 q 199 329 179 317 l 329 421 q 361 415 347 433 m 213 4 q 188 29 188 4 l 188 490 q 213 513 188 513 q 236 489 236 513 l 236 28 q 213 4 236 4 m 346 4 q 321 29 321 4 l 321 490 q 346 513 321 513 q 369 489 369 513 l 369 28 q 346 4 369 4 m 371 1049 l 222 1196 q 210 1221 210 1208 q 221 1246 210 1235 q 246 1258 233 1258 q 271 1246 258 1258 l 419 1097 q 429 1076 429 1088 q 417 1051 429 1064 q 392 1040 406 1040 q 371 1049 379 1040 m 540 1049 l 392 1196 q 379 1221 379 1208 q 390 1246 379 1235 q 415 1258 403 1258 q 440 1246 428 1258 l 589 1097 q 599 1076 599 1088 q 586 1051 599 1064 q 561 1040 575 1040 q 540 1049 549 1040 z "},"Ë":{"ha":840,"x_min":69,"x_max":806,"o":"m 201 0 q 167 50 167 0 l 167 936 q 201 972 167 972 q 236 936 236 972 l 236 36 q 201 0 236 0 m 106 0 q 69 35 69 0 q 106 69 69 69 l 765 69 q 801 35 801 69 q 765 0 801 0 l 106 0 m 217 460 q 181 494 181 460 q 217 529 181 529 l 696 529 q 732 494 732 529 q 696 460 732 460 l 217 460 m 106 903 q 69 938 69 903 q 106 972 69 972 l 765 972 q 794 963 782 972 q 806 938 806 954 q 794 912 806 921 q 765 903 782 903 l 106 903 m 642 388 q 618 397 626 388 q 608 424 608 407 l 608 492 q 617 518 608 508 q 642 528 626 528 q 668 518 658 528 q 676 492 676 508 l 676 424 q 667 397 676 407 q 642 388 658 388 m 642 601 q 667 592 658 601 q 676 565 676 582 l 676 497 q 668 471 676 482 q 642 461 658 461 q 617 471 626 461 q 608 497 608 482 l 608 565 q 618 592 608 582 q 642 601 626 601 m 361 689 q 366 669 368 679 q 357 654 364 660 l 226 563 q 194 568 208 550 q 199 603 179 590 l 329 694 q 361 689 347 707 m 361 825 q 366 806 368 815 q 357 790 364 796 l 226 699 q 194 704 208 686 q 199 739 179 726 l 329 831 q 361 825 347 843 m 213 414 q 188 439 188 414 l 188 900 q 213 922 188 922 q 236 899 236 922 l 236 438 q 213 414 236 414 m 346 414 q 321 439 321 414 l 321 900 q 346 922 321 922 q 369 899 369 922 l 369 438 q 346 414 369 414 m 361 279 q 366 260 368 269 q 357 244 364 250 l 226 153 q 194 158 208 140 q 199 193 179 181 l 329 285 q 361 279 347 297 m 361 415 q 366 396 368 406 q 357 381 364 386 l 226 289 q 194 294 208 276 q 199 329 179 317 l 329 421 q 361 415 347 433 m 213 4 q 188 29 188 4 l 188 490 q 213 513 188 513 q 236 489 236 513 l 236 28 q 213 4 236 4 m 346 4 q 321 29 321 4 l 321 490 q 346 513 321 513 q 369 489 369 513 l 369 28 q 346 4 369 4 m 503 1110 q 469 1124 482 1110 q 456 1158 456 1138 q 469 1192 456 1178 q 503 1207 482 1207 q 538 1192 524 1207 q 553 1158 553 1178 q 538 1124 553 1138 q 503 1110 524 1110 m 336 1110 q 302 1124 315 1110 q 289 1158 289 1138 q 302 1192 289 1178 q 336 1207 315 1207 q 372 1192 357 1207 q 386 1158 386 1178 q 372 1124 386 1138 q 336 1110 357 1110 z "},"Ė":{"ha":840,"x_min":69,"x_max":806,"o":"m 201 0 q 167 50 167 0 l 167 936 q 201 972 167 972 q 236 936 236 972 l 236 36 q 201 0 236 0 m 106 0 q 69 35 69 0 q 106 69 69 69 l 765 69 q 801 35 801 69 q 765 0 801 0 l 106 0 m 217 460 q 181 494 181 460 q 217 529 181 529 l 696 529 q 732 494 732 529 q 696 460 732 460 l 217 460 m 106 903 q 69 938 69 903 q 106 972 69 972 l 765 972 q 794 963 782 972 q 806 938 806 954 q 794 912 806 921 q 765 903 782 903 l 106 903 m 642 388 q 618 397 626 388 q 608 424 608 407 l 608 492 q 617 518 608 508 q 642 528 626 528 q 668 518 658 528 q 676 492 676 508 l 676 424 q 667 397 676 407 q 642 388 658 388 m 642 601 q 667 592 658 601 q 676 565 676 582 l 676 497 q 668 471 676 482 q 642 461 658 461 q 617 471 626 461 q 608 497 608 482 l 608 565 q 618 592 608 582 q 642 601 626 601 m 361 689 q 366 669 368 679 q 357 654 364 660 l 226 563 q 194 568 208 550 q 199 603 179 590 l 329 694 q 361 689 347 707 m 361 825 q 366 806 368 815 q 357 790 364 796 l 226 699 q 194 704 208 686 q 199 739 179 726 l 329 831 q 361 825 347 843 m 213 414 q 188 439 188 414 l 188 900 q 213 922 188 922 q 236 899 236 922 l 236 438 q 213 414 236 414 m 346 414 q 321 439 321 414 l 321 900 q 346 922 321 922 q 369 899 369 922 l 369 438 q 346 414 369 414 m 361 279 q 366 260 368 269 q 357 244 364 250 l 226 153 q 194 158 208 140 q 199 193 179 181 l 329 285 q 361 279 347 297 m 361 415 q 366 396 368 406 q 357 381 364 386 l 226 289 q 194 294 208 276 q 199 329 179 317 l 329 421 q 361 415 347 433 m 213 4 q 188 29 188 4 l 188 490 q 213 513 188 513 q 236 489 236 513 l 236 28 q 213 4 236 4 m 346 4 q 321 29 321 4 l 321 490 q 346 513 321 513 q 369 489 369 513 l 369 28 q 346 4 369 4 m 421 1078 q 384 1093 399 1078 q 369 1131 369 1108 q 384 1167 369 1151 q 421 1182 399 1182 q 458 1167 443 1182 q 474 1131 474 1151 q 458 1093 474 1108 q 421 1078 443 1078 z "},"Ẹ":{"ha":840,"x_min":69,"x_max":806,"o":"m 201 0 q 167 50 167 0 l 167 936 q 201 972 167 972 q 236 936 236 972 l 236 36 q 201 0 236 0 m 106 0 q 69 35 69 0 q 106 69 69 69 l 765 69 q 801 35 801 69 q 765 0 801 0 l 106 0 m 217 460 q 181 494 181 460 q 217 529 181 529 l 696 529 q 732 494 732 529 q 696 460 732 460 l 217 460 m 106 903 q 69 938 69 903 q 106 972 69 972 l 765 972 q 794 963 782 972 q 806 938 806 954 q 794 912 806 921 q 765 903 782 903 l 106 903 m 642 388 q 618 397 626 388 q 608 424 608 407 l 608 492 q 617 518 608 508 q 642 528 626 528 q 668 518 658 528 q 676 492 676 508 l 676 424 q 667 397 676 407 q 642 388 658 388 m 642 601 q 667 592 658 601 q 676 565 676 582 l 676 497 q 668 471 676 482 q 642 461 658 461 q 617 471 626 461 q 608 497 608 482 l 608 565 q 618 592 608 582 q 642 601 626 601 m 361 689 q 366 669 368 679 q 357 654 364 660 l 226 563 q 194 568 208 550 q 199 603 179 590 l 329 694 q 361 689 347 707 m 361 825 q 366 806 368 815 q 357 790 364 796 l 226 699 q 194 704 208 686 q 199 739 179 726 l 329 831 q 361 825 347 843 m 213 414 q 188 439 188 414 l 188 900 q 213 922 188 922 q 236 899 236 922 l 236 438 q 213 414 236 414 m 346 414 q 321 439 321 414 l 321 900 q 346 922 321 922 q 369 899 369 922 l 369 438 q 346 414 369 414 m 361 279 q 366 260 368 269 q 357 244 364 250 l 226 153 q 194 158 208 140 q 199 193 179 181 l 329 285 q 361 279 347 297 m 361 415 q 366 396 368 406 q 357 381 364 386 l 226 289 q 194 294 208 276 q 199 329 179 317 l 329 421 q 361 415 347 433 m 213 4 q 188 29 188 4 l 188 490 q 213 513 188 513 q 236 489 236 513 l 236 28 q 213 4 236 4 m 346 4 q 321 29 321 4 l 321 490 q 346 513 321 513 q 369 489 369 513 l 369 28 q 346 4 369 4 m 419 -211 q 383 -196 397 -211 q 368 -158 368 -181 q 383 -122 368 -137 q 419 -107 397 -107 q 457 -122 442 -107 q 472 -158 472 -137 q 457 -196 472 -181 q 419 -211 442 -211 z "},"È":{"ha":840,"x_min":69,"x_max":806,"o":"m 201 0 q 167 50 167 0 l 167 936 q 201 972 167 972 q 236 936 236 972 l 236 36 q 201 0 236 0 m 106 0 q 69 35 69 0 q 106 69 69 69 l 765 69 q 801 35 801 69 q 765 0 801 0 l 106 0 m 217 460 q 181 494 181 460 q 217 529 181 529 l 696 529 q 732 494 732 529 q 696 460 732 460 l 217 460 m 106 903 q 69 938 69 903 q 106 972 69 972 l 765 972 q 794 963 782 972 q 806 938 806 954 q 794 912 806 921 q 765 903 782 903 l 106 903 m 642 388 q 618 397 626 388 q 608 424 608 407 l 608 492 q 617 518 608 508 q 642 528 626 528 q 668 518 658 528 q 676 492 676 508 l 676 424 q 667 397 676 407 q 642 388 658 388 m 642 601 q 667 592 658 601 q 676 565 676 582 l 676 497 q 668 471 676 482 q 642 461 658 461 q 617 471 626 461 q 608 497 608 482 l 608 565 q 618 592 608 582 q 642 601 626 601 m 361 689 q 366 669 368 679 q 357 654 364 660 l 226 563 q 194 568 208 550 q 199 603 179 590 l 329 694 q 361 689 347 707 m 361 825 q 366 806 368 815 q 357 790 364 796 l 226 699 q 194 704 208 686 q 199 739 179 726 l 329 831 q 361 825 347 843 m 213 414 q 188 439 188 414 l 188 900 q 213 922 188 922 q 236 899 236 922 l 236 438 q 213 414 236 414 m 346 414 q 321 439 321 414 l 321 900 q 346 922 321 922 q 369 899 369 922 l 369 438 q 346 414 369 414 m 361 279 q 366 260 368 269 q 357 244 364 250 l 226 153 q 194 158 208 140 q 199 193 179 181 l 329 285 q 361 279 347 297 m 361 415 q 366 396 368 406 q 357 381 364 386 l 226 289 q 194 294 208 276 q 199 329 179 317 l 329 421 q 361 415 347 433 m 213 4 q 188 29 188 4 l 188 490 q 213 513 188 513 q 236 489 236 513 l 236 28 q 213 4 236 4 m 346 4 q 321 29 321 4 l 321 490 q 346 513 321 513 q 369 489 369 513 l 369 28 q 346 4 369 4 m 449 1075 l 300 1222 q 288 1247 288 1235 q 299 1272 288 1261 q 324 1285 311 1285 q 349 1272 336 1285 l 497 1124 q 507 1103 507 1114 q 494 1078 507 1090 q 469 1067 483 1067 q 449 1075 457 1067 z "},"Ẻ":{"ha":840,"x_min":69,"x_max":806,"o":"m 201 0 q 167 50 167 0 l 167 936 q 201 972 167 972 q 236 936 236 972 l 236 36 q 201 0 236 0 m 106 0 q 69 35 69 0 q 106 69 69 69 l 765 69 q 801 35 801 69 q 765 0 801 0 l 106 0 m 217 460 q 181 494 181 460 q 217 529 181 529 l 696 529 q 732 494 732 529 q 696 460 732 460 l 217 460 m 106 903 q 69 938 69 903 q 106 972 69 972 l 765 972 q 794 963 782 972 q 806 938 806 954 q 794 912 806 921 q 765 903 782 903 l 106 903 m 642 388 q 618 397 626 388 q 608 424 608 407 l 608 492 q 617 518 608 508 q 642 528 626 528 q 668 518 658 528 q 676 492 676 508 l 676 424 q 667 397 676 407 q 642 388 658 388 m 642 601 q 667 592 658 601 q 676 565 676 582 l 676 497 q 668 471 676 482 q 642 461 658 461 q 617 471 626 461 q 608 497 608 482 l 608 565 q 618 592 608 582 q 642 601 626 601 m 361 689 q 366 669 368 679 q 357 654 364 660 l 226 563 q 194 568 208 550 q 199 603 179 590 l 329 694 q 361 689 347 707 m 361 825 q 366 806 368 815 q 357 790 364 796 l 226 699 q 194 704 208 686 q 199 739 179 726 l 329 831 q 361 825 347 843 m 213 414 q 188 439 188 414 l 188 900 q 213 922 188 922 q 236 899 236 922 l 236 438 q 213 414 236 414 m 346 414 q 321 439 321 414 l 321 900 q 346 922 321 922 q 369 899 369 922 l 369 438 q 346 414 369 414 m 361 279 q 366 260 368 269 q 357 244 364 250 l 226 153 q 194 158 208 140 q 199 193 179 181 l 329 285 q 361 279 347 297 m 361 415 q 366 396 368 406 q 357 381 364 386 l 226 289 q 194 294 208 276 q 199 329 179 317 l 329 421 q 361 415 347 433 m 213 4 q 188 29 188 4 l 188 490 q 213 513 188 513 q 236 489 236 513 l 236 28 q 213 4 236 4 m 346 4 q 321 29 321 4 l 321 490 q 346 513 321 513 q 369 489 369 513 l 369 28 q 346 4 369 4 m 425 1046 q 399 1057 410 1046 q 388 1083 388 1068 q 389 1105 388 1086 q 399 1146 390 1124 q 429 1183 408 1168 q 445 1214 444 1194 q 433 1246 446 1233 q 400 1260 419 1263 q 365 1248 381 1258 q 342 1226 349 1238 q 328 1213 336 1219 q 308 1207 321 1207 q 278 1223 289 1207 q 272 1257 267 1239 q 338 1319 290 1304 q 431 1324 385 1335 q 496 1288 468 1314 q 525 1219 524 1261 q 515 1170 526 1192 q 489 1139 503 1149 q 469 1110 475 1128 q 464 1083 464 1092 q 452 1057 464 1068 q 425 1046 440 1046 z "},"Ȇ":{"ha":840,"x_min":69,"x_max":806,"o":"m 201 0 q 167 50 167 0 l 167 936 q 201 972 167 972 q 236 936 236 972 l 236 36 q 201 0 236 0 m 106 0 q 69 35 69 0 q 106 69 69 69 l 765 69 q 801 35 801 69 q 765 0 801 0 l 106 0 m 217 460 q 181 494 181 460 q 217 529 181 529 l 696 529 q 732 494 732 529 q 696 460 732 460 l 217 460 m 106 903 q 69 938 69 903 q 106 972 69 972 l 765 972 q 794 963 782 972 q 806 938 806 954 q 794 912 806 921 q 765 903 782 903 l 106 903 m 642 388 q 618 397 626 388 q 608 424 608 407 l 608 492 q 617 518 608 508 q 642 528 626 528 q 668 518 658 528 q 676 492 676 508 l 676 424 q 667 397 676 407 q 642 388 658 388 m 642 601 q 667 592 658 601 q 676 565 676 582 l 676 497 q 668 471 676 482 q 642 461 658 461 q 617 471 626 461 q 608 497 608 482 l 608 565 q 618 592 608 582 q 642 601 626 601 m 361 689 q 366 669 368 679 q 357 654 364 660 l 226 563 q 194 568 208 550 q 199 603 179 590 l 329 694 q 361 689 347 707 m 361 825 q 366 806 368 815 q 357 790 364 796 l 226 699 q 194 704 208 686 q 199 739 179 726 l 329 831 q 361 825 347 843 m 213 414 q 188 439 188 414 l 188 900 q 213 922 188 922 q 236 899 236 922 l 236 438 q 213 414 236 414 m 346 414 q 321 439 321 414 l 321 900 q 346 922 321 922 q 369 899 369 922 l 369 438 q 346 414 369 414 m 361 279 q 366 260 368 269 q 357 244 364 250 l 226 153 q 194 158 208 140 q 199 193 179 181 l 329 285 q 361 279 347 297 m 361 415 q 366 396 368 406 q 357 381 364 386 l 226 289 q 194 294 208 276 q 199 329 179 317 l 329 421 q 361 415 347 433 m 213 4 q 188 29 188 4 l 188 490 q 213 513 188 513 q 236 489 236 513 l 236 28 q 213 4 236 4 m 346 4 q 321 29 321 4 l 321 490 q 346 513 321 513 q 369 489 369 513 l 369 28 q 346 4 369 4 m 422 1246 q 514 1224 474 1246 q 578 1170 554 1203 q 601 1103 601 1138 q 592 1072 601 1085 q 569 1058 582 1058 q 542 1070 553 1058 q 526 1100 532 1082 q 422 1176 507 1176 q 356 1157 383 1176 q 317 1099 328 1138 q 301 1069 311 1081 q 274 1058 290 1058 q 250 1070 260 1058 q 240 1100 240 1082 q 260 1157 240 1122 q 319 1219 279 1192 q 422 1246 360 1246 z "}}}
